<?xml version="1.0" encoding="utf-8"?>
<!-- Generator: Adobe Illustrator 24.0.0, SVG Export Plug-In . SVG Version: 6.00 Build 0)  -->
<svg version="1.1" id="Шар_1" xmlns="http://www.w3.org/2000/svg" xmlns:xlink="http://www.w3.org/1999/xlink" x="0px" y="0px"
	 viewBox="0 0 1796 520" style="enable-background:new 0 0 1796 520;" xml:space="preserve">
<style type="text/css">
	.st0{fill:#19264A;}
	.st1{fill:#DA2032;}
</style>
<g>
	<g>
		<path class="st0" d="M704.31,328.08c0,6.81-1.48,13.29-4.43,19.42c-2.96,6.14-7.08,11.55-12.38,16.24
			c-5.3,4.7-11.59,8.44-18.85,11.24c-7.27,2.8-15.3,4.2-24.08,4.2c-7.88,0-14.96-0.46-21.24-1.36c-6.29-0.91-12.19-2.35-17.72-4.32
			c-5.53-1.97-10.83-4.51-15.9-7.61c-5.08-3.1-10.33-6.85-15.79-11.24l24.99-25.21c7.27,6.06,14.39,10.34,21.35,12.84
			c6.96,2.5,14.54,3.75,22.72,3.75c3.33,0,6.47-0.49,9.43-1.48c2.95-0.98,5.53-2.31,7.72-3.97c2.19-1.67,3.94-3.63,5.23-5.91
			c1.28-2.27,1.93-4.77,1.93-7.5c0-2.88-0.53-5.45-1.59-7.72c-1.06-2.27-2.95-4.46-5.68-6.59c-2.73-2.12-6.51-4.28-11.36-6.48
			c-4.85-2.19-11.06-4.66-18.63-7.38c-6.67-2.42-13.06-5.19-19.2-8.29c-6.13-3.1-11.51-6.85-16.13-11.24
			c-4.62-4.39-8.33-9.54-11.13-15.45c-2.8-5.91-4.2-12.87-4.2-20.9c0-7.72,1.55-14.84,4.66-21.35c3.1-6.51,7.34-12.08,12.72-16.7
			c5.37-4.62,11.66-8.21,18.85-10.79c7.19-2.57,14.95-3.86,23.28-3.86c13.93,0,25.67,1.82,35.21,5.45
			c9.54,3.63,18.02,8.93,25.44,15.9l-24.53,24.76c-4.54-4.39-9.62-7.76-15.22-10.11c-5.6-2.34-12.19-3.52-19.76-3.52
			c-3.49,0-6.7,0.53-9.65,1.59c-2.95,1.06-5.49,2.46-7.61,4.2c-2.12,1.75-3.83,3.79-5.11,6.14c-1.29,2.35-1.93,4.81-1.93,7.38
			c0,2.88,0.6,5.49,1.82,7.84c1.21,2.35,3.26,4.62,6.13,6.81c2.87,2.2,6.7,4.39,11.47,6.59c4.77,2.2,10.71,4.58,17.83,7.16
			c9.09,3.18,16.88,6.66,23.4,10.45c6.51,3.79,11.81,7.95,15.9,12.49c4.09,4.54,7.12,9.65,9.09,15.33
			C703.33,314.56,704.31,320.97,704.31,328.08z"/>
		<path class="st0" d="M843.1,356.02c-6.66,7.57-14.69,13.33-24.08,17.26c-9.39,3.94-19.23,5.91-29.53,5.91
			c-9.54,0-18.55-1.75-27.02-5.23c-8.48-3.48-15.83-8.29-22.07-14.43c-6.24-6.13-11.17-13.44-14.77-21.92
			c-3.61-8.48-5.41-17.64-5.41-27.48c0-9.69,1.8-18.74,5.41-27.15c3.61-8.4,8.5-15.71,14.66-21.92
			c6.16-6.21,13.48-11.09,21.95-14.65c8.47-3.55,17.55-5.34,27.25-5.34c9.99,0,19.5,1.82,28.51,5.45
			c9.01,3.63,16.84,9.16,23.51,16.58l-22.04,22.49c-3.33-4.39-7.38-8.03-12.15-10.9c-4.77-2.87-10.56-4.32-17.38-4.32
			c-5,0-9.73,1.06-14.2,3.18c-4.47,2.12-8.41,4.96-11.81,8.52c-3.41,3.56-6.1,7.76-8.06,12.6c-1.97,4.85-2.95,10-2.95,15.45
			s0.98,10.6,2.95,15.44c1.97,4.85,4.62,9.05,7.95,12.61c3.33,3.56,7.27,6.4,11.81,8.52c4.54,2.12,9.31,3.18,14.31,3.18
			c6.51,0,12.42-1.55,17.72-4.66c5.3-3.1,9.54-7.08,12.72-11.93L843.1,356.02z"/>
		<path class="st0" d="M953.49,258.12L936,285.83c-3.18-3.48-6.7-6.55-10.56-9.2s-7.76-3.98-11.7-3.98c-2.12,0-4.43,0.49-6.93,1.48
			c-2.5,0.99-4.85,2.61-7.04,4.88c-2.2,2.27-4.05,5.26-5.57,8.97c-1.52,3.71-2.27,8.29-2.27,13.74v74.05h-32.71V244.49h32.71v14.08
			c3.93-5.6,8.29-9.92,13.06-12.95c4.77-3.03,10.11-4.54,16.02-4.54c5.75,0,11.39,1.55,16.92,4.66
			C943.46,248.84,948.65,252.97,953.49,258.12z"/>
		<path class="st0" d="M1071.61,375.78h-32.71v-7.04c-5.76,3.94-11.85,6.67-18.29,8.18c-6.44,1.51-13.06,2.27-19.88,2.27
			c-6.36,0-12.12-0.95-17.26-2.84c-5.15-1.89-9.62-4.62-13.4-8.18c-3.79-3.56-6.7-7.76-8.75-12.61c-2.05-4.84-3.07-10.22-3.07-16.13
			c0-7.42,1.63-13.89,4.88-19.42c3.26-5.53,7.68-10.14,13.29-13.86c5.6-3.71,12.16-6.47,19.65-8.29c7.5-1.82,15.56-2.72,24.19-2.72
			h18.85c0-7.72-2.5-13.86-7.5-18.4c-5-4.54-12.19-6.81-21.58-6.81c-4.54,0-9.24,0.83-14.08,2.5c-4.85,1.67-9.69,4.69-14.53,9.08
			l-19.31-19.53c6.96-6.66,15.03-11.81,24.19-15.44c9.16-3.64,18.59-5.45,28.28-5.45c9.09,0,17.17,1.44,24.27,4.32
			c7.09,2.88,12.82,6.59,17.18,11.13c5.71,5.76,9.74,12.19,12.07,19.31c2.33,7.12,3.5,16.21,3.5,27.26V375.78z M1038.9,343.07
			v-24.31h-14.99c-4.54,0-8.82,0.31-12.83,0.91c-4.02,0.61-7.5,1.63-10.45,3.06c-2.96,1.44-5.3,3.3-7.04,5.57
			c-1.74,2.27-2.61,5-2.61,8.18c0,4.54,1.78,8.26,5.34,11.13s8.14,4.32,13.74,4.32c4.85,0,9.65-0.76,14.43-2.27
			C1029.24,348.15,1034.05,345.95,1038.9,343.07z"/>
		<path class="st0" d="M1223.11,310.37c0,9.24-1.56,18.02-4.67,26.35c-3.11,8.33-7.48,15.64-13.09,21.92
			c-5.62,6.29-12.3,11.28-20.04,14.99s-16.24,5.57-25.5,5.57c-5.77,0-11.16-0.8-16.17-2.39c-5.01-1.59-9.72-4.12-14.12-7.61
			l0.22,63.6h-32.94V244.26h32.94l0.23,6.81c3.78-3.03,8.29-5.45,13.51-7.27c5.23-1.82,10.71-2.73,16.47-2.73
			c8.03,0,15.82,1.78,23.4,5.34c7.57,3.56,14.31,8.44,20.22,14.65c5.91,6.21,10.64,13.51,14.2,21.92
			C1221.33,291.4,1223.11,300.52,1223.11,310.37z M1189.72,310.59c0-6.21-0.91-11.81-2.73-16.81c-1.82-5-4.38-9.27-7.64-12.83
			c-3.27-3.56-7.15-6.28-11.63-8.18c-4.49-1.89-9.46-2.84-14.93-2.84c-3.5,0-7.49,0.72-11.97,2.16c-4.49,1.44-8.25,3.37-11.29,5.79
			v62.92c7.14,6.51,15.12,9.77,23.94,9.77c5.17,0,9.99-0.99,14.48-2.95c4.48-1.97,8.32-4.73,11.51-8.29
			c3.19-3.55,5.7-7.8,7.53-12.72C1188.81,321.68,1189.72,316.35,1189.72,310.59z"/>
		<path class="st0" d="M1350.09,375.78h-32.71v-7.04c-5.76,3.94-11.85,6.67-18.29,8.18c-6.44,1.51-13.06,2.27-19.88,2.27
			c-6.36,0-12.12-0.95-17.26-2.84c-5.15-1.89-9.62-4.62-13.4-8.18c-3.79-3.56-6.7-7.76-8.75-12.61c-2.05-4.84-3.07-10.22-3.07-16.13
			c0-7.42,1.63-13.89,4.88-19.42c3.26-5.53,7.68-10.14,13.29-13.86c5.6-3.71,12.16-6.47,19.65-8.29c7.5-1.82,15.56-2.72,24.19-2.72
			h18.85c0-7.72-2.5-13.86-7.5-18.4c-5-4.54-12.19-6.81-21.58-6.81c-4.54,0-9.24,0.83-14.08,2.5c-4.85,1.67-9.69,4.69-14.53,9.08
			l-19.31-19.53c6.96-6.66,15.03-11.81,24.19-15.44c9.16-3.64,18.59-5.45,28.28-5.45c9.09,0,17.17,1.44,24.27,4.32
			c7.09,2.88,12.82,6.59,17.18,11.13c5.71,5.76,9.74,12.19,12.07,19.31c2.33,7.12,3.5,16.21,3.5,27.26V375.78z M1317.38,343.07
			v-24.31h-14.99c-4.54,0-8.82,0.31-12.83,0.91c-4.02,0.61-7.5,1.63-10.45,3.06c-2.96,1.44-5.3,3.3-7.04,5.57
			c-1.74,2.27-2.61,5-2.61,8.18c0,4.54,1.78,8.26,5.34,11.13c3.56,2.88,8.14,4.32,13.74,4.32c4.85,0,9.65-0.76,14.43-2.27
			C1307.72,348.15,1312.53,345.95,1317.38,343.07z"/>
		<path class="st0" d="M1501.59,310.14c0,9.24-1.56,18.02-4.67,26.35c-3.11,8.33-7.48,15.64-13.09,21.92
			c-5.62,6.29-12.3,11.28-20.04,14.99s-16.24,5.57-25.5,5.57c-5.77,0-11.16-0.79-16.17-2.39c-5.01-1.59-9.72-4.12-14.12-7.61v6.81
			h-32.71V187.25h32.94l0.23,63.6c3.78-3.03,8.29-5.45,13.51-7.27c5.23-1.82,10.71-2.72,16.47-2.72c8.03,0,15.82,1.78,23.4,5.34
			c7.57,3.56,14.31,8.44,20.22,14.65c5.91,6.21,10.64,13.51,14.2,21.92C1499.81,291.17,1501.59,300.3,1501.59,310.14z
			 M1468.42,310.14c0-6.05-0.91-11.59-2.74-16.58c-1.82-5-4.37-9.27-7.64-12.83c-3.27-3.55-7.14-6.28-11.63-8.18
			c-4.48-1.89-9.46-2.84-14.93-2.84c-3.5,0-7.53,0.72-12.08,2.16c-4.56,1.44-8.36,3.29-11.4,5.57v63.15
			c7.14,6.51,15.2,9.77,24.17,9.77c5.17,0,9.99-0.98,14.48-2.95c4.48-1.97,8.32-4.73,11.51-8.29c3.19-3.56,5.7-7.8,7.52-12.72
			C1467.51,321.46,1468.42,316.04,1468.42,310.14z"/>
		<rect x="1522.48" y="244.26" class="st0" width="33.16" height="131.52"/>
		<path class="st0" d="M1641.06,375.1c-2.58,1.21-5.49,2.2-8.75,2.95c-3.26,0.76-6.63,1.14-10.11,1.14c-4.85,0-9.51-0.65-13.97-1.93
			c-4.47-1.29-8.37-3.37-11.7-6.24c-3.33-2.88-5.98-6.62-7.95-11.24c-1.97-4.62-2.96-10.18-2.96-16.7V187.25h33.39v150.15
			c0,5.45,1.09,9.2,3.29,11.24c2.19,2.05,4.81,3.07,7.84,3.07c3.78,0,7.42-1.13,10.9-3.4V375.1z"/>
		<path class="st0" d="M1712.38,375.1c-2.58,1.21-5.49,2.2-8.75,2.95c-3.26,0.76-6.63,1.14-10.11,1.14c-4.85,0-9.51-0.65-13.97-1.93
			c-4.47-1.29-8.37-3.37-11.7-6.24c-3.33-2.88-5.98-6.62-7.95-11.24c-1.97-4.62-2.96-10.18-2.96-16.7V187.25h33.39v150.15
			c0,5.45,1.09,9.2,3.29,11.24c2.19,2.05,4.81,3.07,7.84,3.07c3.78,0,7.42-1.13,10.9-3.4V375.1z"/>
		<circle class="st1" cx="1539" cy="210" r="23"/>
	</g>
	<g>
		
			<rect x="133" y="178.62" transform="matrix(0.7071 -0.7071 0.7071 0.7071 -74.5859 211.2408)" class="st0" width="169.4" height="34.07"/>
		<path class="st1" d="M346.79,112.27c-8.88,8.54-14.64,14.09-26.35,25.35c-12.54-15.34-23.79-29.36-35.31-43.15
			c-11.87-14.2-23.43-14.89-37.04-0.95c-37.83,38.73-76.65,76.48-114.62,115.08c-25.91,26.34-27.94,54.25-6.65,76.09
			c21.24,21.8,49.54,19.93,75.65-5.93c49.55-49.08,98.7-98.58,148.08-147.84c26.25-26.19,49.74-26.28,76.53,0.03
			c23.42,23,46.78,46.07,69.52,69.74c23.02,23.96,22.77,49.9-0.58,73.6c-56.45,57.27-113.03,114.4-169.95,171.21
			c-28.85,28.79-52.19,28.69-80.32,0.49c-45.78-45.9-91.47-91.88-136.96-138.07c-33.19-33.71-33.59-80.83-0.93-114.28
			c38.41-39.33,77.09-78.41,115.88-117.37c30.88-31.02,52.97-31.06,84.33-0.86C319.87,86.77,331.8,98.01,346.79,112.27z
			 M173.51,334.57c30.02,29.12,61.81,58.66,92,89.77c14.96,15.41,25.52,15.25,40.47-0.08c52.15-53.48,105.36-105.93,158.19-158.75
			c27.85-27.84,27.39-32.88-11.27-62.28c-6.8,9.09-13.67,19.46-21.74,28.79c-12.37,14.3-24.48,12.43-37.59-0.6
			c-13.52-13.44-12.97-25.11,0.14-37.82c9.11-8.84,17.81-18.1,26.38-26.86c-27.74-32.45-31.89-32.56-59.51-4.94
			c-45.28,45.28-90.16,90.98-136.24,135.44C210.64,310.45,193.49,320.09,173.51,334.57z"/>
	</g>
</g>
</svg>
