
<svg width="1500" height="1200" viewBox="0 0 1500 1200" fill="none" xmlns="http://www.w3.org/2000/svg">
<g clip-path="url(#clip0)">
<rect width="1500" height="1200" fill="white"/>
<path d="M68.0156 621.027H495.951V958.939H68.0156V621.027Z" fill="#AAC4EE"/>
<path d="M116.289 563.621H544.224V901.533H116.289V563.621Z" fill="#C1D5F5"/>
<path d="M201.094 521.872H629.029V859.784H201.094V521.872Z" fill="#E1ECFE"/>
<path d="M270.242 467.075H698.177V804.987H270.242V467.075Z" fill="#C1D5F5"/>
<path d="M391.574 604.066H819.509V941.978H391.574V604.066Z" fill="#E1ECFE"/>
<path d="M492.035 678.434H919.97V1016.35H492.035V678.434Z" fill="#C1D5F5"/>
<path d="M559.879 743.667H987.814V1081.58H559.879V743.667Z" fill="#E1ECFE"/>
<path d="M629.027 802.378H1056.96V1140.29H629.027V802.378Z" fill="#C1D5F5"/>
<path d="M698.176 861.088H1126.11V1199H698.176V861.088Z" fill="#E1ECFE"/>
<path fill-rule="evenodd" clip-rule="evenodd" d="M679.672 358.76C683.192 353.855 685.434 348.969 686.507 345.948L680.361 343.764C679.467 346.277 677.496 350.605 674.373 354.956C671.245 359.314 667.091 363.519 661.89 366.06C660.271 366.85 659.6 368.803 660.39 370.422C661.181 372.041 663.134 372.712 664.753 371.921C671.238 368.753 676.157 363.659 679.672 358.76Z" fill="#01011D"/>
<path fill-rule="evenodd" clip-rule="evenodd" d="M538.66 251.539C545.576 252.83 551.738 255.665 555.226 257.837L557.985 253.408C554.015 250.935 547.249 247.833 539.617 246.409C531.992 244.986 523.193 245.187 515.485 249.749C514.245 250.483 513.834 252.083 514.568 253.323C515.302 254.564 516.903 254.974 518.143 254.24C524.37 250.555 531.738 250.248 538.66 251.539Z" fill="#00011C"/>
<path d="M704.362 243.971C714.193 254.123 698.793 294.662 695.698 316.572C694.095 327.918 691.171 346.34 684.296 352.072C664.87 365.289 644.242 359.713 636.357 355.273L621.719 357.195L530.048 299.946C527.713 295.758 521.22 286.168 513.926 281.306C506.632 276.445 509.458 270.566 511.783 268.234C519.911 260.604 542.709 247.624 568.874 256.749C595.039 265.873 614.37 251.073 620.764 242.533C636.355 221.708 696.128 235.469 704.362 243.971Z" fill="#070A54"/>
<path d="M656.515 328.004L629.413 364.477L603.339 345.671C619.202 344.115 619.778 313.118 618.083 297.814L656.515 328.004Z" fill="#FBB4D0"/>
<path d="M639.631 314.742L656.513 328.003L640.949 348.948C628.723 337.005 634.977 321.168 639.631 314.742Z" fill="#FB84B2"/>
<path d="M622.506 306.038C653.015 349.935 676.215 337.305 683.666 325.056C691.936 311.46 703.82 275.629 705.653 268.306C707.119 262.448 704.396 262.143 702.85 262.723C703.756 258.196 704.14 250.774 698.428 257.31C675.028 273.796 653.078 273.247 645.028 270.913C636.353 269.048 634.882 261.763 635.23 258.354C635.579 254.945 629.531 251.244 619.968 253.404C610.405 255.564 610.007 268.357 611.003 274.484C611.976 277.015 615.207 283.138 620.355 287.378C625.502 291.617 623.14 294.023 621.315 294.696C618.988 295.165 615.967 298.091 622.506 306.038Z" fill="#FBB4D0"/>
<path d="M637.089 368.399L583.916 331.661L507.539 451.544C523.008 469.268 562.26 503.751 595.517 499.883C628.775 496.016 637.089 410.616 637.089 368.399Z" fill="#F78227"/>
<path d="M88.9476 947.063C86.784 959.45 89.1298 970.015 90.5277 974.637C97.2891 996.99 92.6849 999.23 88.9822 1001.92C72.6878 1013.74 63.3061 996 58.196 986.335L58.0601 986.078C44.1293 959.742 19.323 882.093 14.363 851.526C17.3614 848.423 27.4563 847.778 28.8391 846.424C41.0075 834.511 63.1792 835.678 73.5653 838.102C83.09 840.325 77.8506 850.076 73.278 853.78C64.7414 860.694 66.7342 867.013 69.4752 870.696C72.6549 874.969 81.9173 880.493 86.4607 882.612C97.3658 887.696 97.7055 895.539 97.1439 899.073C95.6409 908.53 91.0535 935.007 88.9476 947.063Z" fill="#01032D"/>
<path d="M88.9507 947.064C86.7871 959.451 89.1329 970.016 90.5309 974.638C96.5141 994.418 93.5973 998.449 90.2809 1000.98C88.4014 1001.8 84.2702 1003.58 82.7813 1004.1C81.1269 1004.69 75.4841 1003.19 73.5893 997.812C60.3848 963.64 32.9491 885.523 28.8422 846.426C41.0106 834.512 63.1823 835.679 73.5684 838.103C83.0932 840.326 77.8537 850.078 73.2812 853.781C64.7445 860.695 66.7374 867.014 69.4783 870.697C72.658 874.971 81.9205 880.495 86.4639 882.613C97.3689 887.697 97.7087 895.54 97.147 899.074C95.644 908.531 91.0566 935.008 88.9507 947.064Z" fill="#030541"/>
<path d="M86.4633 882.613C97.3684 887.697 97.7081 895.539 97.1465 899.074L140.871 883.665L119.154 822.038L73.5679 838.103C83.0926 840.326 77.8531 850.077 73.2806 853.781C64.744 860.695 66.7368 867.014 69.4778 870.697C72.6575 874.97 81.9199 880.494 86.4633 882.613Z" fill="#FBB4D0"/>
<path d="M79.1836 943.067L82.6098 936.807L11.7367 898.021L8.31056 904.282L79.1836 943.067Z" fill="#FFFFF9"/>
<path d="M82.6328 930.288L86.059 924.027L17.3195 886.41L13.8933 892.67L82.6328 930.288Z" fill="#FFFFF9"/>
<path d="M85.8125 917.716L89.2387 911.455L22.9046 874.798L19.4784 881.059L85.8125 917.716Z" fill="#FFFFF9"/>
<path d="M88.4225 904.01L91.8486 897.749L28.4886 863.188L25.0624 869.449L88.4225 904.01Z" fill="#FFFFF9"/>
<path d="M14.3623 851.526C17.3606 848.424 27.4555 847.779 28.8383 846.425C40.2253 894.196 66.5992 992.915 80.9992 1005.62C69.5142 1007.74 62.4051 994.298 58.1952 986.336L58.1952 986.336L58.0593 986.079C44.1286 959.742 19.3222 882.094 14.3623 851.526Z" fill="#01032D"/>
<path d="M84.9397 939.642C84.0788 944.13 86.8817 947.249 88.7113 948.542C88.1763 952.156 88.0157 955.597 88.0889 958.758C85.9704 957.49 81.2085 954.255 79.1082 951.461C77.7263 949.623 75.5826 948.054 76.0965 941.596C77.1815 927.962 80.7738 897.078 86.4631 882.612C90.9282 884.694 93.622 887.238 95.2079 889.759C93.6512 894.958 87.7138 925.18 84.9397 939.642Z" fill="#161AA8"/>
<path d="M81.5174 933.641C80.5595 933.496 79.5779 934.735 79.325 936.408C79.0721 938.08 79.6436 939.554 80.6015 939.699C81.5594 939.844 82.541 938.605 82.7939 936.932C83.0468 935.259 82.4753 933.786 81.5174 933.641Z" fill="#030541"/>
<path d="M83.4158 922.192C82.4579 922.047 81.4764 923.286 81.2235 924.958C80.9706 926.631 81.5421 928.105 82.5 928.249C83.4578 928.394 84.4394 927.156 84.6923 925.483C84.9452 923.81 84.3737 922.337 83.4158 922.192Z" fill="#030541"/>
<path d="M85.8767 912.026C84.9188 911.881 83.9373 913.12 83.6844 914.792C83.4315 916.465 84.003 917.939 84.9609 918.083C85.9188 918.228 86.9003 916.99 87.1532 915.317C87.4061 913.644 86.8346 912.171 85.8767 912.026Z" fill="#030541"/>
<path d="M87.9236 902.004C86.9657 901.859 85.9842 903.098 85.7313 904.771C85.4784 906.444 86.0499 907.917 87.0078 908.062C87.9657 908.207 88.9472 906.968 89.2001 905.295C89.453 903.623 88.8815 902.149 87.9236 902.004Z" fill="#030541"/>
<path d="M89.9471 890.597C88.9892 890.452 88.0076 891.691 87.7547 893.364C87.5018 895.036 88.0733 896.51 89.0312 896.655C89.9891 896.8 90.9706 895.561 91.2235 893.888C91.4765 892.215 90.9049 890.742 89.9471 890.597Z" fill="#030541"/>
<path d="M90.4866 941.44C90.9557 941.56 91.4338 941.278 91.5545 940.809L92.2988 937.917C92.4195 937.448 92.1371 936.97 91.668 936.849L81.6087 934.26C81.1396 934.14 80.6615 934.422 80.5408 934.891L79.7965 937.783C79.6758 938.252 79.9582 938.73 80.4273 938.851L90.4866 941.44Z" fill="#171EF2"/>
<path d="M92.3811 929.991C92.8502 930.112 93.3283 929.83 93.4491 929.361L94.1933 926.469C94.314 926 94.0316 925.522 93.5625 925.401L83.5033 922.812C83.0342 922.691 82.556 922.974 82.4353 923.443L81.6911 926.334C81.5703 926.804 81.8527 927.282 82.3219 927.402L92.3811 929.991Z" fill="#171EF2"/>
<path d="M94.842 919.824C95.3111 919.945 95.7893 919.663 95.91 919.194L96.6542 916.302C96.775 915.833 96.4925 915.355 96.0234 915.234L85.9642 912.645C85.4951 912.524 85.017 912.807 84.8962 913.276L84.152 916.167C84.0313 916.637 84.3137 917.115 84.7828 917.235L94.842 919.824Z" fill="#171EF2"/>
<path d="M96.8928 909.804C97.3619 909.925 97.8401 909.642 97.9608 909.173L98.705 906.281C98.8257 905.812 98.5433 905.334 98.0742 905.213L88.015 902.625C87.5459 902.504 87.0677 902.786 86.947 903.255L86.2028 906.147C86.0821 906.616 86.3645 907.094 86.8336 907.215L96.8928 909.804Z" fill="#171EF2"/>
<path d="M98.9162 898.397C99.3853 898.517 99.8635 898.235 99.9842 897.766L100.728 894.874C100.849 894.405 100.567 893.927 100.098 893.806L90.0384 891.217C89.5693 891.097 89.0912 891.379 88.9704 891.848L88.2262 894.74C88.1055 895.209 88.3879 895.687 88.857 895.808L98.9162 898.397Z" fill="#171EF2"/>
<path d="M384.757 635.72C418.032 648.127 453.609 649.842 488.204 645.711C453.399 702 373.929 818.057 334.483 831.979C295.038 845.901 173.029 884.83 116.955 902.555C107.287 883.863 89.8845 841.067 97.6188 819.411C159.172 805.231 290.591 760.049 323.849 692.76C365.421 608.649 353.82 614.45 348.986 603.815C355.112 612.621 370.844 631.33 384.757 635.72Z" fill="#2B44DB"/>
<path d="M97.6188 819.41C89.8845 841.066 107.287 883.863 116.955 902.554C148.872 892.465 202.15 875.507 249.406 860.2C324.494 800.912 474.862 675.257 475.636 646.942C403.706 647.928 365.744 618.601 355.753 603.814C360.587 614.449 365.421 623.15 323.849 707.261C290.591 774.55 159.172 805.23 97.6188 819.41Z" fill="#4159EC"/>
<path d="M116.955 902.554C107.287 883.863 89.8845 841.066 97.6188 819.41C101.414 818.535 105.475 817.598 109.763 816.594C113.677 840.547 123.723 890.282 132.594 897.602C126.965 899.387 121.722 901.047 116.955 902.554Z" fill="#F9A83C"/>
<path d="M832.381 438.492C756.584 437.719 670.604 391.119 637.089 367.916C632.899 394.664 620.644 458.122 607.496 494.474C718.871 533.919 908.435 513.257 989.002 498.433L981.267 438.492C963.221 438.814 908.178 439.265 832.381 438.492Z" fill="#F9A937"/>
<path d="M981.266 438.492L989 498.433C983.632 499.421 977.78 500.435 971.5 501.455L963.672 438.714C971.283 438.644 977.209 438.565 981.266 438.492Z" fill="#4159EC"/>
<path d="M1030.89 440.709L981.926 443.591L988.239 492.516L1033.48 490.466C1047.93 489.812 1058.78 477.033 1057.09 462.669C1055.55 449.564 1044.06 439.933 1030.89 440.709Z" fill="#FBB4D0"/>
<path d="M607.496 494.474C620.644 458.122 632.899 394.664 637.089 367.916C641.244 370.793 646.206 374.029 651.855 377.494L625.109 500.045C619.052 498.338 613.172 496.484 607.496 494.474Z" fill="#F78227"/>
<path fill-rule="evenodd" clip-rule="evenodd" d="M650.63 405.307C650.878 404.631 651.627 404.282 652.304 404.53L712.971 426.709C713.648 426.957 713.996 427.706 713.749 428.383C713.501 429.06 712.752 429.408 712.075 429.16L651.408 406.981C650.731 406.733 650.383 405.984 650.63 405.307Z" fill="#F78227"/>
<path fill-rule="evenodd" clip-rule="evenodd" d="M626.494 466.628C626.741 465.951 627.49 465.603 628.167 465.85L688.835 488.03C689.511 488.277 689.859 489.026 689.612 489.703C689.365 490.38 688.615 490.728 687.939 490.48L627.271 468.301C626.594 468.053 626.246 467.304 626.494 466.628Z" fill="#F78227"/>
<path fill-rule="evenodd" clip-rule="evenodd" d="M696.947 456.19C697.194 455.513 697.943 455.165 698.62 455.413L759.288 477.592C759.965 477.84 760.313 478.589 760.065 479.266C759.818 479.942 759.069 480.29 758.392 480.043L697.724 457.863C697.047 457.616 696.699 456.867 696.947 456.19Z" fill="#F78227"/>
<path fill-rule="evenodd" clip-rule="evenodd" d="M726.955 434.01C727.202 433.334 727.951 432.986 728.628 433.233L789.296 455.413C789.972 455.66 790.32 456.409 790.073 457.086C789.826 457.763 789.076 458.111 788.4 457.863L727.732 435.684C727.055 435.436 726.707 434.687 726.955 434.01Z" fill="#F78227"/>
<path fill-rule="evenodd" clip-rule="evenodd" d="M747.83 488.807C748.077 488.131 748.826 487.782 749.503 488.03L810.171 510.209C810.847 510.457 811.195 511.206 810.948 511.883C810.701 512.56 809.951 512.908 809.275 512.66L748.607 490.481C747.93 490.233 747.582 489.484 747.83 488.807Z" fill="#F78227"/>
<path fill-rule="evenodd" clip-rule="evenodd" d="M818.283 445.753C818.53 445.076 819.279 444.728 819.956 444.975L880.624 467.155C881.3 467.402 881.649 468.151 881.401 468.828C881.154 469.505 880.405 469.853 879.728 469.605L819.06 447.426C818.383 447.178 818.035 446.429 818.283 445.753Z" fill="#F78227"/>
<path fill-rule="evenodd" clip-rule="evenodd" d="M818.283 479.674C818.53 478.998 819.279 478.65 819.956 478.897L880.624 501.077C881.3 501.324 881.649 502.073 881.401 502.75C881.154 503.427 880.405 503.775 879.728 503.527L819.06 481.348C818.383 481.1 818.035 480.351 818.283 479.674Z" fill="#F78227"/>
<path fill-rule="evenodd" clip-rule="evenodd" d="M905.693 466.628C905.94 465.951 906.69 465.603 907.366 465.85L968.034 488.03C968.711 488.277 969.059 489.026 968.811 489.703C968.564 490.38 967.815 490.728 967.138 490.48L906.47 468.301C905.794 468.053 905.446 467.304 905.693 466.628Z" fill="#F78227"/>
<path d="M937.167 833.932C948.13 840.089 958.874 841.388 963.698 841.606C987.028 842.658 987.61 847.745 988.913 852.131C994.651 871.429 974.799 874.38 963.985 875.988L963.698 876.031C934.229 880.416 852.75 878.004 822.271 872.522C820.342 868.663 823.089 858.928 822.271 857.174C815.079 841.738 823.549 821.214 829.288 812.224C834.55 803.98 842.005 812.162 843.979 817.706C847.662 828.055 854.284 828.276 858.669 826.915C863.756 825.336 872.045 818.437 875.553 814.856C883.973 806.26 891.482 808.546 894.629 810.251C903.049 814.812 926.496 827.938 937.167 833.932Z" fill="#01032D"/>
<path d="M937.167 833.932C948.131 840.089 958.875 841.388 963.698 841.606C984.343 842.537 987.175 846.628 988.457 850.596C988.609 852.642 988.914 857.13 988.914 858.709C988.914 860.463 985.625 865.287 979.924 865.287C943.307 866.383 860.512 866.295 822.272 857.174C815.08 841.738 823.55 821.214 829.288 812.224C834.551 803.98 842.006 812.162 843.979 817.706C847.663 828.055 854.285 828.276 858.67 826.915C863.757 825.336 872.046 818.437 875.553 814.856C883.973 806.26 891.483 808.546 894.63 810.251C903.049 814.812 926.496 827.938 937.167 833.932Z" fill="#030541"/>
<path d="M875.553 814.855C883.973 806.26 891.482 808.546 894.629 810.251V763.891H829.288V812.224C834.55 803.98 842.005 812.162 843.978 817.706C847.662 828.055 854.284 828.276 858.669 826.915C863.756 825.336 872.045 818.437 875.553 814.855Z" fill="#FBB4D0"/>
<path d="M925.382 836.5L930.148 841.812L896.501 872L887 870.936L925.382 836.5Z" fill="#FFFFF9"/>
<path d="M914.476 828.999L919.242 834.311L880.021 869.5L871 868.005L914.476 828.999Z" fill="#FFFFF9"/>
<path d="M908.441 827.135L903.675 821.823L847.055 872.202L851.821 877.514L908.441 827.135Z" fill="#FFFFF9"/>
<path d="M896.383 820.118L891.617 814.806L837.962 863.076L842.728 868.389L896.383 820.118Z" fill="#FFFFF9"/>
<path d="M822.271 872.522C820.342 868.663 823.089 858.928 822.271 857.174C873.77 864.921 979.39 875.768 989.883 857.174C990.982 871.975 973.777 874.532 963.985 875.988H963.985L963.698 876.031C934.229 880.416 852.75 878.004 822.271 872.522Z" fill="#01032D"/>
<path d="M928.834 835.247C932.781 837.551 936.654 835.944 938.482 834.648C941.713 836.354 944.904 837.649 947.91 838.631C946.01 840.207 941.376 843.623 938.043 844.676C935.851 845.368 933.658 846.868 927.738 844.237C915.24 838.682 887.305 825.029 875.552 814.855C879 811.336 882.295 809.641 885.2 808.983C889.585 812.179 916.117 827.824 928.834 835.247Z" fill="#161AA8"/>
<path d="M922.037 836.478C921.582 837.333 922.424 838.671 923.918 839.465C925.411 840.26 926.991 840.211 927.446 839.355C927.901 838.5 927.059 837.163 925.565 836.368C924.071 835.574 922.492 835.623 922.037 836.478Z" fill="#030541"/>
<path d="M911.869 830.883C911.414 831.739 912.256 833.076 913.75 833.871C915.243 834.665 916.823 834.616 917.278 833.761C917.733 832.905 916.891 831.568 915.397 830.773C913.903 829.979 912.324 830.028 911.869 830.883Z" fill="#030541"/>
<path d="M903.099 825.183C902.644 826.039 903.486 827.376 904.98 828.17C906.474 828.965 908.053 828.916 908.508 828.06C908.963 827.205 908.121 825.868 906.628 825.073C905.134 824.279 903.554 824.328 903.099 825.183Z" fill="#030541"/>
<path d="M894.326 819.921C893.871 820.776 894.713 822.113 896.207 822.908C897.7 823.702 899.28 823.653 899.735 822.798C900.19 821.942 899.348 820.605 897.854 819.81C896.361 819.016 894.781 819.065 894.326 819.921Z" fill="#030541"/>
<path d="M884.24 814.219C883.785 815.075 884.627 816.412 886.121 817.207C887.614 818.001 889.194 817.952 889.649 817.097C890.104 816.241 889.262 814.904 887.768 814.109C886.275 813.315 884.695 813.364 884.24 814.219Z" fill="#030541"/>
<path d="M932.375 830.614C932.645 830.212 932.537 829.667 932.135 829.397L929.655 827.734C929.253 827.464 928.708 827.572 928.438 827.974L922.653 836.601C922.383 837.003 922.491 837.548 922.893 837.818L925.373 839.481C925.775 839.751 926.32 839.643 926.59 839.241L932.375 830.614Z" fill="#171EF2"/>
<path d="M922.207 825.021C922.477 824.619 922.369 824.074 921.967 823.804L919.487 822.141C919.085 821.872 918.54 821.979 918.27 822.381L912.485 831.008C912.215 831.411 912.323 831.955 912.725 832.225L915.205 833.888C915.607 834.158 916.152 834.051 916.422 833.648L922.207 825.021Z" fill="#171EF2"/>
<path d="M913.437 819.319C913.707 818.917 913.6 818.372 913.197 818.102L910.717 816.439C910.315 816.17 909.77 816.277 909.5 816.679L903.715 825.306C903.446 825.708 903.553 826.253 903.955 826.523L906.435 828.186C906.838 828.456 907.382 828.348 907.652 827.946L913.437 819.319Z" fill="#171EF2"/>
<path d="M904.664 814.058C904.934 813.655 904.826 813.11 904.424 812.841L901.944 811.178C901.542 810.908 900.997 811.015 900.727 811.418L894.942 820.044C894.672 820.447 894.78 820.992 895.182 821.261L897.662 822.924C898.064 823.194 898.609 823.087 898.879 822.684L904.664 814.058Z" fill="#171EF2"/>
<path d="M894.578 808.356C894.848 807.954 894.74 807.409 894.338 807.139L891.858 805.476C891.456 805.207 890.911 805.314 890.641 805.716L884.856 814.343C884.586 814.746 884.694 815.29 885.096 815.56L887.576 817.223C887.978 817.493 888.523 817.386 888.793 816.983L894.578 808.356Z" fill="#171EF2"/>
<path d="M348.818 604.027C343.984 593.392 336.25 550.853 348.818 511.215C363.848 463.815 511.665 403.518 801.277 489.462C847.559 503.197 889.66 577.924 915.232 793.457H818.686C818.81 740.629 804.987 633.633 722 581.791C714.311 576.988 704.211 570.963 675.594 581.791C650.256 591.378 572.047 635.89 488.036 645.923C453.442 650.054 417.864 648.339 384.589 635.931C365.262 630.236 352.688 612.289 348.818 604.027Z" fill="#4159EC"/>
<path d="M348.818 604.027C343.984 593.392 336.25 550.853 348.818 511.215C373.507 519.524 421.582 546.857 416.363 589.716C412.312 622.985 472.451 640.692 583.362 567.536C638.158 531.392 716.7 485.602 759.494 567.536C781.299 609.286 877.47 657.167 818.078 773.023C814.665 716.513 795.346 627.611 722 581.791C714.311 576.988 704.211 570.963 675.594 581.791C650.256 591.378 572.047 635.89 488.036 645.923C453.442 650.054 417.864 648.339 384.589 635.931C365.262 630.236 352.688 612.289 348.818 604.027Z" fill="#2B44DB"/>
<path d="M915.233 793.457H818.686C818.7 787.5 818.537 780.854 818.117 773.676H912.76C913.609 780.132 914.434 786.725 915.233 793.457Z" fill="#F9A83C"/>
<path d="M308.383 479.098L489.173 367.917L583.919 331.179C590.88 379.905 490.14 481.032 438.9 525.504C345.314 544.067 312.895 502.301 308.383 479.098Z" fill="#F9A937"/>
<path d="M308.383 479.098C312.895 502.301 345.314 544.067 438.9 525.504C441.842 522.951 444.946 520.211 448.184 517.305C353.089 536.093 321.322 495.996 317.325 473.599L308.383 479.098Z" fill="#F78227"/>
<path fill-rule="evenodd" clip-rule="evenodd" d="M365.98 466.463C366.318 467.099 366.077 467.889 365.441 468.227L334.781 484.536C334.145 484.874 333.355 484.633 333.016 483.997C332.678 483.36 332.919 482.57 333.556 482.232L364.215 465.924C364.852 465.585 365.642 465.827 365.98 466.463Z" fill="#F78227"/>
<path fill-rule="evenodd" clip-rule="evenodd" d="M384.246 488.642C384.584 489.279 384.343 490.069 383.707 490.407L353.047 506.715C352.41 507.054 351.62 506.812 351.282 506.176C350.944 505.54 351.185 504.75 351.821 504.412L382.481 488.103C383.117 487.765 383.907 488.006 384.246 488.642Z" fill="#F78227"/>
<path fill-rule="evenodd" clip-rule="evenodd" d="M402.511 510.821C402.85 511.457 402.609 512.247 401.973 512.586L372.618 528.242C371.982 528.581 371.192 528.341 370.853 527.705C370.514 527.069 370.754 526.279 371.39 525.94L400.745 510.284C401.381 509.945 402.172 510.185 402.511 510.821Z" fill="#F78227"/>
<path fill-rule="evenodd" clip-rule="evenodd" d="M469.05 474.291C469.389 474.927 469.147 475.717 468.511 476.055L437.851 492.364C437.215 492.702 436.425 492.461 436.087 491.825C435.748 491.189 435.99 490.399 436.626 490.06L467.286 473.752C467.922 473.413 468.712 473.655 469.05 474.291Z" fill="#F78227"/>
<path fill-rule="evenodd" clip-rule="evenodd" d="M414.253 444.284C414.592 444.92 414.35 445.71 413.714 446.049L383.054 462.357C382.418 462.695 381.628 462.454 381.29 461.818C380.951 461.182 381.193 460.392 381.829 460.053L412.489 443.745C413.125 443.406 413.915 443.648 414.253 444.284Z" fill="#F78227"/>
<path fill-rule="evenodd" clip-rule="evenodd" d="M472.964 442.979C473.303 443.616 473.061 444.406 472.425 444.744L441.765 461.052C441.129 461.391 440.339 461.149 440.001 460.513C439.662 459.877 439.904 459.087 440.54 458.749L471.2 442.44C471.836 442.102 472.626 442.343 472.964 442.979Z" fill="#F78227"/>
<path fill-rule="evenodd" clip-rule="evenodd" d="M527.761 422.104C528.1 422.741 527.858 423.531 527.222 423.869L496.562 440.177C495.926 440.516 495.136 440.274 494.798 439.638C494.459 439.002 494.701 438.212 495.337 437.874L525.997 421.565C526.633 421.227 527.423 421.468 527.761 422.104Z" fill="#F78227"/>
<path fill-rule="evenodd" clip-rule="evenodd" d="M516.019 372.526C516.357 373.162 516.116 373.952 515.48 374.291L484.82 390.599C484.184 390.938 483.394 390.696 483.055 390.06C482.717 389.424 482.958 388.634 483.595 388.296L514.255 371.987C514.891 371.649 515.681 371.89 516.019 372.526Z" fill="#F78227"/>
<path fill-rule="evenodd" clip-rule="evenodd" d="M568.207 362.089C568.545 362.725 568.304 363.515 567.667 363.853L537.007 380.162C536.371 380.5 535.581 380.259 535.243 379.623C534.905 378.986 535.146 378.196 535.782 377.858L566.442 361.55C567.078 361.211 567.868 361.453 568.207 362.089Z" fill="#F78227"/>
<path d="M410.863 241.266C458.042 242.813 545.892 301.852 583.919 331.178L489.173 367.917C475.638 359.215 438.706 336.592 399.261 315.71C359.816 294.827 251.342 307.009 202.035 315.71L196.234 253.835C248.119 249.001 363.683 239.72 410.863 241.266Z" fill="#F9A937"/>
<path fill-rule="evenodd" clip-rule="evenodd" d="M280.025 256.954C280.063 257.673 279.511 258.287 278.791 258.325L229.213 260.935C228.494 260.973 227.88 260.42 227.842 259.7C227.804 258.981 228.356 258.367 229.076 258.329L278.654 255.72C279.373 255.682 279.987 256.234 280.025 256.954Z" fill="#F78227"/>
<path fill-rule="evenodd" clip-rule="evenodd" d="M275.459 294.79C275.497 295.509 274.944 296.123 274.225 296.161L224.647 298.771C223.927 298.809 223.313 298.256 223.275 297.536C223.237 296.817 223.79 296.203 224.51 296.165L274.087 293.556C274.807 293.518 275.421 294.07 275.459 294.79Z" fill="#F78227"/>
<path fill-rule="evenodd" clip-rule="evenodd" d="M343.299 283.048C343.337 283.767 342.784 284.381 342.064 284.419L292.487 287.028C291.767 287.066 291.153 286.514 291.115 285.794C291.077 285.075 291.63 284.461 292.349 284.423L341.927 281.813C342.647 281.775 343.261 282.328 343.299 283.048Z" fill="#F78227"/>
<path fill-rule="evenodd" clip-rule="evenodd" d="M383.744 255.649C383.782 256.369 383.229 256.983 382.51 257.021L332.932 259.63C332.212 259.668 331.598 259.115 331.56 258.396C331.523 257.676 332.075 257.062 332.795 257.024L382.373 254.415C383.092 254.377 383.706 254.93 383.744 255.649Z" fill="#F78227"/>
<path fill-rule="evenodd" clip-rule="evenodd" d="M457.495 276.921C457.242 277.596 456.491 277.938 455.816 277.685L400.782 257.068C400.108 256.816 399.765 256.064 400.018 255.389C400.271 254.714 401.023 254.372 401.698 254.625L456.731 275.242C457.406 275.495 457.748 276.246 457.495 276.921Z" fill="#F78227"/>
<path fill-rule="evenodd" clip-rule="evenodd" d="M419.124 302.677C418.871 303.352 418.119 303.694 417.445 303.441L362.411 282.824C361.736 282.571 361.394 281.82 361.647 281.145C361.9 280.47 362.652 280.128 363.327 280.381L418.36 300.998C419.035 301.25 419.377 302.002 419.124 302.677Z" fill="#F78227"/>
<path fill-rule="evenodd" clip-rule="evenodd" d="M492.187 318.333C491.934 319.008 491.182 319.35 490.507 319.097L435.474 298.48C434.799 298.228 434.457 297.476 434.71 296.801C434.962 296.126 435.714 295.784 436.389 296.037L491.423 316.654C492.097 316.907 492.439 317.659 492.187 318.333Z" fill="#F78227"/>
<path fill-rule="evenodd" clip-rule="evenodd" d="M546.987 317.029C546.735 317.703 545.983 318.045 545.308 317.793L490.274 297.176C489.6 296.923 489.258 296.171 489.51 295.496C489.763 294.822 490.515 294.479 491.19 294.732L546.223 315.349C546.898 315.602 547.24 316.354 546.987 317.029Z" fill="#F78227"/>
<path d="M196.234 253.835L202.035 315.71C207.561 314.735 213.83 313.716 220.661 312.705L216.747 251.989C209.185 252.649 202.278 253.272 196.234 253.835Z" fill="#4159EC"/>
<path d="M159.58 261.651L196.716 258.979L201.364 308.557L164.324 312.77C150.1 314.387 137.301 304.06 135.876 289.815C134.436 275.427 145.157 262.689 159.58 261.651Z" fill="#FBB4D0"/>
<path d="M489.173 367.916L583.919 331.178C579.905 328.082 575.335 324.655 570.316 320.999L473.77 358.294C480.301 362.292 485.568 365.598 489.173 367.916Z" fill="#F78227"/>
<path d="M1156.46 343.18C1173.18 385 1152.82 432.448 1111 449.158C1069.18 465.869 1021.73 445.514 1005.02 403.695C988.312 361.875 1008.67 314.427 1050.49 297.716C1092.31 281.006 1139.75 301.361 1156.46 343.18Z" fill="#F6DFC2"/>
<path d="M1140.72 349.473C1154.22 383.264 1137.77 421.602 1103.98 435.104C1070.19 448.606 1031.85 432.159 1018.35 398.369C1004.85 364.579 1021.29 326.241 1055.08 312.739C1088.88 299.236 1127.21 315.683 1140.72 349.473Z" fill="#FCB04D"/>
<path fill-rule="evenodd" clip-rule="evenodd" d="M1097.2 418.142C1121.63 408.383 1133.51 380.674 1123.75 356.251C1114 331.828 1086.29 319.941 1061.86 329.7C1037.44 339.459 1025.55 367.169 1035.31 391.592C1045.07 416.014 1072.78 427.901 1097.2 418.142ZM1099.62 424.2C1127.39 413.104 1140.91 381.599 1129.81 353.831C1118.72 326.062 1087.21 312.547 1059.44 323.643C1031.67 334.738 1018.16 366.244 1029.25 394.012C1040.35 421.78 1071.86 435.296 1099.62 424.2Z" fill="#FC551F"/>
<path d="M1100.08 343.534C1095.29 341.881 1088.7 340.346 1082.11 340.259L1081.76 334.322L1073.94 334.779L1074.3 340.936C1070.18 341.776 1065.93 343.546 1062.61 346.972C1058.94 350.763 1057.06 355.889 1057.02 362C1057 365.019 1057.45 370.445 1061.58 374.833C1065.86 379.384 1072.57 381.255 1081.5 380.546C1082.55 380.463 1083.59 380.468 1084.49 380.606C1085.4 380.746 1085.87 380.978 1086.08 381.126L1086.09 381.128C1086.18 381.198 1086.33 381.305 1086.47 381.786C1086.65 382.401 1086.84 383.783 1086.33 386.356C1085.8 389.033 1085.22 391.053 1083.95 392.464C1083.03 393.496 1080.84 395.179 1074.73 394.786L1074.66 394.782L1060.3 394.168L1059.74 407.203L1073.97 407.811C1074.9 407.869 1075.8 407.895 1076.68 407.889L1076.94 414.299L1084.76 413.979L1084.47 406.833C1088.26 405.731 1091.31 403.799 1093.66 401.179C1097.56 396.84 1098.61 391.532 1099.13 388.873C1100.69 380.931 1099.06 374.335 1093.63 370.486C1089.08 367.253 1083.48 367.301 1080.47 367.54C1073.6 368.085 1071.58 366.422 1071.08 365.893C1070.43 365.201 1070.06 364 1070.07 362.088C1070.09 358.69 1071.06 357.004 1071.98 356.053C1073.01 354.988 1074.74 354.087 1077.43 353.623C1082.99 352.663 1090.36 353.98 1095.83 355.867L1100.08 343.534Z" fill="#F7551F"/>
<path d="M1271.28 75.7212C1287.99 117.541 1267.63 164.989 1225.81 181.699C1183.99 198.41 1136.55 178.055 1119.84 136.236C1103.12 94.4161 1123.48 46.968 1165.3 30.2574C1207.12 13.5468 1254.57 33.9016 1271.28 75.7212Z" fill="#F6DFC2"/>
<path d="M1255.53 82.0144C1269.03 115.805 1252.58 154.143 1218.79 167.645C1185 181.147 1146.66 164.7 1133.16 130.91C1119.66 97.1199 1136.11 58.7819 1169.9 45.2797C1203.69 31.7775 1242.03 48.2242 1255.53 82.0144Z" fill="#FCB04D"/>
<path fill-rule="evenodd" clip-rule="evenodd" d="M1212.02 150.683C1236.44 140.924 1248.33 113.215 1238.57 88.7921C1228.81 64.3695 1201.1 52.4823 1176.68 62.2413C1152.25 72.0003 1140.37 99.71 1150.13 124.133C1159.88 148.555 1187.59 160.442 1212.02 150.683ZM1214.44 156.741C1242.21 145.645 1255.72 114.14 1244.62 86.3716C1233.53 58.6034 1202.02 45.0878 1174.26 56.1836C1146.49 67.2795 1132.97 98.785 1144.07 126.553C1155.16 154.321 1186.67 167.837 1214.44 156.741Z" fill="#FC551F"/>
<path d="M1214.89 76.0748C1210.1 74.4218 1203.51 72.8868 1196.92 72.8001L1196.57 66.8635L1188.76 67.3204L1189.12 73.4769C1184.99 74.3171 1180.75 76.0872 1177.42 79.513C1173.75 83.3037 1171.88 88.4303 1171.84 94.5413C1171.82 97.5598 1172.26 102.986 1176.39 107.374C1180.67 111.925 1187.38 113.796 1196.31 113.087C1197.37 113.004 1198.4 113.009 1199.3 113.147C1200.21 113.287 1200.69 113.52 1200.89 113.667L1200.9 113.669C1201 113.739 1201.15 113.846 1201.29 114.327C1201.46 114.942 1201.65 116.324 1201.14 118.897C1200.62 121.574 1200.03 123.594 1198.77 125.005C1197.84 126.037 1195.65 127.72 1189.55 127.327L1189.48 127.323L1175.11 126.709L1174.55 139.744L1188.78 140.352C1189.71 140.41 1190.61 140.436 1191.49 140.43L1191.75 146.84L1199.57 146.52L1199.28 139.374C1203.07 138.272 1206.12 136.34 1208.47 133.72C1212.37 129.381 1213.42 124.073 1213.95 121.414C1215.51 113.472 1213.87 106.876 1208.45 103.027C1203.89 99.7936 1198.29 99.8424 1195.28 100.081C1188.42 100.626 1186.39 98.963 1185.89 98.4344C1185.24 97.7418 1184.87 96.5414 1184.88 94.6293C1184.91 91.2309 1185.87 89.5445 1186.79 88.5935C1187.82 87.5285 1189.55 86.6279 1192.24 86.1637C1197.8 85.2038 1205.17 86.5213 1210.64 88.4083L1214.89 76.0748Z" fill="#F7551F"/>
<path d="M1461.76 292.297C1478.47 334.117 1458.12 381.565 1416.3 398.276C1374.48 414.986 1327.03 394.631 1310.32 352.812C1293.61 310.992 1313.96 263.544 1355.78 246.834C1397.6 230.123 1445.05 250.478 1461.76 292.297Z" fill="#F6DFC2"/>
<path d="M1446.01 298.591C1459.51 332.381 1443.07 370.719 1409.28 384.221C1375.49 397.723 1337.15 381.277 1323.65 347.486C1310.14 313.696 1326.59 275.358 1360.38 261.856C1394.17 248.354 1432.51 264.8 1446.01 298.591Z" fill="#FCB04D"/>
<path fill-rule="evenodd" clip-rule="evenodd" d="M1402.5 367.26C1426.92 357.501 1438.81 329.791 1429.05 305.368C1419.29 280.946 1391.58 269.058 1367.16 278.817C1342.74 288.576 1330.85 316.286 1340.61 340.709C1350.37 365.131 1378.08 377.019 1402.5 367.26ZM1404.92 373.317C1432.69 362.221 1446.21 330.716 1435.11 302.948C1424.01 275.18 1392.51 261.664 1364.74 272.76C1336.97 283.856 1323.46 315.361 1334.55 343.129C1345.65 370.898 1377.15 384.413 1404.92 373.317Z" fill="#FC551F"/>
<path d="M1405.38 292.651C1400.59 290.998 1394 289.463 1387.4 289.376L1387.05 283.44L1379.24 283.897L1379.6 290.053C1375.48 290.893 1371.23 292.663 1367.91 296.089C1364.23 299.88 1362.36 305.006 1362.32 311.117C1362.3 314.136 1362.75 319.562 1366.88 323.95C1371.16 328.502 1377.87 330.372 1386.8 329.663C1387.85 329.58 1388.89 329.585 1389.78 329.723C1390.69 329.863 1391.17 330.096 1391.38 330.243L1391.38 330.246C1391.48 330.315 1391.63 330.422 1391.77 330.903C1391.95 331.518 1392.13 332.9 1391.63 335.473C1391.1 338.151 1390.52 340.17 1389.25 341.582C1388.32 342.613 1386.14 344.296 1380.03 343.903L1379.96 343.899L1365.6 343.285L1365.04 356.32L1379.27 356.928C1380.2 356.986 1381.1 357.012 1381.97 357.006L1382.24 363.416L1390.06 363.096L1389.77 355.95C1393.56 354.849 1396.61 352.916 1398.96 350.296C1402.85 345.958 1403.91 340.649 1404.43 337.99C1405.99 330.048 1404.35 323.452 1398.93 319.603C1394.37 316.37 1388.77 316.419 1385.77 316.657C1378.9 317.202 1376.88 315.539 1376.38 315.011C1375.73 314.318 1375.35 313.118 1375.37 311.205C1375.39 307.807 1376.36 306.121 1377.28 305.17C1378.31 304.105 1380.03 303.204 1382.72 302.74C1388.28 301.78 1395.65 303.097 1401.12 304.984L1405.38 292.651Z" fill="#F7551F"/>
</g>
<defs>
<clipPath id="clip0">
<rect width="1500" height="1200" fill="white"/>
</clipPath>
</defs>
</svg>
