
<svg width="1500" height="1200" viewBox="0 0 1500 1200" fill="none" xmlns="http://www.w3.org/2000/svg">
<rect width="1500" height="1200" fill="white"/>
<path d="M609.424 507.483C609.424 507.483 642.734 537.711 647.548 540.129C650.934 541.828 649.562 537.081 648.448 534.122C648.201 533.447 648.943 532.851 649.54 533.245L658.505 539.128C659.945 540.073 661.644 538.352 660.688 536.923L655.974 529.926C655.761 529.6 656.121 529.206 656.458 529.397L668.518 536.147C670.756 537.407 673.051 534.572 671.352 532.637L665.795 526.281C665.626 526.09 665.84 525.797 666.076 525.899L673.647 529.262C676.269 530.421 678.642 527.237 676.786 525.055L661.498 507.179C660.935 506.527 661.633 505.56 662.432 505.886L671.274 509.497C674.626 510.869 677.618 506.887 675.357 504.052L663.939 489.664L633.351 460.156L609.424 507.483Z" fill="#FED4CC"/>
<path d="M718.933 88.3401C684.92 88.3171 657.309 116.376 657.2 151.074L654.797 917.433C654.687 952.941 682.911 981.771 717.72 981.701L1022.29 981.096C1056.31 981.029 1083.86 952.878 1083.86 918.169L1083.95 153.72C1083.96 117.744 1055.38 88.5672 1020.11 88.5434L718.933 88.3401Z" fill="#523AF2"/>
<path d="M1064.99 158.856L1064.21 905.037C1064.18 931.251 1043.17 952.461 1017.32 952.375L715.17 951.373C691.159 951.293 671.753 931.494 671.826 907.149L674.08 155.865C674.147 133.362 692.179 115.169 714.375 115.213L790.776 115.364C799.685 115.382 806.929 122.644 807.049 131.676L807.165 140.339C807.286 149.469 814.683 156.771 823.686 156.649L929.663 155.215C938.666 155.093 945.868 147.593 945.747 138.464L945.668 132.456C945.544 123.227 952.899 115.685 962.001 115.703L1022.67 115.823C1046.07 115.869 1065.01 135.13 1064.99 158.856Z" fill="white"/>
<path d="M825.454 609.543C825.454 603.951 829.987 599.418 835.579 599.418H1018.5C1024.09 599.418 1028.62 603.951 1028.62 609.543V675.915C1028.62 681.507 1024.09 686.04 1018.5 686.04H835.579C829.987 686.04 825.454 681.507 825.454 675.915V609.543Z" fill="#9DA6FC"/>
<path d="M862.578 642.73C862.578 634.342 869.377 627.543 877.765 627.543H975.636C984.023 627.543 990.823 634.342 990.823 642.73C990.823 651.117 984.023 657.917 975.636 657.917H877.765C869.377 657.917 862.578 651.117 862.578 642.73Z" fill="white"/>
<path d="M772.581 635.979C772.581 656.171 756.212 672.54 736.02 672.54C715.828 672.54 699.459 656.171 699.459 635.979C699.459 615.787 715.828 599.418 736.02 599.418C756.212 599.418 772.581 615.787 772.581 635.979Z" fill="#FCA842"/>
<path d="M764.706 635.979C764.706 651.822 751.863 664.666 736.02 664.666C761.525 664.666 769.964 613.467 741.421 607.801C739.672 607.467 737.866 607.293 736.02 607.293C737.95 607.293 739.749 607.469 741.421 607.801C754.682 610.327 764.706 621.982 764.706 635.979Z" fill="#FDB157"/>
<path d="M703.959 635.979C703.959 653.686 718.313 668.04 736.02 668.04C741.064 668.04 745.836 666.876 750.082 664.8C702.834 659.603 720.833 607.736 736.02 603.918C718.313 603.918 703.959 618.272 703.959 635.979Z" fill="#F88124"/>
<path d="M734.895 612.918H738.832V657.916H734.895V612.918Z" fill="#FEFCF0"/>
<path d="M735.8 636.905C732.182 635.865 729.546 634.591 727.89 633.082C726.25 631.559 725.43 629.684 725.43 627.457C725.43 624.938 726.433 622.858 728.44 621.217C730.461 619.562 733.083 618.734 736.306 618.734C738.503 618.734 740.458 619.159 742.172 620.009C743.901 620.858 745.234 622.03 746.171 623.524C747.123 625.018 747.599 626.652 747.599 628.424H743.359C743.359 626.49 742.743 624.974 741.513 623.876C740.283 622.763 738.547 622.206 736.306 622.206C734.226 622.206 732.6 622.667 731.428 623.59C730.271 624.498 729.692 625.765 729.692 627.391C729.692 628.695 730.241 629.801 731.34 630.709C732.453 631.603 734.336 632.423 736.987 633.17C739.653 633.917 741.733 634.744 743.227 635.653C744.736 636.546 745.849 637.594 746.567 638.795C747.299 639.996 747.665 641.409 747.665 643.035C747.665 645.628 746.654 647.708 744.633 649.275C742.612 650.828 739.909 651.604 736.525 651.604C734.328 651.604 732.278 651.187 730.373 650.352C728.469 649.502 726.997 648.345 725.957 646.88C724.932 645.415 724.419 643.753 724.419 641.893H728.66C728.66 643.826 729.37 645.357 730.791 646.485C732.226 647.598 734.138 648.155 736.525 648.155C738.752 648.155 740.458 647.701 741.645 646.792C742.831 645.884 743.425 644.646 743.425 643.079C743.425 641.512 742.875 640.303 741.777 639.454C740.678 638.59 738.686 637.74 735.8 636.905Z" fill="#FEFCF0"/>
<path d="M699.459 250.682C699.459 230.179 716.08 213.559 736.583 213.559H1004.32C1024.82 213.559 1041.45 230.179 1041.45 250.682V481.298C1041.45 501.801 1024.82 518.422 1004.32 518.422H736.583C716.08 518.422 699.459 501.801 699.459 481.298V250.682Z" fill="#9DA6FC"/>
<path d="M934.574 301.302C934.574 334.231 907.88 360.925 874.952 360.925C842.023 360.925 815.329 334.231 815.329 301.302C815.329 268.374 842.023 241.68 874.952 241.68C907.88 241.68 934.574 268.374 934.574 301.302Z" fill="#67CADC"/>
<path d="M930.074 300.177C930.074 333.106 903.38 359.8 870.452 359.8C837.523 359.8 810.829 333.106 810.829 300.177C810.829 267.249 837.523 240.555 870.452 240.555C903.38 240.555 930.074 267.249 930.074 300.177Z" fill="white"/>
<path d="M826.632 340.61C827.23 337.399 828.788 333.624 832.243 331.249C837.617 327.554 850.997 321.871 857.016 319.492H884.728C894.105 321.592 913.027 328.646 913.699 340.066C913.722 340.451 913.722 340.835 913.701 341.219C902.837 352.664 887.478 359.801 870.452 359.801C853.126 359.801 837.526 352.41 826.632 340.61Z" fill="#FD8787"/>
<path d="M913.577 341.348C911.901 340.426 910.082 339.458 908.183 338.449C895.321 331.608 878.85 322.848 878.85 313.193C878.85 300.764 872.551 280.862 867.513 275.823C866.774 275.864 865.927 275.926 864.998 275.993C856.419 276.611 840.814 277.737 838.541 268.266C837.281 263.227 844 256.929 844 260.708C859.787 248.48 881.929 252.391 891.026 255.875C918.189 267.222 923.625 309.091 921.586 330.856C919.306 334.649 916.616 338.166 913.577 341.348Z" fill="#F33646"/>
<path d="M828.897 342.934C827.623 341.696 826.405 340.402 825.246 339.055C822.792 321.681 833.327 267.114 864.449 254.113L887.963 274.062C886.727 275.297 884.319 277.002 881.424 279.051C872.512 285.359 858.99 294.93 860.89 304.117C862.249 310.684 859.335 315.569 854.14 321.554C847.039 329.733 836.072 338.244 828.897 342.934Z" fill="#F33646"/>
<path d="M873.559 282.466C873.725 279.551 872.699 275.536 867.513 275.824C866.775 275.865 865.928 275.926 864.999 275.993C859.589 276.383 851.387 276.975 845.494 274.984C845.556 280.586 845.764 292.711 846.1 296.398C846.519 301.007 847.359 312.354 857.856 310.254C866.254 308.575 876.175 302.409 880.086 299.536C878.622 298.419 877.59 296.893 877.59 295.139C877.59 293.561 878.98 293.002 880.541 292.375C882.303 291.666 884.283 290.87 884.728 288.42C885.568 283.801 885.568 279.183 880.53 279.183C877.856 279.183 876.72 281.192 875.865 282.702L875.865 282.702C875.416 283.496 875.045 284.151 874.57 284.305C873.769 284.565 873.511 283.307 873.559 282.466Z" fill="#FDB39B"/>
<path d="M873.559 282.466C873.725 279.551 872.699 275.536 867.513 275.824C866.775 275.865 865.928 275.926 864.999 275.993C859.589 276.383 851.387 276.975 845.494 274.984C845.504 275.87 845.517 276.918 845.534 278.07C849.502 279.13 859.451 280.837 867.513 279.183C867.513 282.466 869.054 287.24 874.57 286.678C880.086 286.115 881.526 278.727 884.989 282.702C884.587 280.625 883.344 279.183 880.53 279.183C877.856 279.183 876.72 281.192 875.865 282.702L875.865 282.702C875.416 283.496 875.045 284.151 874.57 284.305C873.769 284.565 873.511 283.307 873.559 282.466Z" fill="#FFA385"/>
<path d="M882.878 301.006C881.881 300.668 880.914 300.167 880.085 299.535C876.174 302.408 866.253 308.574 857.855 310.253L858.695 316.972L872.702 322.676L882.628 316.132L882.878 301.006Z" fill="#FDB39B"/>
<path d="M880.085 299.535C876.174 302.408 866.253 308.574 857.855 310.253L858.275 313.613C863.868 313.999 873.827 310.548 880.085 299.535Z" fill="#FFA385"/>
<path d="M869.889 321.55L873.264 328.863C873.496 329.28 874.57 329.359 874.977 329.109L886.856 321.829C887.058 321.705 887.097 321.427 886.937 321.251L882.628 316.551L869.889 321.55Z" fill="#FF5A5A"/>
<path d="M858.499 317.57L854.601 321.113C854.336 321.354 854.371 321.781 854.672 321.976L866.211 329.42C866.663 329.712 867.454 329.369 867.639 328.864L869.889 321.552L858.939 317.492C858.79 317.431 858.618 317.461 858.499 317.57Z" fill="#FF5A5A"/>
<path d="M869.889 321.554L873.805 327.965C874.037 328.383 874.57 328.523 874.977 328.273L886.856 320.993C887.058 320.869 887.097 320.591 886.937 320.415L882.628 315.715L869.889 321.554Z" fill="#FBFBF8"/>
<path d="M858.499 316.73L854.601 320.273C854.336 320.515 854.371 320.942 854.672 321.136L866.211 328.58C866.663 328.872 867.268 328.67 867.454 328.165L869.889 321.552L858.939 316.652C858.79 316.591 858.618 316.622 858.499 316.73Z" fill="#FBFBF8"/>
<path d="M885.568 296.4C885.568 298.951 883.5 301.019 880.949 301.019C878.398 301.019 876.331 298.951 876.331 296.4C876.331 293.849 878.398 291.781 880.949 291.781C883.5 291.781 885.568 293.849 885.568 296.4Z" fill="#FBFBF8"/>
<path d="M883.049 295.14C883.049 296.995 881.545 298.499 879.69 298.499C877.834 298.499 876.331 296.995 876.331 295.14C876.331 293.285 877.834 291.781 879.69 291.781C881.545 291.781 883.049 293.285 883.049 295.14Z" fill="#606FFE"/>
<path d="M743.332 396.363C743.332 392.946 746.102 390.176 749.519 390.176H1010.51C1013.93 390.176 1016.7 392.946 1016.7 396.363C1016.7 399.78 1013.93 402.55 1010.51 402.55H749.519C746.102 402.55 743.332 399.78 743.332 396.363Z" fill="white"/>
<path d="M777.081 434.613C777.081 431.196 779.851 428.426 783.268 428.426H976.761C980.178 428.426 982.948 431.196 982.948 434.613C982.948 438.03 980.178 440.8 976.761 440.8H783.268C779.851 440.8 777.081 438.03 777.081 434.613Z" fill="white"/>
<path d="M815.329 481.859C815.329 473.471 822.129 466.672 830.516 466.672H928.387C936.775 466.672 943.574 473.471 943.574 481.859C943.574 490.246 936.775 497.046 928.387 497.046H830.516C822.129 497.046 815.329 490.246 815.329 481.859Z" fill="white"/>
<path d="M1121.88 803.599V756.351C1121.88 751.851 1123.57 750.164 1127.5 750.164H1391.31C1396.71 750.164 1397.68 753.539 1397.49 755.226V800.787C1397.49 805.849 1397.49 807.537 1394.12 807.537H1129.19C1123.34 807.537 1121.88 806.974 1121.88 803.599Z" fill="#FCAF23"/>
<path d="M1129.19 807.537C1123.34 807.537 1121.88 806.974 1121.88 803.599V800.787V756.351C1121.88 751.851 1123.57 750.164 1127.5 750.164H1266.44V807.537H1129.19Z" fill="#FB8B1D"/>
<path d="M1266.44 807.537V750.164H1332.81V807.537H1266.44Z" fill="#FCBD31"/>
<path d="M1344.06 807.537V750.164H1362.06V807.537H1344.06Z" fill="#FCBD31"/>
<path d="M1129.19 807.535C1123.34 807.535 1121.88 806.972 1121.88 803.598V800.785H1397.49C1397.49 805.847 1397.49 807.535 1394.12 807.535H1362.06H1344.06H1332.81H1266.44H1129.19Z" fill="#F8861D"/>
<path d="M1126.38 860.408V813.16C1126.38 808.66 1128.07 806.973 1132 806.973H1395.81C1401.21 806.973 1402.18 810.348 1401.99 812.035V857.596C1401.99 862.658 1401.99 864.345 1398.62 864.345H1133.69C1127.84 864.345 1126.38 863.783 1126.38 860.408Z" fill="#FCAF23"/>
<path d="M1133.69 864.345C1127.84 864.345 1126.38 863.783 1126.38 860.408V857.596V813.16C1126.38 808.66 1128.07 806.973 1132 806.973H1270.94V864.345H1133.69Z" fill="#FB8B1D"/>
<path d="M1270.94 864.345V806.973H1337.31V864.345H1270.94Z" fill="#FCBD31"/>
<path d="M1348.56 864.345V806.973H1366.56V864.345H1348.56Z" fill="#FCBD31"/>
<path d="M1133.69 864.343C1127.84 864.343 1126.38 863.781 1126.38 860.406V857.594H1401.99C1401.99 862.656 1401.99 864.343 1398.62 864.343H1366.56H1348.56H1337.31H1270.94H1133.69Z" fill="#F8861D"/>
<path d="M1104.44 920.069V870.8C1104.44 866.107 1106.2 864.348 1110.31 864.348H1385.4C1391.03 864.348 1392.04 867.867 1391.85 869.627V917.136C1391.85 922.415 1391.85 924.175 1388.33 924.175H1112.07C1105.97 924.175 1104.44 923.588 1104.44 920.069Z" fill="#FCAF23"/>
<path d="M1112.07 924.175C1105.97 924.175 1104.44 923.588 1104.44 920.069V917.136V870.8C1104.44 866.107 1106.2 864.348 1110.31 864.348H1255.18V924.175H1112.07Z" fill="#FB8B1D"/>
<path d="M1255.18 924.175V864.348H1324.4V924.175H1255.18Z" fill="#FCBD31"/>
<path d="M1336.13 924.175V864.348H1354.89V924.175H1336.13Z" fill="#FCBD31"/>
<path d="M1112.07 924.175C1105.97 924.175 1104.44 923.589 1104.44 920.069V917.137H1391.85C1391.85 922.416 1391.85 924.175 1388.33 924.175H1354.9H1336.13H1324.4H1255.18H1112.07Z" fill="#F8861D"/>
<path d="M1125.82 979.69V930.421C1125.82 925.728 1127.58 923.969 1131.68 923.969H1406.77C1412.4 923.969 1413.42 927.488 1413.22 929.248V976.757C1413.22 982.036 1413.22 983.796 1409.7 983.796H1133.44C1127.34 983.796 1125.82 983.209 1125.82 979.69Z" fill="#FCAF23"/>
<path d="M1133.44 983.796C1127.34 983.796 1125.82 983.209 1125.82 979.69V976.757V930.421C1125.82 925.728 1127.58 923.969 1131.68 923.969H1276.56V983.796H1133.44Z" fill="#FB8B1D"/>
<path d="M1276.56 983.796V923.969H1345.77V983.796H1276.56Z" fill="#FCBD31"/>
<path d="M1357.5 983.796V923.969H1376.27V983.796H1357.5Z" fill="#FCBD31"/>
<path d="M1133.44 983.796C1127.34 983.796 1125.82 983.21 1125.82 979.691V976.758H1413.22C1413.22 982.037 1413.22 983.796 1409.7 983.796H1376.27H1357.5H1345.77H1276.56H1133.44Z" fill="#F8861D"/>
<path d="M1110.07 1039.31V990.046C1110.07 985.353 1111.83 983.594 1115.93 983.594H1391.02C1396.65 983.594 1397.67 987.113 1397.47 988.873V1036.38C1397.47 1041.66 1397.47 1043.42 1393.95 1043.42H1117.69C1111.59 1043.42 1110.07 1042.83 1110.07 1039.31Z" fill="#FCAF23"/>
<path d="M1117.69 1043.42C1111.59 1043.42 1110.07 1042.83 1110.07 1039.31V1036.38V990.046C1110.07 985.353 1111.83 983.594 1115.93 983.594H1260.81V1043.42H1117.69Z" fill="#FB8B1D"/>
<path d="M1260.81 1043.42V983.594H1330.02V1043.42H1260.81Z" fill="#FCBD31"/>
<path d="M1341.75 1043.42V983.594H1360.52V1043.42H1341.75Z" fill="#FCBD31"/>
<path d="M1117.69 1043.42C1111.59 1043.42 1110.07 1042.83 1110.07 1039.32V1036.38H1397.47C1397.47 1041.66 1397.47 1043.42 1393.95 1043.42H1360.52H1341.75H1330.02H1260.81H1117.69Z" fill="#F8861D"/>
<path d="M1168.12 1010.15C1106.83 1067.88 1018.63 1073.8 971.123 1023.37C923.614 972.931 933.492 887.013 994.782 829.279C1074.49 754.197 1145.56 763.858 1193.07 814.293C1240.58 864.727 1229.41 952.415 1168.12 1010.15Z" fill="#FA7914"/>
<path d="M1151.22 1005.84C1089.93 1063.57 1001.73 1069.49 954.224 1019.06C906.716 968.622 917.887 880.934 979.176 823.2C1040.47 765.467 1128.66 759.549 1176.17 809.984C1223.68 860.418 1212.51 948.106 1151.22 1005.84Z" fill="#F7B823"/>
<path d="M1140.46 811.844L963.845 987.337L988.032 1012.65L1163.52 834.343L1140.46 811.844Z" fill="#FB9C38" fill-opacity="0.76"/>
<path d="M1125.84 808.471L956.533 974.964C925.034 934.467 981.844 851.781 999.281 838.845C1050.58 789.347 1105.03 797.971 1125.84 808.471Z" fill="#FB9C38" fill-opacity="0.76"/>
<path fill-rule="evenodd" clip-rule="evenodd" d="M977.356 997.267C1012.24 1034.3 1080.96 1032.54 1131.51 984.92C1182.06 937.303 1187.92 868.808 1153.04 831.775C1118.15 794.742 1049.43 796.505 998.883 844.122C948.334 891.738 942.471 960.234 977.356 997.267ZM966.711 1007.29C1008.87 1052.05 1087.15 1046.8 1141.54 995.565C1195.93 944.328 1205.85 866.507 1163.68 821.747C1121.52 776.988 1043.25 782.239 988.855 833.477C934.462 884.714 924.548 962.535 966.711 1007.29Z" fill="#FDD179"/>
<path fill-rule="evenodd" clip-rule="evenodd" d="M1111.44 829.268L1104.69 825.409C1103.99 825.01 1103.11 825.279 1102.73 826.005L1098.01 835.07C1079.33 827.151 1058.96 830.02 1046.49 844.46C1024.82 869.549 1049.77 905.445 1054.75 910.148C1055.71 911.106 1056.63 912.047 1057.5 912.973L1038.11 950.258C1030.45 943.532 1023.7 933.609 1019.16 925.483C1018.39 924.115 1016.71 923.595 1015.33 924.32L1001.13 931.771C999.779 932.48 999.196 934.141 999.844 935.533C1009.05 955.297 1022.01 966.029 1027.65 970.371L1016.62 991.593C1016.25 992.302 1016.51 993.178 1017.2 993.553L1024.61 997.582C1025.3 997.962 1026.18 997.686 1026.55 996.967L1037.19 976.319C1085.81 1000.09 1120.16 939.81 1086.44 906.721C1083.12 903.462 1080.26 900.405 1077.8 897.538L1096.55 861.161C1103.74 867.223 1110.29 875.796 1114.75 882.887C1115.57 884.193 1117.23 884.644 1118.57 883.89C1123.02 881.387 1129.32 877.785 1132.77 875.628C1133.9 874.917 1134.33 873.47 1133.79 872.232C1127.58 857.804 1118.1 847.033 1107.42 840.086L1111.99 831.209C1112.35 830.511 1112.11 829.652 1111.44 829.268ZM1067.71 859.921C1073.57 852.63 1080.56 852.149 1087.52 855.258L1070.53 887.912C1060.34 872.066 1064.59 863.801 1067.71 859.921ZM1047.46 956.391L1065.06 922.261C1075.97 938.258 1071.21 948.044 1067.89 951.558C1061.28 958.575 1054.23 959.245 1047.46 956.391Z" fill="#FFCD6A" fill-opacity="0.89"/>
<path d="M1256.74 364.301C1201.84 415.044 1110.69 401.888 1071.98 388.968C1040.31 630.35 1177.56 704.351 1256.74 750.161C1496.05 625.065 1437.98 413.634 1437.98 388.968C1320.09 418.92 1272.58 378.396 1256.74 364.301Z" fill="#0B0063"/>
<path d="M1256.57 399.176C1210.85 440.747 1134.94 429.969 1102.7 419.384C1076.32 617.135 1190.63 677.759 1256.57 715.288C1455.88 612.804 1407.52 439.592 1407.52 419.384C1309.33 443.922 1269.76 410.723 1256.57 399.176Z" fill="white"/>
<path fill-rule="evenodd" clip-rule="evenodd" d="M1216.38 529.108C1216.38 507.673 1233.75 490.297 1255.19 490.297C1276.62 490.297 1294 507.673 1294 529.108V556.107H1300.19C1305.78 556.107 1310.31 560.64 1310.31 566.231V614.605C1310.31 620.196 1305.78 624.729 1300.19 624.729H1211.31C1205.72 624.729 1201.19 620.196 1201.19 614.605V566.231C1201.19 560.64 1205.72 556.107 1211.31 556.107H1216.38V529.108ZM1255.19 498.172C1272.27 498.172 1286.12 512.022 1286.12 529.108V556.107H1224.25V529.108C1224.25 512.022 1238.1 498.172 1255.19 498.172Z" fill="#0B0063"/>
<path d="M1263.06 581.418C1263.06 584.876 1260.66 587.772 1257.44 588.534V597.167C1257.44 598.099 1256.68 598.855 1255.75 598.855C1254.82 598.855 1254.06 598.099 1254.06 597.167V588.534C1250.84 587.772 1248.44 584.876 1248.44 581.418C1248.44 577.379 1251.71 574.105 1255.75 574.105C1259.79 574.105 1263.06 577.379 1263.06 581.418Z" fill="white"/>
<path fill-rule="evenodd" clip-rule="evenodd" d="M1202.88 614.041V563.98H1204V614.041H1202.88Z" fill="#F6F1EF"/>
<path d="M581.803 902.742H532.991V932.507H532.98C532.902 935.778 532.902 941.632 532.902 947.733C532.902 953.835 532.902 960.184 532.823 964.445C532.902 966.965 532.98 968.551 532.98 968.551C532.98 968.551 580.886 968.297 632.116 968.297C624.425 945.215 582.251 932.643 581.796 932.508H581.803V902.742Z" fill="#FED4CC"/>
<path d="M530.871 968.859C526.371 957.609 530.121 941.109 533.12 936.234C548.87 942.422 555.62 955.359 562.369 964.921L588.243 966.046C588.243 966.046 588.12 942.364 598.93 939.047C611.305 942.984 624.804 956.484 624.804 956.484C625.367 957.046 623.455 965.034 622.555 967.734C628.179 967.734 631.554 967.171 634.367 968.296C601.743 969.983 540.433 968.859 530.871 968.859Z" fill="#0B0063"/>
<path fill-rule="evenodd" clip-rule="evenodd" d="M533.473 936.625L533.935 936.856C541.359 940.568 546.099 945.775 549.78 951.18C551.609 953.867 553.18 956.609 554.683 959.232L554.702 959.264C556.164 961.815 557.559 964.247 559.08 966.445L589.495 967.49C589.494 967.355 589.494 967.2 589.494 967.025C589.496 966.352 589.511 965.388 589.561 964.222C589.66 961.891 589.9 958.745 590.464 955.494C591.027 952.249 591.918 948.869 593.335 946.086C594.749 943.308 596.726 941.052 599.494 940.197L599.663 940.144L599.832 940.198C605.809 942.113 611.304 946.163 615.285 949.702C617.28 951.476 618.905 953.132 620.033 954.344C620.596 954.951 621.036 955.447 621.335 955.792C621.485 955.965 621.599 956.1 621.677 956.192C621.716 956.239 621.745 956.274 621.765 956.298L621.786 956.323C621.925 956.478 621.969 956.668 621.988 956.771C622.012 956.905 622.02 957.053 622.02 957.202C622.02 957.503 621.986 957.883 621.931 958.307C621.819 959.16 621.612 960.262 621.364 961.415C620.869 963.721 620.197 966.294 619.762 967.61L618.694 967.256C619.112 965.994 619.773 963.465 620.265 961.179C620.51 960.037 620.71 958.97 620.815 958.162C620.868 957.755 620.895 957.431 620.895 957.202C620.895 957.107 620.891 957.041 620.885 956.999C620.868 956.978 620.844 956.95 620.816 956.916C620.742 956.828 620.631 956.697 620.485 956.529C620.193 956.193 619.763 955.706 619.209 955.11C618.1 953.918 616.501 952.289 614.537 950.543C610.64 947.078 605.352 943.192 599.66 941.325C597.384 942.092 595.651 944.015 594.337 946.597C592.993 949.237 592.127 952.493 591.572 955.687C591.019 958.875 590.783 961.969 590.685 964.27C590.636 965.419 590.621 966.368 590.619 967.029C590.618 967.359 590.62 967.617 590.623 967.792C590.624 967.88 590.625 967.947 590.626 967.991L590.627 968.041L590.627 968.053L590.627 968.056L590.644 968.655L558.479 967.55L558.318 967.321C556.701 965.014 555.233 962.454 553.726 959.823L553.717 959.807C552.208 957.174 550.655 954.464 548.85 951.813C545.319 946.628 540.836 941.686 533.907 938.104C532.634 940.502 531.368 945.235 530.877 950.701C530.353 956.518 530.718 963.043 532.806 968.299L531.761 968.715C529.582 963.231 529.224 956.509 529.756 950.6C530.286 944.708 531.713 939.503 533.203 937.066L533.473 936.625Z" fill="white"/>
<path d="M514.489 398.59C517.988 409.828 521.655 419.379 524.861 427.096C540.205 464.04 606.578 513.583 606.578 513.583L635.512 456.368C635.512 456.368 618.154 441.259 600.796 421.01C583.438 400.761 563.83 372.153 563.83 325.873C563.83 279.592 546.798 251.783 537.472 238.452C530.16 227.979 519.191 222.658 512.464 219.699C491.506 296.275 501.912 358.283 514.489 398.59Z" fill="#8A86FF"/>
<path d="M635.512 456.368L606.578 513.583C606.578 513.583 602.804 510.766 596.847 505.974L626.659 448.203C632.044 453.349 635.512 456.368 635.512 456.368Z" fill="white"/>
<path d="M464.338 398.59C464.338 398.59 481.696 535.598 491.337 557.771C492.8 561.135 494.633 565.443 496.692 570.337C508.268 597.775 527.021 643.594 527.021 643.594L525.964 795.756V795.778L525.334 887.383L525.21 905.866H589.096C589.096 905.866 589.805 898.993 591.02 887.383C597.364 825.983 617.333 632.165 617.333 623.502C617.333 613.22 612.833 582.363 602.472 552.956C592.1 523.55 541.96 398.59 541.96 398.59H464.338Z" fill="#523AF2"/>
<path fill-rule="evenodd" clip-rule="evenodd" d="M464.897 398.524C464.897 398.523 464.897 398.522 464.339 398.593C463.781 398.664 463.781 398.664 463.781 398.665L463.831 399.058C463.864 399.318 463.913 399.704 463.978 400.209C464.107 401.218 464.299 402.701 464.545 404.596C465.039 408.386 465.755 413.826 466.644 420.422C468.422 433.615 470.894 451.437 473.666 469.952C476.439 488.466 479.514 507.679 482.499 523.651C485.478 539.595 488.381 552.385 490.822 557.998C492.283 561.359 494.116 565.665 496.174 570.558C501.961 584.275 509.542 602.588 515.678 617.472C518.745 624.914 521.451 631.499 523.39 636.223C524.359 638.585 525.137 640.482 525.672 641.788L526.458 643.706L525.401 795.759L525.401 795.781L524.771 887.382L524.647 905.866L525.772 905.873L526.526 795.785L526.526 795.781V795.759L527.584 643.488L527.542 643.384L527.021 643.597C527.542 643.384 527.542 643.384 527.542 643.384L527.541 643.382L526.713 641.361C526.178 640.055 525.4 638.158 524.431 635.795C522.491 631.071 519.785 624.486 516.718 617.043C510.582 602.159 503 583.843 497.211 570.122C495.152 565.227 493.317 560.916 491.853 557.55C489.474 552.077 486.591 539.426 483.605 523.445C480.623 507.492 477.551 488.295 474.779 469.785C472.007 451.277 469.537 433.461 467.759 420.272C466.87 413.677 466.154 408.239 465.661 404.451C465.414 402.556 465.223 401.074 465.094 400.065C465.029 399.561 464.98 399.175 464.947 398.915L464.897 398.524Z" fill="#13094F"/>
<path fill-rule="evenodd" clip-rule="evenodd" d="M526.805 528.373C513.527 481.865 497.595 431.032 486.973 398.418L485.903 398.766C496.522 431.371 512.451 482.191 525.724 528.682C532.36 551.927 538.332 574.086 542.644 592.342C546.961 610.62 549.598 624.924 549.598 632.497C549.598 644.254 548.517 675.79 547.187 714.624C546.787 726.287 546.365 738.608 545.942 751.248C544.114 805.968 542.286 866.67 542.286 905.869H543.411C543.411 866.693 545.239 806.009 547.067 751.286C547.489 738.657 547.911 726.345 548.31 714.688C549.641 675.845 550.723 644.275 550.723 632.497C550.723 624.771 548.05 610.339 543.738 592.083C539.421 573.803 533.444 551.626 526.805 528.373Z" fill="#13094F"/>
<path fill-rule="evenodd" clip-rule="evenodd" d="M549.153 520.836C535.791 476.462 519.757 428.774 509.068 398.406L508.007 398.78C518.692 429.136 534.72 476.807 548.076 521.16C554.754 543.337 560.762 564.679 565.1 582.609C569.443 600.559 572.098 615.033 572.098 623.506C572.098 657.678 563.1 825.952 558.599 905.838L559.722 905.901C564.221 826.039 573.223 657.719 573.223 623.506C573.223 614.881 570.534 600.284 566.193 582.345C561.848 564.386 555.834 543.023 549.153 520.836Z" fill="#13094F"/>
<path fill-rule="evenodd" clip-rule="evenodd" d="M574.028 523.914C557.928 479.114 538.61 429.964 525.73 398.379L524.689 398.804C537.564 430.379 556.876 479.514 572.969 524.294C581.016 546.685 588.255 567.982 593.482 585.447C596.096 594.18 598.205 601.95 599.659 608.416C601.117 614.893 601.909 620.027 601.909 623.504C601.909 637.636 596.946 687.607 590.733 744.387C584.523 801.143 577.07 864.646 572.101 905.8L573.218 905.935C578.187 864.778 585.64 801.271 591.851 744.509C598.06 687.77 603.034 637.715 603.034 623.504C603.034 619.895 602.217 614.66 600.757 608.169C599.294 601.668 597.178 593.871 594.56 585.125C589.325 567.631 582.077 546.313 574.028 523.914Z" fill="#13094F"/>
<path fill-rule="evenodd" clip-rule="evenodd" d="M567.804 464.954C581.637 499.875 596.76 538.454 601.941 553.145C612.286 582.505 616.77 613.299 616.77 623.503C616.77 624.554 616.462 628.495 615.902 634.761C615.344 641.007 614.539 649.527 613.554 659.701C611.583 680.047 608.888 707.005 605.996 735.611C600.211 792.822 593.633 856.627 590.46 887.327C589.853 893.131 589.372 897.752 589.043 900.921C588.878 902.506 588.752 903.728 588.666 904.554L588.537 905.809L588.537 905.81L589.656 905.925L589.785 904.67C589.871 903.844 589.997 902.622 590.162 901.038C590.491 897.868 590.972 893.248 591.579 887.443C594.752 856.743 601.33 792.937 607.115 735.724C610.008 707.117 612.702 680.158 614.673 659.809C615.659 649.635 616.464 641.112 617.022 634.861C617.579 628.629 617.895 624.619 617.895 623.503C617.895 613.144 613.379 582.222 603.002 552.771C597.812 538.055 582.679 499.451 568.85 464.54C561.934 447.081 555.342 430.542 550.479 418.367C548.048 412.279 546.049 407.283 544.657 403.809C543.962 402.071 543.418 400.715 543.048 399.792L542.483 398.383C542.483 398.382 542.482 398.382 541.96 398.591C541.438 398.8 541.439 398.801 541.439 398.802L542.004 400.211C542.374 401.133 542.917 402.49 543.613 404.227C545.004 407.701 547.003 412.697 549.434 418.784C554.297 430.958 560.888 447.497 567.804 464.954Z" fill="#13094F"/>
<path d="M525.221 905.866H589.108C589.108 905.866 589.816 898.992 591.031 887.383H525.345L525.221 905.866Z" fill="#302386"/>
<path d="M496.692 570.337C508.268 597.775 527.021 643.594 527.021 643.594L525.964 795.756L552.085 646.047C552.175 645.507 552.715 645.147 553.244 645.27L558.014 646.35C559.195 646.62 560.376 645.878 560.646 644.686C560.916 643.493 560.151 642.301 558.947 642.053L554.223 641.074C553.806 640.984 553.469 640.681 553.356 640.264L502.767 460.598L496.703 570.303V570.337H496.692Z" fill="#302386"/>
<path d="M452.037 902.742H403.226V932.507H403.215C403.136 935.778 403.136 941.632 403.136 947.733C403.136 953.835 403.136 960.184 403.057 964.445C403.136 966.965 403.215 968.551 403.215 968.551C403.215 968.551 451.12 968.297 502.351 968.297C494.659 945.215 452.485 932.643 452.03 932.508H452.037V902.742Z" fill="#FED4CC"/>
<path d="M401.105 968.859C396.606 957.609 400.355 941.109 403.355 936.234C419.104 942.422 425.854 955.359 432.604 964.921L458.478 966.046C458.478 966.046 458.354 942.364 469.165 939.047C481.539 942.984 495.039 956.484 495.039 956.484C495.601 957.046 493.689 965.034 492.789 967.734C498.414 967.734 501.789 967.171 504.601 968.296C471.977 969.983 410.667 968.859 401.105 968.859Z" fill="#624279"/>
<path fill-rule="evenodd" clip-rule="evenodd" d="M403.707 936.625L404.169 936.856C404.777 937.16 405.367 937.474 405.941 937.798L405.388 938.777C404.981 938.548 404.566 938.323 404.141 938.104C403.933 938.496 403.723 938.955 403.515 939.475L402.471 939.058C402.78 938.284 403.105 937.61 403.438 937.066L403.707 936.625ZM470.437 939.455L470.606 939.509C471.489 939.792 472.359 940.125 473.211 940.499L472.759 941.529C471.995 941.194 471.219 940.894 470.434 940.635C469.877 940.823 469.353 941.082 468.857 941.404L468.244 940.461C468.87 940.054 469.544 939.73 470.268 939.507L470.437 939.455ZM413.14 944.602C412.232 943.714 411.263 942.854 410.224 942.03L410.924 941.149C411.994 941.998 412.992 942.884 413.926 943.798L413.14 944.602ZM483.846 949.074C482.58 947.916 481.184 946.741 479.685 945.63L480.354 944.726C481.89 945.863 483.315 947.064 484.605 948.244L483.846 949.074ZM401.836 945.521C401.584 946.829 401.371 948.228 401.212 949.684L400.094 949.562C400.256 948.075 400.474 946.646 400.731 945.308L401.836 945.521ZM465.066 945.94C464.464 947.095 463.947 948.37 463.502 949.711L462.434 949.357C462.893 947.972 463.433 946.64 464.068 945.421L465.066 945.94ZM419.306 952.141C418.587 951.071 417.829 950.01 417.019 948.97L417.907 948.279C418.735 949.343 419.508 950.425 420.24 951.513L419.306 952.141ZM490.712 956.461C490.427 956.097 490.006 955.57 489.462 954.926L490.322 954.201C490.876 954.856 491.306 955.394 491.599 955.769C491.745 955.956 491.857 956.103 491.933 956.203C491.971 956.254 492 956.292 492.019 956.319L492.033 956.338C492.114 956.433 492.156 956.534 492.181 956.607C492.211 956.696 492.227 956.787 492.237 956.87C492.257 957.036 492.258 957.229 492.249 957.431C492.23 957.84 492.165 958.366 492.07 958.956L490.959 958.778C491.051 958.203 491.109 957.725 491.125 957.379C491.133 957.204 491.13 957.082 491.121 957.006C491.12 957.002 491.119 956.997 491.119 956.993L491.116 956.989C491.098 956.965 491.071 956.929 491.035 956.881C490.963 956.785 490.854 956.644 490.712 956.461ZM462.008 955.713C461.751 957.12 461.551 958.505 461.396 959.811L460.279 959.678C460.436 958.353 460.639 956.944 460.901 955.511L462.008 955.713ZM400.901 955.988C400.918 957.388 400.996 958.795 401.144 960.184L400.026 960.304C399.873 958.876 399.794 957.434 399.776 956.002L400.901 955.988ZM423.946 959.797C423.443 958.92 422.935 958.033 422.413 957.141L423.384 956.573C423.909 957.47 424.42 958.362 424.923 959.241C425.069 959.495 425.214 959.747 425.358 959.999L424.382 960.559C424.237 960.306 424.092 960.052 423.946 959.797ZM428.553 967.321C428.174 966.781 427.805 966.228 427.441 965.664L428.386 965.054C428.692 965.528 429 965.992 429.314 966.445L431.118 966.507L431.08 967.632L428.714 967.55L428.553 967.321ZM488.928 967.256C489.098 966.744 489.31 966.016 489.535 965.174L490.622 965.465C490.394 966.317 490.176 967.068 489.996 967.61L488.928 967.256ZM460.862 968.069L460.862 968.068L460.862 968.069ZM460.862 968.068L460.862 968.062L460.862 968.068ZM460.862 968.062L460.862 968.036L460.862 968.062ZM460.862 968.036L460.862 967.933L460.862 968.036ZM460.862 967.933C460.863 967.841 460.864 967.706 460.867 967.529L460.862 967.933ZM460.867 967.529C460.872 967.176 460.884 966.662 460.909 966.017L460.867 967.529ZM460.909 966.017L459.785 965.973L460.909 966.017ZM459.785 965.973C459.76 966.614 459.748 967.13 459.742 967.49L459.785 965.973ZM402.356 966.335C402.56 967.007 402.788 967.663 403.041 968.299L401.995 968.715C401.73 968.047 401.492 967.362 401.279 966.662L402.356 966.335ZM441.509 967.99L437.337 967.846L437.376 966.722L441.547 966.865L441.509 967.99ZM451.937 968.348L447.766 968.204L447.804 967.08L451.976 967.223L451.937 968.348Z" fill="white"/>
<path d="M452.036 902.742H403.225V932.507H403.214C403.135 935.778 403.135 941.632 403.135 947.733C403.135 953.835 403.135 960.184 403.056 964.445C403.135 966.965 403.214 968.551 403.214 968.551C403.214 968.551 451.119 968.297 502.35 968.297C494.658 945.215 452.484 932.643 452.029 932.508H452.036V902.742Z" fill="#FED4CC"/>
<path d="M401.104 968.859C396.605 957.609 400.354 941.109 403.354 936.234C419.103 942.422 425.853 955.359 432.603 964.921L458.477 966.046C458.477 966.046 458.354 942.364 469.164 939.047C481.538 942.984 495.038 956.484 495.038 956.484C495.6 957.046 493.688 965.034 492.788 967.734C498.413 967.734 501.788 967.171 504.6 968.296C471.976 969.983 410.666 968.859 401.104 968.859Z" fill="#0B0063"/>
<path fill-rule="evenodd" clip-rule="evenodd" d="M403.706 936.625L404.168 936.856C411.592 940.568 416.332 945.775 420.013 951.18C421.843 953.867 423.414 956.609 424.917 959.232L424.935 959.264C426.397 961.815 427.793 964.247 429.313 966.445L459.724 967.489C459.723 967.356 459.721 967.202 459.721 967.029C459.718 966.356 459.726 965.392 459.768 964.226C459.852 961.895 460.071 958.749 460.614 955.498C461.156 952.252 462.026 948.872 463.427 946.089C464.825 943.31 466.792 941.052 469.561 940.197L469.731 940.144L469.899 940.198C475.875 942.113 481.411 946.162 485.433 949.7C487.449 951.474 489.095 953.129 490.237 954.342C490.809 954.948 491.255 955.444 491.559 955.789C491.711 955.962 491.827 956.097 491.906 956.189C491.945 956.235 491.975 956.271 491.995 956.295L492.017 956.32C492.158 956.477 492.202 956.668 492.221 956.771C492.246 956.905 492.254 957.053 492.254 957.202C492.253 957.503 492.219 957.883 492.164 958.307C492.053 959.16 491.846 960.262 491.598 961.415C491.102 963.721 490.431 966.294 489.995 967.61L488.927 967.256C489.345 965.994 490.007 963.465 490.498 961.179C490.743 960.037 490.943 958.97 491.049 958.162C491.102 957.755 491.128 957.431 491.129 957.202C491.129 957.108 491.124 957.042 491.119 957C491.117 956.998 491.115 956.996 491.113 956.993C491.096 956.974 491.075 956.949 491.05 956.919C490.975 956.831 490.862 956.7 490.714 956.532C490.418 956.196 489.981 955.709 489.419 955.113C488.295 953.921 486.674 952.291 484.69 950.545C480.751 947.079 475.421 943.192 469.727 941.325C467.453 942.092 465.731 944.013 464.432 946.594C463.103 949.234 462.257 952.49 461.723 955.683C461.191 958.871 460.975 961.965 460.892 964.266C460.851 965.415 460.843 966.364 460.846 967.025C460.847 967.355 460.851 967.614 460.854 967.789C460.856 967.876 460.857 967.943 460.859 967.987L460.86 968.037L460.861 968.052L460.881 968.655L428.713 967.55L428.552 967.321C426.934 965.014 425.467 962.454 423.959 959.823L423.95 959.807C422.441 957.174 420.888 954.464 419.083 951.813C415.552 946.628 411.069 941.686 404.14 938.104C402.868 940.502 401.602 945.235 401.11 950.701C400.586 956.518 400.951 963.043 403.04 968.299L401.994 968.715C399.816 963.231 399.458 956.509 399.99 950.6C400.52 944.708 401.947 939.503 403.437 937.066L403.706 936.625Z" fill="white"/>
<path d="M485.723 703.543C489.582 674.609 501.585 543.799 501.045 491.725C504.128 438.695 505.332 398.59 505.332 398.59H405.053C405.053 398.59 387.695 431.664 383.521 443.858C379.336 456.053 375.478 463.759 379.021 499.757C382.374 533.888 396.267 663.843 397.696 677.197L397.693 678.517L397.235 908.67H466.351L485.723 703.543Z" fill="#523AF2"/>
<path fill-rule="evenodd" clip-rule="evenodd" d="M503.783 425.249C503.097 441.901 502.025 465.182 500.484 491.693L500.483 491.712L500.483 491.732C501.023 543.767 489.023 674.547 485.166 703.47L485.165 703.48L465.792 908.618L466.912 908.723L486.281 703.618C486.282 703.615 486.282 703.611 486.283 703.608C490.144 674.645 502.145 543.859 501.608 491.739C503.149 465.228 504.22 441.948 504.907 425.295C505.25 416.966 505.497 410.295 505.658 405.705C505.738 403.411 505.797 401.636 505.836 400.436C505.856 399.835 505.87 399.379 505.88 399.072L505.894 398.608C505.894 398.608 505.894 398.608 505.332 398.591C504.77 398.574 504.77 398.574 504.77 398.574L504.755 399.037C504.746 399.343 504.731 399.799 504.712 400.399C504.673 401.599 504.614 403.372 504.533 405.666C504.372 410.253 504.126 416.923 503.783 425.249Z" fill="#130A4F"/>
<path fill-rule="evenodd" clip-rule="evenodd" d="M479.31 446.029C473.878 464.877 468.601 484.818 468.601 499.757C468.601 527.857 457.166 784.328 451.446 908.643L452.57 908.695C458.288 784.406 469.726 527.891 469.726 499.757C469.726 485.005 474.949 465.222 480.391 446.34C481.176 443.617 481.966 440.912 482.744 438.245C484.659 431.685 486.507 425.353 488.058 419.53C490.238 411.345 491.845 404.117 492.224 398.628L491.102 398.551C490.731 403.922 489.15 411.059 486.971 419.24C485.424 425.05 483.582 431.361 481.668 437.916C480.889 440.586 480.098 443.296 479.31 446.029Z" fill="#130A4F"/>
<path fill-rule="evenodd" clip-rule="evenodd" d="M438.227 499.784C439.574 469.697 449.65 419.88 454.525 398.717L453.429 398.465C448.554 419.628 438.455 469.534 437.103 499.733C435.753 529.889 430.915 784.923 431.478 908.673L432.603 908.668C432.04 784.93 436.877 529.915 438.227 499.784Z" fill="#130A4F"/>
<path fill-rule="evenodd" clip-rule="evenodd" d="M429.254 398.422C422.878 418.833 408.994 467.675 404.496 499.679C403.367 507.718 403.018 529.632 403.193 559.838C403.369 590.068 404.071 628.657 405.054 670.088C407.02 752.951 410.108 847.193 412.354 908.69L413.479 908.649C411.233 847.155 408.144 752.918 406.179 670.061C405.196 628.633 404.494 590.051 404.318 559.832C404.142 529.588 404.495 507.773 405.61 499.835C410.094 467.93 423.954 419.162 430.328 398.757L429.254 398.422Z" fill="#130A4F"/>
<path fill-rule="evenodd" clip-rule="evenodd" d="M397.696 677.197C397.704 677.267 397.711 677.335 397.718 677.399C397.783 677.998 397.82 678.31 397.82 678.31L397.693 678.517L397.696 677.197Z" fill="#130A4F"/>
<path d="M397.235 908.671H466.351L467.786 887.859H397.265L397.235 908.671Z" fill="#302386"/>
<path d="M397.235 679.265C397.302 679.31 397.392 679.355 397.482 679.377L420.307 686.453C420.42 686.487 420.532 686.498 420.645 686.498C421.117 686.498 421.567 686.195 421.713 685.711C421.905 685.115 421.567 684.485 420.971 684.305L398.157 677.229C397.999 677.184 397.842 677.172 397.696 677.195C397.774 677.926 397.819 678.309 397.819 678.309L397.235 679.265Z" fill="#302386"/>
<path d="M405.042 398.588H541.96C548.046 396.349 552.456 388.7 555.639 379.149C562.884 357.426 563.818 325.871 563.818 325.871C563.818 285.913 551.117 259.712 541.645 244.728C540.149 242.354 538.731 240.273 537.46 238.451C528.145 225.109 512.88 220.125 508.054 217.718C503.228 215.31 501.945 206.547 501.945 206.547H462.167L460.479 215.31C460.479 215.31 435.899 217.853 424.323 233.535C412.759 249.216 406.729 264.403 406.009 288.027C405.492 304.711 407.393 336.074 409.474 358.157C410.351 367.337 411.251 374.908 412.027 379.149L405.042 398.588Z" fill="#B1AEFF"/>
<path d="M539.081 253.56C543.907 264.641 550.173 278.984 548.721 297.366C547.281 315.747 545.594 344.355 545.594 344.355L536.549 398.589H541.972C548.058 396.35 552.468 388.701 555.651 379.15C562.896 357.427 563.83 325.872 563.83 325.872C563.83 279.591 546.798 251.782 537.472 238.452C528.157 225.11 512.891 220.126 508.065 217.719C508.065 217.719 534.254 242.468 539.081 253.56Z" fill="#8A86FF"/>
<path d="M403.033 402.549L491.342 403.111C491.904 399.736 479.233 392.536 473.855 383.648H413.153L403.033 402.549Z" fill="#2A1E76"/>
<path d="M405.042 398.588H485.319C482.641 395.157 478.108 388.036 472.731 379.148H412.028L405.042 398.588Z" fill="#302386"/>
<path d="M460.492 215.31C460.492 215.31 499.584 218.044 508.066 217.718C503.24 215.31 501.957 206.547 501.957 206.547H462.179L460.492 215.31Z" fill="white"/>
<path d="M637.931 315.095L654.546 356.493C654.546 356.493 707.588 338.404 711.919 309.717C711.919 309.717 711.323 307.794 708.544 308.277C708.544 308.277 715.417 296.702 713.01 294.17C710.603 291.639 707.824 294.17 707.824 294.17C707.824 294.17 707.34 286.937 705.293 286.464C703.448 286.026 694.561 293.417 689.296 298.052C688.925 298.378 688.385 297.973 688.587 297.523C690.376 293.507 694.167 284.473 693.245 282.246V282.235C692.806 281.2 692.221 280.097 691.535 279.321C690.308 277.915 688.767 277.521 687.215 280.311C685.044 284.215 674.615 293.36 667.101 296.927C665.841 297.523 664.344 296.837 663.939 295.509L659.462 280.783C659.012 279.557 657.471 279.175 656.515 280.052C656.425 280.131 656.335 280.21 656.245 280.3C654.782 281.627 653.084 283.213 652.622 283.81C651.779 284.89 651.171 295.858 651.171 297.185C651.171 298.513 638.414 310.224 637.931 315.095Z" fill="#FED4CC"/>
<path d="M696.249 322.655C696.474 322.655 696.699 322.587 696.901 322.452C702.773 318.29 709.186 309.313 709.467 308.93C709.827 308.424 709.703 307.727 709.197 307.367C708.691 307.007 707.993 307.13 707.633 307.637C707.566 307.727 701.165 316.692 695.607 320.63C695.101 320.99 694.977 321.687 695.337 322.194C695.551 322.497 695.9 322.655 696.249 322.655Z" fill="#FFBEB1"/>
<path d="M690.826 313.015C690.994 313.015 691.152 312.981 691.31 312.902C697.969 309.696 707.801 297.558 708.206 297.04C708.6 296.557 708.521 295.848 708.038 295.454C707.554 295.061 706.845 295.139 706.451 295.623C706.35 295.747 696.529 307.874 690.331 310.866C689.768 311.136 689.532 311.811 689.802 312.362C690.005 312.779 690.409 313.015 690.826 313.015Z" fill="#FFBEB1"/>
<path d="M683.109 306.501C683.289 306.501 683.48 306.456 683.649 306.354C693.481 300.887 702.166 290.504 702.526 290.054C702.919 289.57 702.852 288.861 702.379 288.468C701.907 288.074 701.187 288.141 700.793 288.614C700.703 288.715 692.007 299.121 682.546 304.374C682.006 304.678 681.804 305.364 682.108 305.904C682.333 306.298 682.715 306.501 683.109 306.501Z" fill="#FFBEB1"/>
<path d="M656.234 280.3C657.707 284.327 661.667 295.059 662.252 296.949C662.972 299.278 664.423 301.359 671.33 297.995C677.034 295.217 687.924 283.787 691.523 279.321C690.297 277.915 688.756 277.521 687.204 280.311C685.032 284.215 674.604 293.36 667.089 296.927C665.829 297.523 664.333 296.837 663.928 295.509L659.451 280.783C659.001 279.557 657.46 279.175 656.504 280.052C656.425 280.131 656.323 280.21 656.234 280.3Z" fill="#FFBEB1"/>
<path d="M430.117 302.572C430.117 302.572 476.645 386.449 486.77 398.587C496.895 410.726 540.532 401.085 586.812 383.243C612.551 373.321 630.607 366.166 641.564 361.768C650.316 358.247 654.546 356.492 654.546 356.492L636.254 310.931L622.282 313.338L535.706 328.278L484.441 258.137L430.117 302.572Z" fill="#B1AEFF"/>
<path d="M429.138 303.112C430.556 305.666 455.8 351.159 472.742 379.148C478.119 388.035 484.165 397.43 486.842 400.861H489.823C489.587 400.636 489.362 400.388 489.148 400.141C486.763 397.283 480.796 388.069 475.374 379.148C458.207 350.844 431.456 302.662 431.096 302.032C430.803 301.481 430.117 301.289 429.566 301.593C429.026 301.886 428.835 302.572 429.138 303.112Z" fill="#302386"/>
<path d="M483.53 258.801L535.211 329.505L636.682 313.125L635.849 310.999L536.2 327.064L485.353 257.485C484.981 256.979 484.284 256.878 483.778 257.238C483.271 257.598 483.159 258.295 483.53 258.801Z" fill="#302386"/>
<path d="M622.282 313.341L641.564 361.77C650.316 358.249 654.546 356.494 654.546 356.494L636.254 310.934L622.282 313.341Z" fill="white"/>
<path d="M525.941 342.644C527.37 340.27 534.659 327.828 534.738 327.704C535.053 327.165 535.739 326.985 536.279 327.3C536.819 327.615 536.999 328.301 536.684 328.841C536.606 328.964 529.316 341.418 527.876 343.803C527.662 344.151 527.291 344.354 526.908 344.354C526.717 344.354 526.515 344.298 526.335 344.196C525.795 343.87 525.615 343.184 525.941 342.644Z" fill="#302386"/>
<path d="M462.167 206.549L464.519 163.632C464.586 162.405 463.934 161.235 462.809 160.718C454.394 156.826 455.328 150.582 456.385 148.771C459.04 131.359 513.522 108.504 513.522 133.014C513.342 138.38 514.175 149.922 516.413 157.808C518.944 166.729 517.38 174.971 513.522 182.925C510.709 188.729 504.747 191.452 501.732 192.498C501.113 192.712 500.607 193.139 500.281 193.668C499.989 194.14 499.842 194.692 499.876 195.265C500.067 198.1 500.855 201.925 501.406 204.321C501.721 205.66 501.946 206.549 501.946 206.549H462.167Z" fill="#FED4CC"/>
<path d="M472.911 184.848C472.911 184.848 477.489 203.173 501.417 204.321C500.866 201.924 500.078 198.1 499.887 195.265C499.853 194.691 500 194.14 500.292 193.667C500.292 193.667 476.882 188.594 472.911 184.848Z" fill="#FFBEB1"/>
<path d="M457.354 121.765C496.952 97.4656 512.289 113.327 515.289 123.452C450.604 135.265 460.728 159.45 466.915 162.262C486.714 168.112 479.102 191.886 476.478 197.698C457.916 228.635 417.98 295.232 406.731 314.131C378.607 257.884 427.542 199.948 434.855 188.699C442.167 177.449 450.604 166.2 447.229 156.638C441.042 138.638 448.354 127.389 457.354 121.765Z" fill="#0B0063"/>
<path fill-rule="evenodd" clip-rule="evenodd" d="M467.113 161.734C465.757 161.1 464.076 159.225 463.307 156.519C462.542 153.823 462.695 150.329 465.005 146.524C469.651 138.872 483.069 129.907 515.389 124.005L515.187 122.898C482.822 128.809 468.96 137.843 464.043 145.94C461.572 150.01 461.374 153.827 462.225 156.826C463.067 159.792 464.95 161.987 466.682 162.774L466.718 162.79L466.755 162.801C471.587 164.229 474.707 166.735 476.658 169.755C478.616 172.785 479.423 176.378 479.542 180.013C479.781 187.271 477.274 194.553 475.977 197.437C457.409 228.385 417.493 294.949 406.247 313.843L407.213 314.419C418.462 295.521 458.397 228.924 476.959 197.988L476.976 197.959L476.989 197.93C478.321 194.981 480.914 187.495 480.667 179.976C480.543 176.209 479.704 172.398 477.603 169.144C475.5 165.888 472.159 163.234 467.113 161.734Z" fill="#69467E"/>
<path fill-rule="evenodd" clip-rule="evenodd" d="M462.587 160.58C464.269 168.387 467.207 176.306 470.245 183.416L470.35 183.664L404.216 307.647L403.223 307.118L469.104 183.61C466.092 176.534 463.171 168.633 461.488 160.817C459.785 152.916 459.336 145.052 461.376 138.197C463.424 131.316 467.969 125.494 476.154 121.694C484.314 117.906 496.066 116.138 512.533 117.266L512.457 118.388C496.084 117.267 484.547 119.038 476.628 122.714C468.734 126.379 464.41 131.947 462.455 138.518C460.491 145.116 460.904 152.768 462.587 160.58Z" fill="#69467E"/>
<path fill-rule="evenodd" clip-rule="evenodd" d="M456.15 142.651C453.898 155.995 456.961 171.075 460.152 185.201L460.202 185.425L398.855 284.617L397.898 284.025L459.004 185.225C455.837 171.192 452.758 155.989 455.041 142.464C456.19 135.651 458.702 129.25 463.252 123.635C467.803 118.019 474.368 113.218 483.582 109.566L483.996 110.612C474.93 114.205 468.535 118.903 464.126 124.343C459.719 129.782 457.273 135.994 456.15 142.651Z" fill="#69467E"/>
<path fill-rule="evenodd" clip-rule="evenodd" d="M450.419 171.585C450.054 176.614 448.802 181.17 447.752 183.844L447.726 183.908L404.177 244.927L403.262 244.274L446.73 183.368C447.737 180.782 448.943 176.371 449.297 171.503C449.654 166.59 449.137 161.276 446.735 156.909L447.721 156.367C450.269 161 450.784 166.561 450.419 171.585Z" fill="#69467E"/>
<path d="M518.663 120.078C514.613 119.628 513.038 120.641 512.476 121.766C514.726 123.453 511.576 131.216 510.226 135.266C512.476 140.328 512.476 144.265 517.538 163.952C538.35 133.016 523.726 120.641 518.663 120.078Z" fill="#0B0063"/>
<path fill-rule="evenodd" clip-rule="evenodd" d="M518.665 159.486C517.768 145.591 514.557 136.945 513.113 134.418L514.09 133.859C515.645 136.582 518.884 145.41 519.787 159.414L518.665 159.486Z" fill="#69467E"/>
<path fill-rule="evenodd" clip-rule="evenodd" d="M523.18 152.564C526.693 138.512 517.709 130.643 512.81 128.465L513.267 127.438C518.493 129.76 527.958 138.091 524.271 152.837L523.18 152.564Z" fill="#69467E"/>
<path fill-rule="evenodd" clip-rule="evenodd" d="M521.831 127.121C519.398 124.781 516.559 124.016 514.726 124.016V122.891C516.831 122.891 519.954 123.756 522.611 126.31C525.28 128.876 527.434 133.102 527.663 139.746L526.538 139.784C526.318 133.379 524.253 129.449 521.831 127.121Z" fill="#69467E"/>
<path d="M513.039 120.078C515.289 121.765 511.576 131.216 510.226 135.266C500.102 135.266 490.54 145.952 481.54 154.952C472.541 163.952 450.604 174.076 442.167 169.014C433.73 163.952 439.354 157.414 442.167 156.077C475.915 135.265 482.103 129.641 490.54 121.766C497.29 115.466 508.539 117.453 513.039 120.078Z" fill="#0B0063"/>
<path fill-rule="evenodd" clip-rule="evenodd" d="M468.424 153.617C483.337 146.213 500.363 136.742 511.489 130.277L512.055 131.25C500.915 137.722 483.867 147.206 468.924 154.624C461.454 158.332 454.497 161.531 449.062 163.578C446.347 164.601 443.992 165.344 442.134 165.716C441.205 165.902 440.381 166 439.687 165.987C439.005 165.975 438.382 165.855 437.915 165.543L438.539 164.607C438.746 164.745 439.114 164.852 439.708 164.863C440.29 164.873 441.027 164.791 441.913 164.613C443.684 164.258 445.973 163.54 448.666 162.525C454.048 160.498 460.965 157.319 468.424 153.617Z" fill="#69467E"/>
<path fill-rule="evenodd" clip-rule="evenodd" d="M480.966 140.539C466.969 147.162 451.934 153.131 442.359 156.605L441.975 155.547C451.525 152.083 466.526 146.127 480.484 139.522C487.464 136.219 494.174 132.758 499.809 129.369C505.455 125.973 509.978 122.674 512.619 119.703L513.46 120.451C510.701 123.554 506.056 126.925 500.389 130.333C494.711 133.749 487.964 137.227 480.966 140.539Z" fill="#69467E"/>
<path fill-rule="evenodd" clip-rule="evenodd" d="M489.284 129.672C483.555 132.689 477.858 134.789 474.35 135.804L474.038 134.723C477.478 133.729 483.103 131.655 488.76 128.677C494.426 125.694 500.067 121.832 503.595 117.281L504.484 117.97C500.811 122.709 495.004 126.661 489.284 129.672Z" fill="#69467E"/>
<path d="M323.896 979.054L304.063 979.834C299.853 872.734 186.945 796.392 105.121 736.045C77.8485 715.926 38.6365 661.852 70.2391 623.531C115.482 568.669 201.189 586.611 269.496 639.538C357.194 714.485 342.304 897.11 323.896 979.054Z" fill="#CFD0FC"/>
<path d="M59.5562 667.551C64.691 695.625 87.4208 722.986 105.121 736.044C152.545 771.02 210.41 811.369 251.503 859.965C227.38 788.874 113.487 702.068 59.5562 667.551Z" fill="#E1E1FB"/>
<path d="M269.497 639.536C201.19 586.608 115.483 568.667 70.2401 623.528C145.191 603.333 303.6 615.844 337.626 827.445C335.122 755.371 317.999 680.986 269.497 639.536Z" fill="#B1AEFF"/>
<path fill-rule="evenodd" clip-rule="evenodd" d="M231.225 814.97C183.455 768.349 122.773 732.297 81.4637 713.37L81.9323 712.347C123.326 731.313 184.125 767.431 232.011 814.165C279.879 860.882 314.963 918.33 304.618 979.927L303.509 979.74C313.76 918.701 279.012 861.608 231.225 814.97Z" fill="white"/>
<path fill-rule="evenodd" clip-rule="evenodd" d="M233.305 786.494C179.943 737.19 112 703.612 65.7102 687.795L66.0739 686.73C112.472 702.585 180.564 736.232 234.068 785.667C287.574 835.104 326.564 900.404 314.534 979.526L313.422 979.357C325.374 900.749 286.665 835.796 233.305 786.494Z" fill="white"/>
<path fill-rule="evenodd" clip-rule="evenodd" d="M237.338 754.589C180.308 702.23 107.785 671.352 58.3979 658.965L58.6715 657.874C108.196 670.295 180.901 701.247 238.099 753.76C295.312 806.288 337.031 880.415 324.454 979.124L323.338 978.982C335.858 880.72 294.352 806.934 237.338 754.589Z" fill="white"/>
<path fill-rule="evenodd" clip-rule="evenodd" d="M239.597 717.601C183.792 671.517 115.719 639.464 70.0608 624.062L70.4204 622.996C116.175 638.43 184.379 670.542 240.313 716.734C296.238 762.917 340.001 823.265 336.621 895.168L335.498 895.115C338.853 823.735 295.412 763.694 239.597 717.601Z" fill="white"/>
<path fill-rule="evenodd" clip-rule="evenodd" d="M227.578 670.205C180.979 634.568 131.193 611.166 99.5935 600.535L99.9523 599.469C131.659 610.136 181.557 633.593 228.261 669.312C274.963 705.028 318.52 753.041 337.461 812.835L336.389 813.175C317.544 753.683 274.179 705.845 227.578 670.205Z" fill="white"/>
<path fill-rule="evenodd" clip-rule="evenodd" d="M239.295 645.35C205.067 618.159 170.682 599.543 149.493 590.731L149.925 589.692C171.21 598.544 205.685 617.213 239.995 644.469C274.304 671.724 308.481 707.591 329.124 750.85L328.109 751.334C307.564 708.283 273.525 672.542 239.295 645.35Z" fill="white"/>
<path d="M299.488 929.061L265.119 930.591C210.35 900.357 107.669 833.226 135.093 806.574C183.689 755.669 264.938 867.022 299.488 929.061Z" fill="#CFD0FC"/>
<path fill-rule="evenodd" clip-rule="evenodd" d="M279.184 930.242C238.216 865.421 181.286 830.149 158 820.634L158.425 819.592C181.906 829.188 239.03 864.603 280.135 929.641L279.184 930.242Z" fill="white"/>
<path d="M220.747 902.523C195.472 932.81 211.101 969.895 222.074 984.651C245.401 984.928 297.457 985.683 319.064 986.493C356.292 929.056 315.898 892.492 291.047 881.389L284.306 908.113C283.186 900.29 280.62 883.632 279.319 879.591C252.727 874.624 228.337 893.125 229.221 894.219C232.759 898.592 239.019 905.972 244.188 913.076C241.461 912.389 232.955 909.315 220.747 902.523Z" fill="#B2AEFE"/>
<path d="M220.747 902.524C195.472 932.811 211.101 969.896 222.074 984.653C222.914 984.663 223.791 984.673 224.702 984.684C203.725 948.259 213.325 914.734 220.747 902.524Z" fill="#D1CFFD"/>
<path d="M279.319 879.592C252.727 874.624 228.337 893.126 229.221 894.219C230.384 895.656 231.84 897.418 233.455 899.387C238.093 893.196 253.759 880.569 279.319 879.592Z" fill="#D1CFFD"/>
<path d="M319.065 986.494C356.293 929.057 315.898 892.493 291.047 881.391L287.677 894.753C305.135 903.314 335.854 933.648 319.065 986.494Z" fill="#9792FF"/>
<path fill-rule="evenodd" clip-rule="evenodd" d="M231.428 953.467L260.321 986.361L214.554 970.57L214.921 969.506L256.672 983.912L230.583 954.209L231.428 953.467Z" fill="white"/>
<path fill-rule="evenodd" clip-rule="evenodd" d="M280.115 982.874L240.969 914.99L241.943 914.428L281.089 982.312L280.115 982.874Z" fill="white"/>
<path fill-rule="evenodd" clip-rule="evenodd" d="M280.274 952.279C280.42 936.954 281.037 919.206 281.562 907.539L282.686 907.59C282.162 919.249 281.545 936.982 281.399 952.29C281.326 959.944 281.371 966.985 281.603 972.354C281.719 975.039 281.882 977.296 282.099 978.998C282.207 979.85 282.328 980.552 282.46 981.094C282.596 981.654 282.73 981.985 282.838 982.141L281.913 982.78C281.681 982.444 281.508 981.942 281.366 981.36C281.221 980.761 281.094 980.013 280.983 979.14C280.76 977.393 280.596 975.1 280.479 972.402C280.245 967.004 280.201 959.94 280.274 952.279Z" fill="white"/>
<path fill-rule="evenodd" clip-rule="evenodd" d="M258.401 944.499C239.117 942.916 221.883 930.028 215.664 923.783L216.462 922.989C222.586 929.139 239.585 941.825 258.493 943.378L258.401 944.499Z" fill="white"/>
<path fill-rule="evenodd" clip-rule="evenodd" d="M300.599 920.798C305.4 913.343 308.477 905.821 309.837 901.19L310.916 901.507C309.527 906.237 306.406 913.858 301.545 921.408C296.685 928.953 290.057 936.472 281.636 940.937L281.109 939.943C289.296 935.603 295.796 928.257 300.599 920.798Z" fill="white"/>
<path fill-rule="evenodd" clip-rule="evenodd" d="M297.784 985.764L310.303 936.133L311.394 936.408L298.875 986.039L297.784 985.764Z" fill="white"/>
<path fill-rule="evenodd" clip-rule="evenodd" d="M328.594 943.895L300.966 977.532L300.097 976.818L327.725 943.181L328.594 943.895Z" fill="white"/>
</svg>
