
<svg width="1500" height="1200" viewBox="0 0 1500 1200" fill="none" xmlns="http://www.w3.org/2000/svg">
<rect width="1500" height="1200" fill="white"/>
<g opacity="0.5">
<path fill-rule="evenodd" clip-rule="evenodd" d="M931.139 1137.33H362.695V1134.33H931.139V1137.33Z" fill="#FBB9AC"/>
<path d="M1092.56 457.918C1079.79 485.571 1057.33 491.598 1047.69 491.155C1048.35 490.158 1050.08 487.167 1055.66 477.86C1062.64 466.227 1088.24 457.918 1092.56 457.918Z" fill="#90B8EF"/>
<path fill-rule="evenodd" clip-rule="evenodd" d="M1067.5 470.197C1073.2 466.725 1079.6 463.165 1083.76 460.947L1084.07 461.534C1079.92 463.748 1073.53 467.301 1067.84 470.764C1065 472.496 1062.34 474.203 1060.23 475.708C1058.1 477.223 1056.56 478.503 1055.94 479.382L1055.39 478.995C1056.1 478.013 1057.72 476.673 1059.84 475.166C1061.97 473.649 1064.65 471.932 1067.5 470.197Z" fill="#90B8EF"/>
<path fill-rule="evenodd" clip-rule="evenodd" d="M1088.47 463.475C1075.4 476.281 1059.24 483.705 1052.78 485.822L1052.57 485.19C1058.96 483.098 1075.02 475.72 1088 463L1088.47 463.475Z" fill="#90B8EF"/>
<path d="M1001.82 552.311C1012.79 558.294 1040.51 559.889 1062.31 521.068C1052.34 528.381 1017.44 523.727 1001.82 552.311Z" fill="#90B8EF"/>
<path fill-rule="evenodd" clip-rule="evenodd" d="M1055.51 529.328C1038.68 539.744 1020.68 540.794 1013.75 540.011L1013.82 539.351C1020.63 540.12 1038.48 539.087 1055.16 528.763L1055.51 529.328Z" fill="#90B8EF"/>
<path fill-rule="evenodd" clip-rule="evenodd" d="M1025.56 548.274C1018.92 548.625 1012.9 547.656 1009.37 546.649L1009.56 546.01C1013.01 546.998 1018.96 547.957 1025.53 547.61C1032.09 547.263 1039.25 545.611 1045.17 541.406L1045.55 541.947C1039.5 546.251 1032.2 547.923 1025.56 548.274Z" fill="#90B8EF"/>
<path d="M1029.07 445.286C1014.98 484.639 1029.08 501.9 1037.72 505.778C1039.05 504.005 1042.1 499.795 1045.03 495.807C1046.03 482.844 1038.38 472.208 1033.4 465.561C1028.41 458.913 1029.07 453.595 1029.07 445.286Z" fill="#90B8EF"/>
<path fill-rule="evenodd" clip-rule="evenodd" d="M1036.32 487.12C1033.49 481.69 1030.55 472.676 1028.42 458.298L1029.07 458.201C1031.2 472.539 1034.13 481.473 1036.91 486.813C1038.3 489.482 1039.65 491.242 1040.83 492.33C1042.02 493.424 1043.02 493.813 1043.7 493.813V494.478C1042.78 494.478 1041.63 493.97 1040.38 492.82C1039.13 491.664 1037.73 489.835 1036.32 487.12Z" fill="#90B8EF"/>
<path fill-rule="evenodd" clip-rule="evenodd" d="M1026.04 477.732C1024.66 469.653 1025.53 461.529 1026.76 456.508L1027.4 456.666C1026.19 461.616 1025.33 469.646 1026.69 477.62C1028.05 485.593 1031.62 493.466 1039.22 498.184L1038.87 498.748C1031.05 493.894 1027.42 485.813 1026.04 477.732Z" fill="#90B8EF"/>
<path d="M1017.77 570.257C993.841 600.57 973.013 601.5 965.59 598.177C968.803 594.188 975.827 585.347 978.22 581.89C981.211 577.569 1010.46 570.922 1017.77 570.257Z" fill="#90B8EF"/>
<path fill-rule="evenodd" clip-rule="evenodd" d="M1013.97 571.859C998.765 582.531 982.07 586.757 975.599 587.538L975.52 586.878C981.9 586.108 998.487 581.914 1013.59 571.314L1013.97 571.859Z" fill="#90B8EF"/>
<path fill-rule="evenodd" clip-rule="evenodd" d="M985.732 592.793C979.303 594.812 973.064 595.846 969.275 596.181L969.217 595.519C972.961 595.188 979.153 594.162 985.532 592.159C991.917 590.154 998.454 587.181 1002.92 582.978L1003.38 583.462C998.802 587.766 992.154 590.777 985.732 592.793Z" fill="#90B8EF"/>
<path d="M1004.48 494.146C986.131 531.903 993.51 550.427 999.492 554.969C1002.15 552.311 1008.4 545.397 1012.12 539.016C1016.78 531.039 1011.46 521.4 1008.47 518.409C1005.48 515.417 1004.48 504.449 1004.48 494.146Z" fill="#90B8EF"/>
<path fill-rule="evenodd" clip-rule="evenodd" d="M1001.35 514.887C1001.31 509.302 1002.26 505.472 1003.18 503.635L1003.78 503.933C1002.92 505.641 1001.98 509.356 1002.02 514.883C1002.06 520.4 1003.07 527.705 1006.12 536.581L1005.49 536.797C1002.42 527.858 1001.39 520.482 1001.35 514.887Z" fill="#90B8EF"/>
<path fill-rule="evenodd" clip-rule="evenodd" d="M1000.51 546.11C994.094 528.205 997.826 513.242 1000.52 507.956L1001.12 508.258C998.498 513.387 994.784 528.16 1001.13 545.885L1000.51 546.11Z" fill="#90B8EF"/>
<path d="M975.228 550.316C960.338 575.576 966.365 587.652 971.24 590.533C974.453 586.434 981.211 577.77 982.541 575.909C983.538 569.261 980.214 565.605 977.888 563.611C975.561 561.617 975.893 555.966 975.228 550.316Z" fill="#90B8EF"/>
<path fill-rule="evenodd" clip-rule="evenodd" d="M970.137 568.856C970.704 563.228 972.646 557.789 974.266 554.493L974.863 554.786C973.27 558.027 971.356 563.389 970.799 568.923C970.241 574.464 971.048 580.104 974.804 583.989L974.326 584.451C970.37 580.36 969.571 574.478 970.137 568.856Z" fill="#90B8EF"/>
<path fill-rule="evenodd" clip-rule="evenodd" d="M972.296 568.318C972.529 564.589 973.639 561.337 974.601 559.47L975.192 559.775C974.27 561.564 973.186 564.727 972.96 568.36C972.733 571.989 973.362 576.065 975.836 579.71L975.286 580.084C972.708 576.284 972.063 572.051 972.296 568.318Z" fill="#90B8EF"/>
<path fill-rule="evenodd" clip-rule="evenodd" d="M999.776 556.106C971.411 591.281 940.498 629.615 919.28 670.43L917.506 669.507C938.823 628.502 969.87 590.003 998.22 554.849C1001.77 550.445 1005.28 546.093 1008.72 541.796C1024.2 522.476 1038.32 504.258 1048.93 487.248C1059.54 470.226 1066.57 454.513 1067.96 440.203L1069.95 440.397C1068.52 455.169 1061.29 471.198 1050.63 488.306C1039.95 505.427 1025.76 523.728 1010.28 543.046C1006.84 547.349 1003.33 551.703 999.776 556.106Z" fill="#808080"/>
<path d="M1068.63 443.625C1073.61 440.634 1083.72 426.342 1084.25 402.411C1080.92 405.402 1063.31 421.689 1068.63 443.625Z" fill="#C7DBF7"/>
<path fill-rule="evenodd" clip-rule="evenodd" d="M1069.96 440.585C1072.36 424.304 1079.85 410.451 1083.31 405.543L1083.85 405.926C1080.44 410.767 1073 424.523 1070.62 440.682L1069.96 440.585Z" fill="#C7DBF7"/>
<path fill-rule="evenodd" clip-rule="evenodd" d="M1081.5 420.247C1076.23 426.178 1072.93 434.431 1070.6 440.421L1069.98 440.18C1072.3 434.205 1075.64 425.839 1081.01 419.805L1081.5 420.247Z" fill="#C7DBF7"/>
<path fill-rule="evenodd" clip-rule="evenodd" d="M1070.99 431.271C1071.36 427.155 1071.73 422.603 1071.95 419.668L1072.61 419.718C1072.39 422.656 1072.03 427.211 1071.65 431.332C1071.27 435.439 1070.88 439.15 1070.61 440.373L1069.96 440.228C1070.22 439.058 1070.61 435.402 1070.99 431.271Z" fill="#C7DBF7"/>
<path d="M1092.56 528.974C1079.79 556.627 1057.32 562.654 1047.69 562.211C1048.35 561.214 1050.08 558.223 1055.66 548.916C1062.64 537.283 1088.23 528.974 1092.56 528.974Z" fill="#2172E0"/>
<path fill-rule="evenodd" clip-rule="evenodd" d="M1067.5 541.253C1073.2 537.781 1079.6 534.221 1083.76 532.003L1084.07 532.59C1079.92 534.804 1073.53 538.357 1067.84 541.82C1065 543.552 1062.34 545.26 1060.22 546.764C1058.09 548.279 1056.56 549.559 1055.93 550.438L1055.39 550.052C1056.09 549.069 1057.72 547.729 1059.84 546.222C1061.97 544.705 1064.65 542.989 1067.5 541.253Z" fill="#2172E0"/>
<path fill-rule="evenodd" clip-rule="evenodd" d="M1088.47 534.531C1075.4 547.337 1059.24 554.761 1052.78 556.878L1052.57 556.247C1058.96 554.154 1075.02 546.776 1088 534.056L1088.47 534.531Z" fill="#2172E0"/>
<path d="M1001.82 623.367C1012.79 629.35 1040.51 630.946 1062.31 592.125C1052.34 599.437 1017.44 594.783 1001.82 623.367Z" fill="#2172E0"/>
<path fill-rule="evenodd" clip-rule="evenodd" d="M1055.51 600.386C1038.68 610.802 1020.68 611.852 1013.75 611.07L1013.82 610.41C1020.63 611.178 1038.48 610.146 1055.16 599.821L1055.51 600.386Z" fill="#2172E0"/>
<path fill-rule="evenodd" clip-rule="evenodd" d="M1025.56 619.33C1018.92 619.681 1012.9 618.712 1009.37 617.706L1009.56 617.066C1013.01 618.054 1018.96 619.013 1025.53 618.666C1032.09 618.319 1039.25 616.667 1045.17 612.462L1045.55 613.004C1039.5 617.307 1032.2 618.979 1025.56 619.33Z" fill="#2172E0"/>
<path d="M1029.07 516.342C1014.98 555.695 1029.07 572.956 1037.72 576.834C1039.04 575.061 1042.1 570.851 1045.03 566.863C1046.02 553.9 1038.38 543.264 1033.39 536.617C1028.41 529.97 1029.07 524.652 1029.07 516.342Z" fill="#2172E0"/>
<path fill-rule="evenodd" clip-rule="evenodd" d="M1036.32 558.174C1033.49 552.744 1030.54 543.73 1028.41 529.352L1029.07 529.255C1031.2 543.594 1034.12 552.528 1036.91 557.867C1038.3 560.536 1039.65 562.296 1040.83 563.385C1042.02 564.478 1043.01 564.867 1043.7 564.867V565.532C1042.78 565.532 1041.63 565.024 1040.38 563.874C1039.12 562.719 1037.73 560.889 1036.32 558.174Z" fill="#2172E0"/>
<path fill-rule="evenodd" clip-rule="evenodd" d="M1026.04 548.786C1024.66 540.707 1025.53 532.584 1026.76 527.562L1027.4 527.72C1026.19 532.67 1025.33 540.7 1026.69 548.675C1028.05 556.648 1031.62 564.52 1039.22 569.238L1038.87 569.803C1031.05 564.948 1027.41 556.867 1026.04 548.786Z" fill="#2172E0"/>
<path d="M1017.77 641.315C993.841 671.628 973.013 672.558 965.59 669.235C968.803 665.246 975.827 656.405 978.22 652.948C981.211 648.628 1010.46 641.98 1017.77 641.315Z" fill="#90B8EF"/>
<path fill-rule="evenodd" clip-rule="evenodd" d="M1013.97 642.917C998.767 653.589 982.072 657.816 975.601 658.597L975.521 657.937C981.902 657.167 998.489 652.973 1013.59 642.373L1013.97 642.917Z" fill="#90B8EF"/>
<path fill-rule="evenodd" clip-rule="evenodd" d="M985.733 663.851C979.305 665.87 973.066 666.905 969.277 667.239L969.219 666.577C972.963 666.246 979.155 665.22 985.534 663.217C991.919 661.212 998.455 658.239 1002.92 654.036L1003.38 654.52C998.804 658.825 992.156 661.835 985.733 663.851Z" fill="#90B8EF"/>
<path d="M1004.48 565.202C986.131 602.959 993.51 621.483 999.492 626.026C1002.15 623.367 1008.4 616.453 1012.12 610.072C1016.78 602.095 1011.46 592.456 1008.47 589.465C1005.48 586.473 1004.48 575.505 1004.48 565.202Z" fill="#90B8EF"/>
<path fill-rule="evenodd" clip-rule="evenodd" d="M1001.35 585.946C1001.31 580.36 1002.26 576.53 1003.18 574.694L1003.78 574.991C1002.92 576.7 1001.98 580.415 1002.02 585.941C1002.06 591.459 1003.07 598.763 1006.12 607.639L1005.49 607.855C1002.42 598.916 1001.39 591.541 1001.35 585.946Z" fill="#90B8EF"/>
<path fill-rule="evenodd" clip-rule="evenodd" d="M1000.51 617.166C994.094 599.261 997.826 584.298 1000.52 579.012L1001.12 579.315C998.498 584.443 994.784 599.216 1001.13 616.942L1000.51 617.166Z" fill="#90B8EF"/>
<path d="M975.228 621.372C960.338 646.632 966.365 658.708 971.24 661.589C974.453 657.49 981.211 648.826 982.541 646.965C983.538 640.317 980.214 636.661 977.888 634.667C975.561 632.673 975.893 627.022 975.228 621.372Z" fill="#90B8EF"/>
<path fill-rule="evenodd" clip-rule="evenodd" d="M970.137 639.913C970.704 634.284 972.646 628.845 974.266 625.549L974.863 625.842C973.27 629.083 971.356 634.446 970.799 639.979C970.241 645.52 971.048 651.16 974.804 655.046L974.326 655.508C970.37 651.416 969.571 645.534 970.137 639.913Z" fill="#90B8EF"/>
<path fill-rule="evenodd" clip-rule="evenodd" d="M972.296 639.377C972.529 635.647 973.639 632.395 974.601 630.529L975.192 630.833C974.27 632.623 973.186 635.786 972.96 639.418C972.733 643.047 973.362 647.123 975.836 650.769L975.286 651.142C972.708 647.343 972.063 643.11 972.296 639.377Z" fill="#90B8EF"/>
<path fill-rule="evenodd" clip-rule="evenodd" d="M999.776 627.162C971.411 662.337 940.498 700.671 919.28 741.486L917.506 740.563C938.823 699.558 969.87 661.059 998.22 625.905C1001.77 621.501 1005.28 617.149 1008.72 612.852C1024.2 593.532 1038.32 575.314 1048.93 558.304C1059.54 541.282 1066.57 525.569 1067.96 511.259L1069.95 511.453C1068.52 526.225 1061.29 542.254 1050.63 559.362C1039.95 576.483 1025.76 594.784 1010.28 614.102C1006.84 618.405 1003.33 622.759 999.776 627.162Z" fill="#000100"/>
<path d="M1068.62 514.681C1073.61 511.69 1083.71 497.398 1084.25 473.467C1080.92 476.459 1063.31 492.745 1068.62 514.681Z" fill="#90B8EF"/>
<path fill-rule="evenodd" clip-rule="evenodd" d="M1069.96 511.641C1072.36 495.36 1079.85 481.508 1083.31 476.599L1083.85 476.982C1080.44 481.823 1073 495.58 1070.61 511.738L1069.96 511.641Z" fill="#90B8EF"/>
<path fill-rule="evenodd" clip-rule="evenodd" d="M1081.5 491.303C1076.23 497.235 1072.92 505.488 1070.59 511.478L1069.97 511.237C1072.3 505.261 1075.64 496.896 1081 490.862L1081.5 491.303Z" fill="#90B8EF"/>
<path fill-rule="evenodd" clip-rule="evenodd" d="M1070.98 502.329C1071.36 498.213 1071.72 493.661 1071.95 490.727L1072.61 490.777C1072.39 493.714 1072.02 498.269 1071.64 502.39C1071.27 506.497 1070.88 510.208 1070.61 511.431L1069.96 511.287C1070.22 510.116 1070.61 506.46 1070.98 502.329Z" fill="#90B8EF"/>
<path d="M1129.02 582.114C1112.66 614.75 1083.85 621.864 1071.49 621.341C1072.34 620.164 1074.56 616.633 1081.72 605.65C1090.67 591.92 1123.48 582.114 1129.02 582.114Z" fill="#C1D8FC"/>
<path fill-rule="evenodd" clip-rule="evenodd" d="M1096.89 596.605C1104.2 592.507 1112.41 588.306 1117.74 585.688L1118.14 586.381C1112.82 588.993 1104.62 593.187 1097.34 597.275C1093.69 599.319 1090.28 601.333 1087.57 603.109C1084.83 604.897 1082.87 606.408 1082.06 607.445L1081.37 606.989C1082.27 605.829 1084.35 604.248 1087.07 602.47C1089.81 600.679 1093.24 598.653 1096.89 596.605Z" fill="#C1D8FC"/>
<path fill-rule="evenodd" clip-rule="evenodd" d="M1123.78 588.671C1107.02 603.785 1086.3 612.547 1078.02 615.046L1077.75 614.3C1085.94 611.83 1106.54 603.123 1123.19 588.111L1123.78 588.671Z" fill="#C1D8FC"/>
<path d="M1012.67 693.517C1026.74 700.578 1062.28 702.46 1090.24 656.644C1077.45 665.273 1032.7 659.782 1012.67 693.517Z" fill="#FDCF9F"/>
<path fill-rule="evenodd" clip-rule="evenodd" d="M1081.51 666.395C1059.94 678.687 1036.85 679.927 1027.97 679.003L1028.06 678.224C1036.79 679.131 1059.68 677.912 1081.06 665.728L1081.51 666.395Z" fill="#FDCF9F"/>
<path fill-rule="evenodd" clip-rule="evenodd" d="M1043.12 688.75C1034.6 689.164 1026.88 688.021 1022.36 686.833L1022.59 686.079C1027.02 687.244 1034.65 688.376 1043.07 687.967C1051.49 687.557 1060.67 685.608 1068.26 680.645L1068.75 681.284C1060.99 686.363 1051.63 688.336 1043.12 688.75Z" fill="#FDCF9F"/>
<path d="M1047.62 567.208C1029.55 613.652 1047.62 634.024 1058.7 638.601C1060.41 636.509 1064.33 631.54 1068.08 626.833C1069.36 611.534 1059.55 598.982 1053.16 591.136C1046.77 583.291 1047.62 577.015 1047.62 567.208Z" fill="#90B8EF"/>
<path fill-rule="evenodd" clip-rule="evenodd" d="M1056.91 616.579C1053.28 610.171 1049.51 599.532 1046.78 582.563L1047.62 582.448C1050.34 599.371 1054.1 609.915 1057.66 616.216C1059.45 619.367 1061.18 621.444 1062.7 622.728C1064.22 624.019 1065.5 624.478 1066.37 624.478V625.263C1065.19 625.263 1063.72 624.663 1062.12 623.306C1060.51 621.942 1058.72 619.783 1056.91 616.579Z" fill="#90B8EF"/>
<path fill-rule="evenodd" clip-rule="evenodd" d="M1043.73 605.499C1041.96 595.964 1043.08 586.377 1044.65 580.451L1045.48 580.637C1043.93 586.479 1042.83 595.956 1044.57 605.367C1046.31 614.777 1050.89 624.068 1060.63 629.636L1060.18 630.303C1050.15 624.574 1045.49 615.036 1043.73 605.499Z" fill="#90B8EF"/>
<path d="M1033.13 714.699C1002.45 750.474 975.741 751.572 966.223 747.65C970.342 742.942 979.349 732.508 982.417 728.429C986.253 723.329 1023.76 715.484 1033.13 714.699Z" fill="#90B8EF"/>
<path fill-rule="evenodd" clip-rule="evenodd" d="M1028.26 716.588C1008.76 729.184 987.355 734.172 979.057 735.093L978.955 734.315C987.136 733.406 1008.4 728.456 1027.77 715.946L1028.26 716.588Z" fill="#90B8EF"/>
<path fill-rule="evenodd" clip-rule="evenodd" d="M992.051 741.295C983.808 743.677 975.808 744.898 970.95 745.293L970.875 744.512C975.676 744.122 983.616 742.911 991.795 740.546C999.982 738.18 1008.36 734.672 1014.09 729.71L1014.67 730.282C1008.81 735.362 1000.29 738.915 992.051 741.295Z" fill="#90B8EF"/>
<path d="M1016.08 624.872C992.558 669.433 1002.02 691.296 1009.69 696.657C1013.1 693.518 1021.11 685.359 1025.88 677.828C1031.85 668.413 1025.03 657.038 1021.2 653.507C1017.36 649.977 1016.08 637.032 1016.08 624.872Z" fill="#90B8EF"/>
<path fill-rule="evenodd" clip-rule="evenodd" d="M1012.08 649.354C1012.03 642.762 1013.25 638.242 1014.42 636.074L1015.19 636.425C1014.09 638.442 1012.88 642.826 1012.93 649.349C1012.98 655.861 1014.28 664.481 1018.19 674.957L1017.39 675.211C1013.45 664.662 1012.13 655.957 1012.08 649.354Z" fill="#90B8EF"/>
<path fill-rule="evenodd" clip-rule="evenodd" d="M1010.99 686.201C1002.77 665.07 1007.55 647.41 1011.02 641.171L1011.77 641.528C1008.42 647.581 1003.65 665.016 1011.8 685.936L1010.99 686.201Z" fill="#90B8EF"/>
<path d="M978.582 691.164C959.489 720.976 967.217 735.228 973.468 738.628C977.587 733.79 986.253 723.565 987.958 721.368C989.237 713.523 984.975 709.208 981.992 706.854C979.008 704.501 979.435 697.832 978.582 691.164Z" fill="#90B8EF"/>
<path fill-rule="evenodd" clip-rule="evenodd" d="M972.052 713.045C972.78 706.402 975.269 699.983 977.347 696.093L978.112 696.439C976.069 700.264 973.615 706.593 972.9 713.124C972.185 719.663 973.22 726.32 978.035 730.905L977.423 731.45C972.351 726.621 971.326 719.679 972.052 713.045Z" fill="#90B8EF"/>
<path fill-rule="evenodd" clip-rule="evenodd" d="M974.82 712.411C975.119 708.009 976.543 704.172 977.775 701.969L978.533 702.328C977.351 704.44 975.962 708.173 975.671 712.46C975.38 716.743 976.187 721.554 979.359 725.856L978.654 726.297C975.348 721.813 974.521 716.817 974.82 712.411Z" fill="#90B8EF"/>
<path fill-rule="evenodd" clip-rule="evenodd" d="M1009.81 697.916C973.441 739.429 933.791 784.686 906.575 832.872L904.834 831.888C932.158 783.509 971.955 738.088 1008.31 696.598C1012.86 691.4 1017.36 686.263 1021.78 681.191C1041.62 658.389 1059.74 636.88 1073.34 616.795C1086.96 596.695 1095.98 578.131 1097.77 561.218L1099.76 561.428C1097.92 578.839 1088.67 597.736 1075 617.917C1061.32 638.113 1043.13 659.704 1023.28 682.504C1018.87 687.582 1014.36 692.72 1009.81 697.916Z" fill="#808080"/>
<path d="M1098.33 565.247C1104.73 561.716 1117.68 544.849 1118.36 516.605C1114.1 520.136 1091.52 539.357 1098.33 565.247Z" fill="#C7DBF7"/>
<path fill-rule="evenodd" clip-rule="evenodd" d="M1100.04 561.658C1103.12 542.443 1112.73 526.094 1117.17 520.301L1117.86 520.753C1113.49 526.467 1103.95 542.702 1100.89 561.773L1100.04 561.658Z" fill="#C7DBF7"/>
<path fill-rule="evenodd" clip-rule="evenodd" d="M1114.85 537.655C1108.09 544.656 1103.85 554.396 1100.86 561.465L1100.07 561.181C1103.05 554.129 1107.33 544.256 1114.21 537.134L1114.85 537.655Z" fill="#C7DBF7"/>
<path fill-rule="evenodd" clip-rule="evenodd" d="M1101.36 550.666C1101.84 545.808 1102.31 540.436 1102.59 536.973L1103.44 537.032C1103.16 540.498 1102.69 545.874 1102.21 550.738C1101.73 555.585 1101.23 559.965 1100.88 561.408L1100.05 561.238C1100.38 559.856 1100.88 555.541 1101.36 550.666Z" fill="#C7DBF7"/>
<path d="M1009.26 835.259C1027.44 902.531 960.541 897.611 928.545 899.162C911.175 873.238 882.006 830.606 874.483 768.12C865.08 690.013 991.237 692.006 1026.5 656.443C1054.71 627.992 1087.36 628.856 1100.16 632.844C1089.97 640.821 1076.57 663.821 1104.46 692.006C1139.33 727.238 1110.34 747.512 1105.64 751.169C1100.94 754.825 1080.96 766.79 1089.97 778.091C1098.98 789.391 1085.27 795.042 1077.43 796.039C1069.6 797.036 1054.71 803.018 1009.26 835.259Z" fill="#97C1FD"/>
<path d="M1009.26 835.259C1027.44 902.531 958.638 897.611 926.642 899.162C909.272 873.238 882.006 830.606 874.483 768.12C865.08 690.013 991.237 692.006 1026.5 656.443C1054.71 627.992 1087.36 628.856 1100.16 632.844C1096.48 635.721 1092.39 640.551 1089.97 646.874C1064.76 658.816 1013.33 687.021 1009.26 704.305C1004.17 725.909 977.916 763.799 947.356 773.106C928.159 778.091 995.155 813.987 1021.41 796.039C1042.41 781.68 1067.51 790.056 1077.43 796.039C1069.6 797.036 1054.71 803.018 1009.26 835.259Z" fill="#83B2FA"/>
<path fill-rule="evenodd" clip-rule="evenodd" d="M1097.96 632.825C1098.15 633.342 1097.89 633.918 1097.37 634.112C1090.77 636.591 1074.97 646.064 1065.38 663.895C1064.52 665.511 1063.06 668.943 1061.05 673.686C1060.44 675.131 1059.77 676.698 1059.06 678.372C1056.01 685.498 1052.08 694.48 1047.4 704.037C1038.05 723.123 1025.63 744.619 1011.12 758.213C1007.41 761.69 1003.41 765.375 999.289 769.178C988.799 778.853 977.474 789.298 967.855 799.066C961.157 805.869 955.319 812.311 951.186 817.904C949.119 820.701 947.496 823.263 946.405 825.533C945.307 827.817 944.788 829.726 944.831 831.241C944.846 831.794 944.411 832.254 943.859 832.269C943.307 832.285 942.847 831.85 942.831 831.298C942.776 829.323 943.444 827.077 944.602 824.667C945.767 822.242 947.469 819.569 949.577 816.716C953.794 811.009 959.71 804.488 966.43 797.663C976.085 787.858 987.469 777.359 997.972 767.672C1002.09 763.877 1006.07 760.208 1009.75 756.753C1023.98 743.425 1036.27 722.211 1045.6 703.157C1050.27 693.645 1054.18 684.7 1057.22 677.586C1057.91 675.962 1058.56 674.428 1059.17 673.002C1061.19 668.221 1062.71 664.653 1063.62 662.948C1073.47 644.617 1089.69 634.857 1096.67 632.24C1097.19 632.046 1097.76 632.308 1097.96 632.825Z" fill="#99AFB9"/>
<path fill-rule="evenodd" clip-rule="evenodd" d="M1025.62 723.956C1026.15 724.12 1026.44 724.681 1026.28 725.208C1025.7 727.066 1024.92 729.951 1024.62 732.775C1024.48 734.186 1024.46 735.548 1024.63 736.74C1024.8 737.937 1025.16 738.894 1025.71 739.567C1026.06 739.995 1025.99 740.625 1025.56 740.974C1025.14 741.323 1024.51 741.26 1024.16 740.832C1023.3 739.777 1022.85 738.429 1022.65 737.025C1022.44 735.614 1022.48 734.076 1022.63 732.568C1022.95 729.553 1023.77 726.522 1024.37 724.613C1024.53 724.085 1025.09 723.791 1025.62 723.956Z" fill="#99AFB9"/>
<path fill-rule="evenodd" clip-rule="evenodd" d="M1064.79 745.779C1065.19 746.153 1065.22 746.786 1064.85 747.192C1054.65 758.275 1040.69 764.994 1027.44 768.904C1014.19 772.815 1001.57 773.941 993.958 773.772C993.406 773.76 992.968 773.303 992.981 772.75C992.993 772.198 993.45 771.761 994.003 771.773C1001.41 771.937 1013.83 770.836 1026.87 766.986C1039.92 763.134 1053.51 756.559 1063.38 745.838C1063.75 745.432 1064.38 745.405 1064.79 745.779Z" fill="#99AFB9"/>
<g opacity="0.8">
<path d="M419.737 574.974C461.483 787.691 530.195 836.882 559.333 834.888C582.71 829.127 630.062 813.085 632.455 795.004C636.15 767.084 536.228 691.304 488.87 650.422C453.639 620.009 426.385 584.28 419.737 574.974Z" fill="#CBE0FE"/>
<path fill-rule="evenodd" clip-rule="evenodd" d="M505.588 786.928C516.021 801.808 526.283 812.55 535.591 816.91L535.873 816.308C526.734 812.027 516.556 801.413 506.132 786.546C495.718 771.693 485.091 752.64 475.042 731.545C454.943 689.354 437.17 639.023 428.036 597.836L427.387 597.98C436.533 639.222 454.324 689.6 474.442 731.831C484.501 752.947 495.146 772.034 505.588 786.928Z" fill="#CBE0FE"/>
<path fill-rule="evenodd" clip-rule="evenodd" d="M480.509 713.731C464.576 687.973 441.321 628.158 431.68 601.451L431.055 601.677C440.691 628.371 463.968 688.254 479.944 714.08C482.052 717.49 484.08 720.799 486.053 724.021C502.734 751.251 515.564 772.195 541.167 793.928L541.598 793.421C516.079 771.76 503.303 750.905 486.618 723.671C484.646 720.45 482.618 717.141 480.509 713.731Z" fill="#CBE0FE"/>
<path fill-rule="evenodd" clip-rule="evenodd" d="M433.717 603.011C438.046 614.333 453.344 648.318 479.94 693.798C506.558 739.315 543.156 771.102 558.147 781.318L558.521 780.769C543.6 770.6 507.075 738.882 480.514 693.462C453.931 648.005 438.651 614.053 434.338 602.774L433.717 603.011Z" fill="#CBE0FE"/>
<path fill-rule="evenodd" clip-rule="evenodd" d="M519.348 711.343C469.642 661.371 449.053 624.1 444.977 611.762L444.346 611.971C448.468 624.449 469.138 661.807 518.877 711.812L518.878 711.814C561.954 754.623 583.36 775.52 588.681 780.619L589.141 780.139C583.825 775.045 562.423 754.152 519.348 711.343Z" fill="#CBE0FE"/>
<path fill-rule="evenodd" clip-rule="evenodd" d="M427.465 591.481C446.301 612.534 486.492 657.621 496.592 669.581C503.625 677.91 521.869 695.238 542.1 713.859C559.155 729.555 577.638 746.186 592.048 759.151C594.739 761.573 597.288 763.866 599.659 766.002L600.104 765.508C597.732 763.372 595.183 761.078 592.492 758.657C578.082 745.691 559.602 729.063 542.55 713.369C522.307 694.737 504.1 677.442 497.1 669.153C486.992 657.183 446.793 612.086 427.96 591.038L427.465 591.481Z" fill="#CBE0FE"/>
<path d="M488.869 650.421C453.638 620.008 426.383 584.28 419.736 574.973C421.257 582.722 422.813 590.254 424.402 597.574C432.656 607.413 470.819 636.905 488.869 650.421Z" fill="#90B8EF"/>
<path d="M559.333 834.889C582.71 829.128 630.062 813.085 632.455 795.004C634.511 779.472 604.496 749.126 569.304 718.217C582.156 734.728 603.937 774.729 594.897 774.729C583.596 774.729 525.763 765.755 538.726 801.984C542.05 809.296 533.076 819.94 508.148 803.816C528.803 827.926 547.392 835.706 559.333 834.889Z" fill="#CBE0FE"/>
</g>
<path d="M371.52 639.684C413.266 852.401 481.979 901.592 511.116 899.598C534.493 893.837 581.845 877.795 584.238 859.714C587.933 831.794 488.012 756.014 440.654 715.132C405.422 684.719 378.168 648.99 371.52 639.684Z" fill="#C1D8FC"/>
<path fill-rule="evenodd" clip-rule="evenodd" d="M457.373 851.637C467.806 866.518 478.069 877.259 487.376 881.619L487.658 881.017C478.519 876.736 468.341 866.122 457.917 851.256C447.503 836.402 436.876 817.35 426.827 796.254C406.728 754.063 388.955 703.732 379.821 662.546L379.172 662.69C388.318 703.931 406.109 754.309 426.227 796.54C436.286 817.656 446.931 836.744 457.373 851.637Z" fill="#FBB9AC"/>
<path fill-rule="evenodd" clip-rule="evenodd" d="M432.294 778.443C416.362 752.685 393.107 692.87 383.465 666.163L382.84 666.389C392.477 693.083 415.753 752.966 431.729 778.792C433.837 782.202 435.865 785.511 437.838 788.733C454.519 815.963 467.349 836.907 492.953 858.64L493.383 858.133C467.864 836.472 455.088 815.617 438.404 788.383C436.431 785.162 434.404 781.853 432.294 778.443Z" fill="#FBB9AC"/>
<path fill-rule="evenodd" clip-rule="evenodd" d="M385.5 667.723C389.829 679.045 405.127 713.03 431.723 758.51C458.341 804.027 494.939 835.814 509.93 846.03L510.305 845.481C495.383 835.312 458.859 803.594 432.297 758.174C405.714 712.717 390.434 678.765 386.121 667.486L385.5 667.723Z" fill="#FBB9AC"/>
<path fill-rule="evenodd" clip-rule="evenodd" d="M471.133 776.055C421.427 726.083 400.838 688.812 396.762 676.474L396.131 676.683C400.253 689.161 420.923 726.519 470.662 776.524L470.663 776.526C513.739 819.335 535.145 840.232 540.466 845.331L540.926 844.851C535.61 839.757 514.208 818.864 471.133 776.055Z" fill="#FBB9AC"/>
<path fill-rule="evenodd" clip-rule="evenodd" d="M379.248 656.19C398.084 677.243 438.275 722.33 448.375 734.29C455.408 742.619 473.652 759.947 493.884 778.568C510.938 794.264 529.421 810.895 543.831 823.86C546.522 826.282 549.071 828.575 551.442 830.711L551.887 830.217C549.515 828.081 546.966 825.787 544.275 823.366C529.865 810.4 511.385 793.772 494.334 778.078C474.09 759.446 455.883 742.151 448.883 733.862C438.775 721.892 398.576 676.795 379.743 655.747L379.248 656.19Z" fill="#FBB9AC"/>
<path d="M440.654 715.132C405.423 684.719 378.168 648.99 371.521 639.684C373.042 647.433 374.598 654.965 376.187 662.285C384.441 672.124 422.604 701.616 440.654 715.132Z" fill="#FEE7CF"/>
<path d="M511.116 899.6C534.493 893.839 581.845 877.796 584.238 859.715C586.294 844.183 556.279 813.837 521.087 782.928C533.939 799.439 555.72 839.44 546.68 839.44C535.379 839.44 477.547 830.466 490.509 866.695C493.833 874.007 484.859 884.651 459.931 868.527C480.586 892.637 499.175 900.417 511.116 899.6Z" fill="#99AFB9"/>
<path d="M388.015 646.972C400.778 674.625 423.246 680.652 432.885 680.209C432.22 679.212 430.492 676.221 424.908 666.914C417.928 655.281 392.335 646.972 388.015 646.972Z" fill="#90B8EF"/>
<path fill-rule="evenodd" clip-rule="evenodd" d="M413.073 659.251C407.375 655.779 400.971 652.219 396.812 650.001L396.499 650.588C400.65 652.802 407.042 656.355 412.727 659.819C415.57 661.55 418.232 663.258 420.347 664.762C422.477 666.277 424.009 667.557 424.637 668.436L425.178 668.05C424.476 667.067 422.851 665.727 420.732 664.22C418.599 662.703 415.922 660.987 413.073 659.251Z" fill="#90B8EF"/>
<path fill-rule="evenodd" clip-rule="evenodd" d="M392.102 652.527C405.175 665.333 421.332 672.757 427.795 674.874L428.002 674.242C421.613 672.149 405.552 664.772 392.567 652.052L392.102 652.527Z" fill="#90B8EF"/>
<path d="M478.752 741.365C467.784 747.348 440.064 748.944 418.26 710.123C428.231 717.435 463.13 712.782 478.752 741.365Z" fill="#90B8EF"/>
<path fill-rule="evenodd" clip-rule="evenodd" d="M425.064 718.382C441.889 728.798 459.892 729.848 466.822 729.066L466.748 728.405C459.94 729.174 442.091 728.141 425.413 717.817L425.064 718.382Z" fill="#90B8EF"/>
<path fill-rule="evenodd" clip-rule="evenodd" d="M455.01 737.326C461.654 737.677 467.674 736.708 471.197 735.701L471.015 735.062C467.559 736.049 461.613 737.009 455.045 736.662C448.477 736.315 441.316 734.663 435.402 730.458L435.017 730.999C441.069 735.302 448.366 736.975 455.01 737.326Z" fill="#90B8EF"/>
<path d="M451.497 634.34C465.59 673.693 451.497 690.954 442.855 694.832C441.526 693.059 438.469 688.849 435.544 684.861C434.547 671.898 442.191 661.262 447.177 654.615C452.162 647.968 451.497 642.65 451.497 634.34Z" fill="#90B8EF"/>
<path fill-rule="evenodd" clip-rule="evenodd" d="M444.255 676.172C447.085 670.742 450.028 661.728 452.158 647.35L451.501 647.252C449.376 661.591 446.448 670.525 443.666 675.864C442.275 678.534 440.926 680.294 439.742 681.382C438.552 682.476 437.559 682.865 436.873 682.865V683.53C437.793 683.53 438.941 683.021 440.192 681.872C441.449 680.716 442.841 678.886 444.255 676.172Z" fill="#90B8EF"/>
<path fill-rule="evenodd" clip-rule="evenodd" d="M454.536 666.784C455.913 658.705 455.044 650.582 453.817 645.561L453.171 645.718C454.381 650.668 455.24 658.699 453.881 666.673C452.522 674.646 448.954 682.518 441.353 687.236L441.704 687.801C449.525 682.946 453.159 674.865 454.536 666.784Z" fill="#90B8EF"/>
<path d="M462.798 759.313C486.729 789.626 507.558 790.556 514.98 787.233C511.768 783.244 504.743 774.403 502.35 770.946C499.359 766.626 470.11 759.978 462.798 759.313Z" fill="#90B8EF"/>
<path fill-rule="evenodd" clip-rule="evenodd" d="M466.595 760.915C481.803 771.587 498.498 775.814 504.969 776.595L505.049 775.935C498.668 775.165 482.082 770.971 466.977 760.371L466.595 760.915Z" fill="#90B8EF"/>
<path fill-rule="evenodd" clip-rule="evenodd" d="M494.837 781.849C501.265 783.868 507.504 784.903 511.293 785.237L511.352 784.575C507.607 784.244 501.415 783.218 495.036 781.215C488.651 779.21 482.115 776.238 477.648 772.034L477.193 772.518C481.767 776.823 488.415 779.833 494.837 781.849Z" fill="#90B8EF"/>
<path d="M476.092 683.2C494.439 720.957 487.061 739.481 481.078 744.024C478.419 741.365 472.17 734.451 468.448 728.07C463.795 720.093 469.112 710.454 472.104 707.463C475.095 704.471 476.092 693.503 476.092 683.2Z" fill="#90B8EF"/>
<path fill-rule="evenodd" clip-rule="evenodd" d="M479.218 703.944C479.257 698.359 478.306 694.528 477.388 692.692L476.793 692.989C477.648 694.698 478.591 698.413 478.553 703.939C478.514 709.457 477.496 716.761 474.449 725.637L475.078 725.853C478.147 716.914 479.179 709.539 479.218 703.944Z" fill="#90B8EF"/>
<path fill-rule="evenodd" clip-rule="evenodd" d="M480.062 735.164C486.476 717.26 482.745 702.296 480.046 697.01L479.454 697.313C482.072 702.441 485.786 717.214 479.437 734.94L480.062 735.164Z" fill="#90B8EF"/>
<path d="M505.342 739.37C520.232 764.63 514.205 776.707 509.331 779.587C506.118 775.488 499.359 766.824 498.03 764.963C497.032 758.315 500.356 754.659 502.683 752.665C505.009 750.671 504.677 745.02 505.342 739.37Z" fill="#90B8EF"/>
<path fill-rule="evenodd" clip-rule="evenodd" d="M510.433 757.909C509.866 752.28 507.924 746.841 506.304 743.545L505.707 743.838C507.3 747.079 509.214 752.442 509.772 757.975C510.33 763.516 509.523 769.156 505.767 773.042L506.245 773.504C510.2 769.412 510.999 763.53 510.433 757.909Z" fill="#90B8EF"/>
<path fill-rule="evenodd" clip-rule="evenodd" d="M508.274 757.372C508.041 753.643 506.931 750.391 505.969 748.524L505.379 748.829C506.3 750.618 507.384 753.781 507.611 757.414C507.837 761.043 507.208 765.119 504.734 768.765L505.284 769.138C507.862 765.339 508.507 761.105 508.274 757.372Z" fill="#90B8EF"/>
<path fill-rule="evenodd" clip-rule="evenodd" d="M480.794 745.16C509.159 780.335 540.072 818.669 561.29 859.484L563.064 858.561C541.748 817.556 510.7 779.057 482.35 743.904C478.798 739.499 475.289 735.148 471.846 730.85C456.37 711.53 442.247 693.312 431.64 676.302C421.026 659.28 413.998 643.567 412.608 629.257L410.618 629.451C412.053 644.223 419.275 660.252 429.943 677.36C440.619 694.481 454.81 712.782 470.285 732.1C473.732 736.403 477.243 740.757 480.794 745.16Z" fill="#808080"/>
<path d="M411.946 632.679C406.961 629.688 396.857 615.396 396.325 591.465C399.649 594.457 417.264 610.743 411.946 632.679Z" fill="#C7DBF7"/>
<path fill-rule="evenodd" clip-rule="evenodd" d="M410.615 629.639C408.213 613.358 400.721 599.506 397.263 594.597L396.72 594.98C400.131 599.821 407.574 613.578 409.958 629.736L410.615 629.639Z" fill="#C7DBF7"/>
<path fill-rule="evenodd" clip-rule="evenodd" d="M399.069 609.301C404.342 615.232 407.647 623.485 409.976 629.475L410.596 629.234C408.272 623.259 404.93 614.893 399.566 608.859L399.069 609.301Z" fill="#C7DBF7"/>
<path fill-rule="evenodd" clip-rule="evenodd" d="M409.588 620.325C409.211 616.209 408.846 611.657 408.624 608.722L407.961 608.772C408.183 611.709 408.549 616.265 408.926 620.386C409.301 624.492 409.691 628.204 409.962 629.426L410.611 629.282C410.351 628.112 409.965 624.455 409.588 620.325Z" fill="#C7DBF7"/>
</g>
<path d="M958.998 84.5517C958.998 70.1923 947.357 58.5518 932.998 58.5518H528.213C513.854 58.5518 502.213 70.1924 502.213 84.5518V877.604C502.213 891.963 513.854 903.604 528.213 903.604H932.998C947.357 903.604 958.998 891.963 958.998 877.604V84.5517Z" fill="#5077FA"/>
<path d="M952.652 95.9712C952.652 81.6118 941.012 69.9712 926.652 69.9712H534.556C520.197 69.9712 508.556 81.6118 508.556 95.9712V866.184C508.556 880.543 520.197 892.184 534.556 892.184H926.652C941.012 892.184 952.652 880.543 952.652 866.184V95.9712Z" fill="white"/>
<path d="M806.734 58.5518H653.204V64.5845C653.204 71.7642 659.024 77.5845 666.204 77.5845H793.734C800.914 77.5845 806.734 71.7642 806.734 64.5845V58.5518Z" fill="#6184F9"/>
<path d="M691.455 184.817C691.455 183.16 690.112 181.817 688.455 181.817H549.807C548.15 181.817 546.807 183.16 546.807 184.817V191.505C546.807 193.162 548.15 194.505 549.807 194.505H688.455C690.112 194.505 691.455 193.162 691.455 191.505V184.817Z" fill="#6184F9"/>
<path d="M693.992 400.52C693.992 398.863 692.649 397.52 690.992 397.52H552.344C550.687 397.52 549.344 398.863 549.344 400.52V407.208C549.344 408.865 550.687 410.208 552.344 410.208H690.992C692.649 410.208 693.992 408.865 693.992 407.208V400.52Z" fill="#6184F9"/>
<path d="M691.455 212.731C691.455 211.074 690.112 209.731 688.455 209.731H582.797C581.14 209.731 579.797 211.074 579.797 212.731V219.419C579.797 221.076 581.14 222.419 582.797 222.419H688.455C690.112 222.419 691.455 221.076 691.455 219.419V212.731Z" fill="#87A1F4"/>
<path d="M693.992 428.434C693.992 426.777 692.649 425.434 690.992 425.434H585.334C583.677 425.434 582.334 426.777 582.334 428.434V435.123C582.334 436.779 583.677 438.123 585.334 438.123H690.992C692.649 438.123 693.992 436.779 693.992 435.123V428.434Z" fill="#87A1F4"/>
<path d="M818.342 784.98C818.342 783.324 816.999 781.98 815.342 781.98H575.186C573.529 781.98 572.186 783.324 572.186 784.98V789.131C572.186 790.788 573.529 792.131 575.186 792.131H815.342C816.999 792.131 818.342 790.788 818.342 789.131V784.98Z" fill="#6184F9"/>
<path d="M818.342 749.452C818.342 747.795 816.999 746.452 815.342 746.452H575.186C573.529 746.452 572.186 747.795 572.186 749.452V753.603C572.186 755.26 573.529 756.603 575.186 756.603H815.342C816.999 756.603 818.342 755.26 818.342 753.603V749.452Z" fill="#6184F9"/>
<path d="M699.07 749.452C699.07 747.795 697.727 746.452 696.07 746.452H575.186C573.529 746.452 572.186 747.795 572.186 749.452V753.603C572.186 755.26 573.529 756.603 575.186 756.603H696.07C697.727 756.603 699.07 755.26 699.07 753.603V749.452Z" fill="#6184F9"/>
<path d="M721.906 851.078C721.906 844.451 716.534 839.078 709.906 839.078H705.992C699.364 839.078 693.992 844.451 693.992 851.078V854.993C693.992 861.62 699.364 866.993 705.992 866.993H709.906C716.534 866.993 721.906 861.62 721.906 854.993V851.078Z" fill="#B8C6CC"/>
<path fill-rule="evenodd" clip-rule="evenodd" d="M1295.98 129.062L1199.05 121.378C1187.2 120.438 1177.16 129.978 1177.48 141.86L1180.31 245.663C1180.58 255.689 1188.24 263.962 1198.22 265.009L1292.31 274.881C1304.12 276.12 1314.4 266.862 1314.4 254.991V149C1314.4 138.567 1306.38 129.887 1295.98 129.062ZM1199.21 119.384C1186.18 118.35 1175.12 128.845 1175.48 141.914L1178.31 245.718C1178.61 256.746 1187.03 265.847 1198.01 266.998L1292.1 276.871C1305.09 278.233 1316.4 268.049 1316.4 254.991V149C1316.4 137.524 1307.58 127.976 1296.14 127.069L1199.21 119.384Z" fill="#F39F26"/>
<path d="M1285.21 197.121L1226.1 163.239C1224.76 162.467 1223.08 163.456 1223.11 165.008L1224.24 231.748C1224.26 233.266 1225.9 234.203 1227.22 233.454L1285.2 200.596C1286.55 199.832 1286.55 197.891 1285.21 197.121Z" fill="#E2664F"/>
<path fill-rule="evenodd" clip-rule="evenodd" d="M1129.11 261.647C1128.93 261.388 1128.62 261.255 1128.31 261.308C1121.97 262.402 1116.04 264.716 1110.79 267.998C1110.51 268.175 1110.36 268.507 1110.42 268.837L1112.12 278.664C1112.68 281.915 1109.87 284.744 1106.64 284.178L1096.55 282.413C1096.23 282.356 1095.91 282.495 1095.73 282.768C1092.37 287.917 1089.96 293.738 1088.75 299.986C1088.68 300.304 1088.82 300.627 1089.08 300.814L1097.37 306.685C1100.05 308.584 1100.05 312.585 1097.37 314.484L1089.56 320.012C1089.29 320.206 1089.16 320.549 1089.24 320.877C1090.78 327.215 1093.57 333.067 1097.33 338.162C1097.52 338.412 1097.83 338.533 1098.13 338.48L1106.64 336.991C1109.87 336.425 1112.68 339.254 1112.12 342.506L1110.82 350.028C1110.76 350.36 1110.91 350.695 1111.2 350.871C1116.8 354.297 1123.15 356.628 1129.94 357.565C1130.24 357.607 1130.54 357.473 1130.72 357.222L1134.49 351.829C1136.38 349.13 1140.35 349.13 1142.24 351.829L1145.66 356.711C1145.84 356.978 1146.17 357.11 1146.48 357.046C1153.37 355.646 1159.74 352.798 1165.24 348.835C1165.5 348.652 1165.62 348.337 1165.57 348.026L1164.61 342.508C1164.05 339.256 1166.86 336.427 1170.09 336.993L1175.62 337.961C1175.93 338.014 1176.24 337.889 1176.42 337.635C1180.39 332.103 1183.23 325.709 1184.6 318.788C1184.66 318.469 1184.53 318.144 1184.27 317.958L1179.36 314.486C1176.68 312.587 1176.68 308.587 1179.36 306.687L1184.66 302.939C1184.91 302.76 1185.04 302.455 1185 302.148C1183.99 295.301 1181.55 288.918 1177.99 283.309C1177.81 283.03 1177.49 282.887 1177.16 282.944L1170.1 284.18C1166.86 284.746 1164.05 281.917 1164.62 278.665L1165.96 270.881C1166.02 270.573 1165.89 270.261 1165.64 270.076C1160.47 266.269 1154.51 263.457 1148.06 261.921C1147.73 261.844 1147.4 261.976 1147.2 262.25L1142.24 269.342C1140.36 272.041 1136.38 272.041 1134.49 269.342L1129.11 261.647ZM1136.79 331.491C1148.34 331.491 1157.7 322.071 1157.7 310.45C1157.7 298.829 1148.34 289.409 1136.79 289.409C1125.24 289.409 1115.88 298.829 1115.88 310.45C1115.88 322.071 1125.24 331.491 1136.79 331.491Z" fill="#6184F9"/>
<path fill-rule="evenodd" clip-rule="evenodd" d="M1187.24 240.063L1090.32 232.378C1078.47 231.439 1068.42 240.979 1068.74 252.86L1071.57 356.664C1071.85 366.69 1079.5 374.963 1089.48 376.01L1183.57 385.882C1195.38 387.121 1205.66 377.862 1205.66 365.991V260C1205.66 249.568 1197.64 240.887 1187.24 240.063ZM1090.48 230.384C1077.44 229.351 1066.39 239.845 1066.74 252.915L1069.57 356.718C1069.88 367.747 1078.3 376.847 1089.27 377.999L1183.36 387.871C1196.35 389.234 1207.66 379.05 1207.66 365.991V260C1207.66 248.524 1198.84 238.976 1187.4 238.069L1090.48 230.384Z" fill="#6184F9"/>
<path fill-rule="evenodd" clip-rule="evenodd" d="M868.964 365.91L772.04 358.225C760.191 357.286 750.143 366.826 750.467 378.708L753.297 482.511C753.57 492.537 761.227 500.81 771.202 501.857L865.296 511.729C877.102 512.968 887.383 503.71 887.383 491.838V385.847C887.383 375.415 879.364 366.735 868.964 365.91ZM772.198 356.231C759.164 355.198 748.111 365.692 748.467 378.762L751.297 482.565C751.598 493.594 760.021 502.695 770.993 503.846L865.087 513.718C878.074 515.081 889.383 504.897 889.383 491.838V385.847C889.383 374.371 880.562 364.823 869.122 363.916L772.198 356.231Z" fill="#6184F9"/>
<path d="M867.205 403.797L783.872 400.633C779.241 400.457 775.344 404.054 775.169 408.665L773.434 454.383C773.259 458.994 776.871 462.876 781.503 463.051L803.211 463.875L802.514 482.228C802.482 483.069 803.411 483.601 804.124 483.15L832.837 465L864.836 466.215C869.467 466.391 873.363 462.795 873.538 458.183L875.274 412.466C875.449 407.854 871.837 403.973 867.205 403.797Z" fill="#6184F9"/>
<path d="M372.891 309.676V213.967C411.967 218.497 447.835 207.171 460.105 198.676V293.819C430.656 313.754 389.692 312.697 372.891 309.676Z" fill="#FA9245"/>
<path d="M372.891 213.967C411.967 218.497 447.835 207.171 460.105 198.676V210.002C455.197 216.61 430.883 229.484 372.891 228.125V213.967Z" fill="#F7735A"/>
<path d="M404.603 214.445C430.252 212.358 451.279 204.784 460.104 198.675C453.761 163.789 420.46 157.333 404.603 158.466V214.445Z" fill="#F3674E"/>
<path d="M404.605 214.446C430.254 212.358 451.281 204.785 460.105 198.676C441.077 208.286 415.177 209.774 404.605 209.317V214.446Z" fill="#FA9444"/>
<path fill-rule="evenodd" clip-rule="evenodd" d="M436.154 164.621C424.956 158.736 412.57 157.396 404.568 157.967L404.103 158V168.067L404.642 168.026C416.792 167.091 444.841 171.962 459.666 198.916L460.596 198.586C457.393 180.973 447.373 170.516 436.154 164.621ZM458.981 195.751C443.797 171.064 417.333 166.247 405.103 166.992V158.934C412.969 158.457 424.901 159.837 435.689 165.506C446.016 170.933 455.299 180.29 458.981 195.751Z" fill="#FA9245"/>
<path d="M406.303 235.487C406.303 236.739 407.318 237.753 408.569 237.753C409.82 237.753 410.834 236.739 410.834 235.487C410.834 234.236 409.82 233.222 408.569 233.222C407.318 233.222 406.303 234.236 406.303 235.487Z" fill="#F5F5F7"/>
<path d="M415.366 235.487C415.366 236.739 416.38 237.753 417.631 237.753C418.882 237.753 419.896 236.739 419.896 235.487C419.896 234.236 418.882 233.222 417.631 233.222C416.38 233.222 415.366 234.236 415.366 235.487Z" fill="#F5F5F7"/>
<path d="M424.426 234.355C424.426 235.606 425.441 236.62 426.692 236.62C427.943 236.62 428.957 235.606 428.957 234.355C428.957 233.104 427.943 232.089 426.692 232.089C425.441 232.089 424.426 233.104 424.426 234.355Z" fill="#F5F5F7"/>
<path d="M932.424 1022.57V953.474C965.951 965.706 1015.49 968.765 1036.06 968.765V1038.42C987.131 1038.42 946.582 1027.85 932.424 1022.57Z" fill="#6184F9"/>
<path d="M932.424 953.474C965.951 965.706 1015.49 968.765 1036.06 968.765V991.984C995.286 995.609 949.98 982.923 932.424 976.127V953.474Z" fill="#1B42BE"/>
<path d="M206 837.092V768C239.527 780.233 289.062 783.291 309.638 783.291V852.949C260.707 852.949 220.158 842.378 206 837.092Z" fill="#FED04C"/>
<path d="M206 768C239.527 780.233 289.062 783.291 309.638 783.291V806.51C268.863 810.135 223.556 797.449 206 790.653V768Z" fill="#F05F46"/>
<path fill-rule="evenodd" clip-rule="evenodd" d="M381.451 925.374L382.222 925.87C415.192 947.097 454.507 953.54 479.36 953.54H479.86V965.311L479.35 965.3C434.391 964.392 395.53 947.141 381.689 938.609L381.451 938.462V925.374ZM382.451 927.203V937.903C396.323 946.378 434.584 963.272 478.86 964.29V954.539C454.046 954.454 415.246 948.03 382.451 927.203Z" fill="#F4A026"/>
<path fill-rule="evenodd" clip-rule="evenodd" d="M1195.83 491.565L1196.6 492.061C1229.58 513.289 1268.89 519.732 1293.74 519.732H1294.24V531.502L1293.73 531.492C1248.77 530.584 1209.91 513.332 1196.07 504.8L1195.83 504.654V491.565ZM1196.83 493.395V504.095C1210.71 512.57 1248.97 529.463 1293.24 530.481V520.731C1268.43 520.646 1229.63 514.221 1196.83 493.395Z" fill="#FDD990"/>
<path fill-rule="evenodd" clip-rule="evenodd" d="M1221.5 925.362L1222.12 925.514C1247.86 931.836 1281.05 930.031 1294.43 928.336L1294.99 928.264V942.298L1294.55 942.353C1263.35 946.325 1237.8 943.869 1221.88 940.078L1221.5 939.987V925.362ZM1222.5 926.636V939.196C1238.25 942.888 1263.35 945.264 1293.99 941.416V929.398C1280.32 931.065 1247.96 932.735 1222.5 926.636Z" fill="#FDD584"/>
<path fill-rule="evenodd" clip-rule="evenodd" d="M1003.28 139.586L1003.9 139.739C1029.64 146.06 1062.83 144.256 1076.21 142.56L1076.77 142.488V156.522L1076.33 156.577C1045.13 160.549 1019.58 158.093 1003.67 154.302L1003.28 154.211V139.586ZM1004.28 140.86V153.42C1020.03 157.112 1045.13 159.488 1075.77 155.641V143.622C1062.11 145.289 1029.75 146.96 1004.28 140.86Z" fill="#FDD990"/>
<path fill-rule="evenodd" clip-rule="evenodd" d="M282.91 395.567L283.529 395.719C309.267 402.041 342.459 400.237 355.837 398.541L356.4 398.469V412.503L355.963 412.558C324.759 416.53 299.214 414.074 283.294 410.283L282.91 410.192V395.567ZM283.91 396.841V409.401C299.657 413.093 324.757 415.469 355.4 411.622V399.603C341.735 401.27 309.375 402.941 283.91 396.841Z" fill="#F98E48"/>
<path fill-rule="evenodd" clip-rule="evenodd" d="M876.893 139.378L779.97 131.693C768.121 130.753 758.072 140.294 758.396 152.175L761.226 255.979C761.5 266.005 769.157 274.278 779.132 275.324L873.226 285.197C885.032 286.436 895.313 277.177 895.313 265.306V159.315C895.313 148.883 887.293 140.202 876.893 139.378ZM780.128 129.699C767.094 128.666 756.041 139.16 756.397 152.23L759.227 256.033C759.528 267.062 767.951 276.162 778.923 277.314L873.017 287.186C886.004 288.549 897.313 278.365 897.313 265.306V159.315C897.313 147.839 888.491 138.291 877.051 137.384L780.128 129.699Z" fill="#6184F9"/>
<path d="M776.381 176.47L875.697 182.176L872.037 245.872L772.721 240.166L776.381 176.47Z" fill="#6184F9"/>
<path d="M861.67 236.026L781.631 231.428L816.365 197.331C817.743 195.979 820.02 196.261 821.026 197.908L835.046 220.849C835.573 221.71 836.658 222.044 837.578 221.628L858.646 212.09C860.701 211.16 863.008 212.743 862.879 214.995L861.67 236.026Z" fill="#1C42BE"/>
<path d="M845.025 203.747C844.873 206.409 842.591 208.443 839.929 208.29C837.268 208.137 835.234 205.855 835.387 203.194C835.54 200.532 837.822 198.498 840.483 198.651C843.145 198.804 845.178 201.086 845.025 203.747Z" fill="#1C42BE"/>
<path fill-rule="evenodd" clip-rule="evenodd" d="M265.264 238.852L262.265 238.79C262.28 238.031 262.288 237.268 262.288 236.5C262.288 235.733 262.28 234.97 262.265 234.211L265.264 234.148C265.28 234.928 265.288 235.712 265.288 236.5C265.288 237.288 265.28 238.073 265.264 238.852ZM265.004 228.516L262.012 228.731C261.901 227.19 261.758 225.672 261.584 224.182L264.564 223.834C264.743 225.369 264.89 226.931 265.004 228.516ZM263.753 218.253L260.798 218.769C260.532 217.246 260.232 215.759 259.902 214.314L262.827 213.645C263.169 215.142 263.478 216.68 263.753 218.253ZM261.383 208.19L258.512 209.06C258.064 207.58 257.581 206.16 257.068 204.803L259.874 203.741C260.412 205.164 260.916 206.649 261.383 208.19ZM257.63 198.566L254.942 199.899C254.26 198.524 253.544 197.249 252.801 196.082L255.331 194.471C256.136 195.736 256.904 197.104 257.63 198.566ZM251.919 189.985L249.715 192.02C248.718 190.941 247.708 190.056 246.698 189.361L248.398 186.89C249.616 187.728 250.793 188.766 251.919 189.985ZM243.271 184.634L242.673 187.574C242.098 187.457 241.519 187.398 240.936 187.398C240.353 187.398 239.774 187.457 239.199 187.574L238.601 184.634C239.37 184.478 240.149 184.398 240.936 184.398C241.724 184.398 242.503 184.478 243.271 184.634ZM233.474 186.89L235.175 189.361C234.165 190.056 233.154 190.941 232.157 192.02L229.953 189.985C231.079 188.766 232.256 187.728 233.474 186.89ZM226.541 194.471L229.072 196.082C228.329 197.249 227.613 198.524 226.93 199.899L224.243 198.566C224.968 197.104 225.736 195.736 226.541 194.471ZM221.999 203.741L224.804 204.803C224.291 206.16 223.809 207.58 223.36 209.06L220.489 208.19C220.956 206.649 221.46 205.164 221.999 203.741ZM219.046 213.645L221.97 214.314C221.64 215.759 221.341 217.246 221.074 218.769L218.119 218.253C218.394 216.68 218.704 215.142 219.046 213.645ZM217.309 223.834L220.288 224.182C220.114 225.672 219.971 227.19 219.86 228.731L216.868 228.516C216.982 226.931 217.129 225.369 217.309 223.834ZM216.608 234.148C216.592 234.928 216.584 235.712 216.584 236.5C216.584 237.288 216.592 238.073 216.608 238.852L219.608 238.79C219.592 238.031 219.584 237.268 219.584 236.5C219.584 235.733 219.592 234.97 219.608 234.211L216.608 234.148ZM216.868 244.485L219.86 244.27C219.971 245.811 220.114 247.328 220.288 248.818L217.309 249.166C217.129 247.631 216.982 246.07 216.868 244.485ZM218.119 254.748L221.074 254.231C221.341 255.755 221.64 257.241 221.97 258.687L219.046 259.355C218.704 257.858 218.394 256.321 218.119 254.748ZM220.489 264.811L223.36 263.94C223.809 265.42 224.291 266.841 224.804 268.198L221.999 269.259C221.46 267.836 220.956 266.352 220.489 264.811ZM224.243 274.435L226.93 273.101C227.613 274.477 228.329 275.751 229.072 276.918L226.541 278.53C225.736 277.265 224.968 275.897 224.243 274.435ZM229.953 283.015L232.157 280.98C233.154 282.06 234.165 282.945 235.175 283.64L233.474 286.111C232.256 285.273 231.079 284.235 229.953 283.015ZM238.601 288.366L239.199 285.426C239.774 285.544 240.353 285.603 240.936 285.603C241.519 285.603 242.098 285.544 242.673 285.426L243.271 288.366C242.503 288.523 241.724 288.603 240.936 288.603C240.149 288.603 239.37 288.523 238.601 288.366ZM248.398 286.111L246.698 283.64C247.708 282.945 248.718 282.06 249.715 280.98L251.919 283.015C250.793 284.235 249.616 285.273 248.398 286.111ZM255.331 278.53L252.801 276.918C253.544 275.751 254.26 274.477 254.942 273.101L257.63 274.435C256.904 275.897 256.136 277.265 255.331 278.53ZM259.874 269.259L257.068 268.198C257.581 266.841 258.064 265.42 258.512 263.94L261.383 264.811C260.916 266.352 260.412 267.836 259.874 269.259ZM262.827 259.355L259.902 258.687C260.232 257.241 260.532 255.755 260.798 254.231L263.753 254.748C263.478 256.321 263.169 257.858 262.827 259.355ZM264.564 249.166C264.743 247.631 264.89 246.07 265.004 244.485L262.012 244.27C261.901 245.811 261.758 247.328 261.584 248.818L264.564 249.166Z" fill="#E63921"/>
<path fill-rule="evenodd" clip-rule="evenodd" d="M1377.6 761.387C1382.14 751.709 1384.97 738.268 1384.97 723.368C1384.97 708.467 1382.14 695.027 1377.6 685.348C1373.03 675.59 1366.91 670 1360.48 670C1354.06 670 1347.94 675.59 1343.37 685.348C1338.83 695.027 1336 708.467 1336 723.368C1336 738.268 1338.83 751.709 1343.37 761.387C1347.94 771.145 1354.06 776.735 1360.48 776.735C1366.91 776.735 1373.03 771.145 1377.6 761.387ZM1360.48 777.735C1374.56 777.735 1385.97 753.394 1385.97 723.368C1385.97 693.341 1374.56 669 1360.48 669C1346.41 669 1335 693.341 1335 723.368C1335 753.394 1346.41 777.735 1360.48 777.735Z" fill="#FDD990"/>
<path fill-rule="evenodd" clip-rule="evenodd" d="M229.129 534.473H102.489C99.5731 534.473 97.276 536.957 97.504 539.864L102.866 608.233C103.07 610.835 105.241 612.842 107.851 612.842H234.491C237.407 612.842 239.704 610.358 239.476 607.451L234.113 539.082C233.909 536.48 231.739 534.473 229.129 534.473ZM102.489 533.473C98.99 533.473 96.2335 536.454 96.507 539.942L101.869 608.311C102.114 611.434 104.719 613.842 107.851 613.842H234.491C237.99 613.842 240.746 610.861 240.473 607.373L235.11 539.004C234.865 535.881 232.26 533.473 229.129 533.473H102.489Z" fill="#0376F6"/>
<path d="M193.842 597.416C193.842 596.863 193.394 596.416 192.842 596.416L189.29 596.416C188.738 596.416 188.29 596.863 188.29 597.416L188.29 600.967C188.29 601.519 188.738 601.967 189.29 601.967L192.842 601.967C193.394 601.967 193.842 601.519 193.842 600.967L193.842 597.416Z" fill="#0376F6"/>
<path fill-rule="evenodd" clip-rule="evenodd" d="M145.402 547.605L136.591 537.175L137.355 536.53L146.212 547.014L152.928 557.716L161.127 561.152L170.378 565.263L178.231 573.845L194.874 589.201L206.101 593.563L205.739 594.495L194.336 590.064L177.522 574.551L169.781 566.092L160.735 562.073L152.249 558.516L145.402 547.605Z" fill="#0376F6"/>
<path d="M177.188 583.541C177.188 582.988 176.74 582.541 176.188 582.541L172.636 582.541C172.084 582.541 171.636 582.988 171.636 583.541L171.636 600.971C171.636 601.523 172.084 601.971 172.636 601.971L176.188 601.971C176.74 601.971 177.188 601.523 177.188 600.971L177.188 583.541Z" fill="#0376F6"/>
<path d="M160.533 569.663C160.533 569.111 160.085 568.663 159.533 568.663L155.982 568.663C155.429 568.663 154.982 569.111 154.982 569.663L154.982 600.973C154.982 601.525 155.429 601.973 155.982 601.973L159.533 601.973C160.085 601.973 160.533 601.525 160.533 600.973L160.533 569.663Z" fill="#0376F6"/>
<path d="M143.223 556.301C143.223 555.749 142.775 555.301 142.223 555.301L138.671 555.301C138.119 555.301 137.671 555.749 137.671 556.301L137.671 599.989C137.671 600.541 138.119 600.989 138.671 600.989L142.223 600.989C142.775 600.989 143.223 600.541 143.223 599.989L143.223 556.301Z" fill="#0376F6"/>
<path d="M677.307 1103.05C663.603 1092.9 662.715 1079.36 663.984 1073.87L624.907 1073.87L624.907 1106.22C649.015 1109.39 691.01 1113.2 677.307 1103.05Z" fill="#AF0B13"/>
<path d="M677.307 1103.05C663.603 1092.9 662.715 1079.36 663.984 1073.86L624.907 1073.86L624.907 1078.07C635.479 1075.05 656.284 1072.74 654.924 1087.7C653.565 1102.65 634.346 1095.49 624.907 1090.04L624.907 1106.22C649.015 1109.39 691.01 1113.2 677.307 1103.05Z" fill="#FC8F7C"/>
<path d="M681.164 1093.91C674.975 1090.24 671.633 1087.14 667.311 1087.14C654.897 1087.13 659.933 1100.69 645.001 1100.69C640.863 1100.68 634.206 1100.09 624.672 1092.51C620.713 1094.11 619.812 1113.24 619.811 1122.2L619.81 1130.18C619.81 1132.57 619.99 1133.96 620.889 1133.96L722.36 1133.97C736.393 1134.37 738.732 1131.58 738.732 1127.4C738.733 1121.42 735.855 1116.59 722.362 1112.85C704.371 1107.86 694.117 1101.59 681.164 1093.91Z" fill="#2658B4"/>
<path d="M722.363 1133.97C736.396 1134.37 738.735 1131.59 738.736 1127.4C738.736 1125.41 738.419 1123.56 737.5 1121.82C739.57 1131.39 659.905 1128.72 619.814 1126.19L619.814 1130.18C619.813 1132.57 619.993 1133.96 620.893 1133.96L722.363 1133.97Z" fill="black"/>
<path d="M619.814 1122.21L619.814 1126.2C659.905 1128.72 739.57 1131.39 737.5 1121.82C736.91 1120.71 736.073 1119.65 734.912 1118.64C737.132 1123.29 711.118 1125.42 681.164 1125.41C678.019 1125.41 674.832 1125.38 671.628 1125.33C669.174 1125.3 666.711 1125.24 664.252 1125.18C660.815 1125.09 657.385 1124.97 653.997 1124.83C651.573 1124.73 649.17 1124.61 646.801 1124.49C643.862 1124.33 640.975 1124.15 638.165 1123.95C631.514 1123.48 625.29 1122.9 619.814 1122.21Z" fill="white"/>
<path d="M624.129 1110.25C624.129 1105.87 622.103 1103.54 621.09 1102.08C620.256 1107.65 619.917 1114.53 619.832 1119.62C623.273 1117.83 624.128 1114.04 624.129 1110.25Z" fill="white"/>
<path d="M662.814 1096.51L638.163 1123.95C640.974 1124.15 643.86 1124.32 646.799 1124.48L668.931 1100.29L662.814 1096.51Z" fill="white"/>
<path d="M673.608 1103.28L653.996 1124.83C657.384 1124.97 660.814 1125.09 664.25 1125.18L680.624 1107.27L673.608 1103.28Z" fill="white"/>
<path d="M685.661 1109.86L671.627 1125.33C674.83 1125.38 678.018 1125.4 681.162 1125.41L692.678 1112.85L685.661 1109.86Z" fill="white"/>
<path d="M539 1076.04C534.834 1059.5 542.725 1048.47 547.192 1045.02L516.966 1020.26L496.459 1045.28C513.096 1063.02 543.167 1092.58 539 1076.04Z" fill="#AF0B13"/>
<path d="M539 1076.04C534.834 1059.5 542.725 1048.47 547.192 1045.02L542.79 1041.42C542.035 1041.36 538.599 1043.41 530.897 1052.02C523.195 1060.62 511.565 1042.77 506.712 1032.77L496.459 1045.28C513.096 1063.02 543.167 1092.58 539 1076.04Z" fill="#FC8F7C"/>
<path d="M547.775 1071.42C545.312 1064.66 544.698 1060.14 541.355 1057.4C531.753 1049.53 527.06 1063.2 515.51 1053.74C512.31 1051.11 507.54 1046.43 504.965 1034.53C500.893 1033.26 488.071 1047.48 482.387 1054.42L477.334 1060.58C475.818 1062.43 475.073 1063.63 475.769 1064.2L554.25 1128.51C564.851 1137.72 568.428 1137.04 571.081 1133.81C574.871 1129.18 575.707 1123.62 567.64 1112.18C556.882 1096.92 552.929 1085.57 547.775 1071.42Z" fill="#2658B4"/>
<path d="M554.252 1128.52C564.853 1137.72 568.43 1137.05 571.083 1133.81C572.341 1132.27 573.274 1130.63 573.663 1128.71C569.202 1137.42 509.27 1084.87 479.862 1057.5L477.336 1060.59C475.82 1062.43 475.075 1063.63 475.771 1064.2L554.252 1128.52Z" fill="black"/>
<path d="M482.385 1054.42L479.859 1057.5C509.267 1084.87 569.198 1137.42 573.66 1128.71C573.91 1127.48 573.935 1126.12 573.679 1124.61C572.449 1129.61 550.972 1114.78 527.812 1095.78C525.381 1093.78 522.931 1091.74 520.484 1089.68C518.61 1088.09 516.737 1086.49 514.876 1084.88C512.274 1082.64 509.695 1080.37 507.165 1078.11C505.354 1076.5 503.568 1074.89 501.817 1073.29C499.645 1071.3 497.525 1069.33 495.478 1067.4C490.631 1062.82 486.186 1058.42 482.385 1054.42Z" fill="white"/>
<path d="M493.299 1047.91C496.078 1044.52 495.985 1041.44 496.128 1039.66C491.953 1043.44 487.329 1048.55 484.04 1052.43C487.838 1053.23 490.899 1050.84 493.299 1047.91Z" fill="white"/>
<path d="M531.937 1061.79L495.478 1067.4C497.526 1069.33 499.645 1071.3 501.817 1073.28L534.268 1068.6L531.937 1061.79Z" fill="white"/>
<path d="M535.991 1073.88L507.165 1078.11C509.695 1080.37 512.275 1082.63 514.876 1084.88L538.891 1081.41L535.991 1073.88Z" fill="white"/>
<path d="M541.146 1086.6L520.485 1089.68C522.931 1091.74 525.381 1093.78 527.812 1095.78L544.678 1093.36L541.146 1086.6Z" fill="white"/>
<path d="M677.945 761.703C670.967 761.703 664.518 757.115 657.009 751.977C654.224 750.072 650.298 747.786 645.589 745.682C633.99 740.497 617.648 736.412 601.955 741.826C627.192 843.969 634.117 847.776 617.041 883.938C593.139 934.558 546.605 977.995 512.774 1022.57L547.887 1050.88C590.706 1007.27 663.129 959.147 685.56 903.605C698.884 870.615 696.979 809.076 677.945 761.703Z" fill="black"/>
<path d="M677.943 761.703C670.966 761.703 664.517 757.115 657.007 751.977C654.223 750.072 650.296 747.786 645.588 745.682C633.989 740.497 617.647 736.412 601.953 741.826C607.91 765.933 612.846 784.563 616.687 799.433L663.984 777.346L680.035 767.152C679.362 765.317 678.665 763.5 677.943 761.703Z" fill="#1A8A75"/>
<path fill-rule="evenodd" clip-rule="evenodd" d="M600.892 967.888C633.851 925.479 677.811 843.338 656.035 752.209L657.98 751.744C680.008 843.929 635.401 926.849 602.265 969.38L602.059 969.644L601.736 969.731C597.601 970.843 591.58 973.206 586.957 976.646C582.306 980.108 579.356 984.42 580.572 989.486C581.272 992.402 581.338 994.672 580.882 996.406C580.416 998.182 579.41 999.359 578.1 1000.03C576.829 1000.67 575.362 1000.79 573.998 1000.67C572.649 1000.55 571.321 1000.17 570.221 999.731C568.157 999.183 566.346 998.855 564.846 998.797C563.315 998.739 562.224 998.968 561.515 999.414C560.864 999.824 560.414 1000.49 560.305 1001.66C560.192 1002.88 560.459 1004.59 561.288 1006.94C563.092 1012.06 561.942 1016.01 559.3 1018.3C556.72 1020.53 552.897 1020.99 549.728 1019.51C547.684 1018.55 546.064 1018.2 544.857 1018.26C543.688 1018.31 542.922 1018.76 542.432 1019.46C541.915 1020.2 541.616 1021.36 541.703 1023.01C541.79 1024.64 542.255 1026.66 543.156 1029C544.303 1031.99 544.632 1034.22 544.101 1035.82C543.517 1037.59 542.027 1038.3 540.451 1038.52C538.914 1038.74 537.066 1038.54 535.318 1038.3C534.948 1038.25 534.582 1038.2 534.221 1038.15C534.004 1038.12 533.788 1038.09 533.574 1038.06L547.808 1049.54C558.402 1038.81 570.746 1027.81 583.648 1016.53C586 1014.47 588.371 1012.4 590.753 1010.33C601.71 1000.77 612.912 991.005 623.686 980.984C649.938 956.569 673.505 930.781 684.632 903.23L686.486 903.979C675.181 931.97 651.321 958.014 625.048 982.449C614.248 992.493 603.017 1002.29 592.059 1011.84C589.679 1013.92 587.312 1015.98 584.965 1018.03C571.803 1029.55 559.274 1040.71 548.599 1051.58L547.964 1052.23L527.385 1035.63L530.36 1035.73C531.666 1035.76 533.143 1035.97 534.561 1036.18C534.908 1036.23 535.251 1036.27 535.587 1036.32C537.361 1036.56 538.947 1036.72 540.17 1036.54C541.356 1036.37 541.954 1035.94 542.202 1035.19C542.502 1034.29 542.407 1032.63 541.289 1029.72C540.338 1027.25 539.807 1025.02 539.706 1023.11C539.605 1021.22 539.927 1019.55 540.792 1018.31C541.686 1017.03 543.065 1016.34 544.758 1016.26C546.413 1016.18 548.37 1016.67 550.574 1017.7C553.068 1018.86 556.041 1018.47 557.992 1016.78C559.88 1015.15 560.995 1012.12 559.402 1007.61C558.531 1005.14 558.162 1003.11 558.314 1001.48C558.47 999.794 559.189 998.515 560.449 997.722C561.651 996.965 563.215 996.734 564.923 996.799C566.646 996.865 568.638 997.239 570.796 997.814L570.858 997.831L570.917 997.855C571.882 998.25 573.04 998.574 574.18 998.678C575.328 998.783 576.377 998.658 577.193 998.243C577.969 997.848 578.619 997.149 578.948 995.898C579.287 994.606 579.287 992.7 578.628 989.953C577.125 983.692 580.902 978.66 585.762 975.042C590.529 971.494 596.615 969.076 600.892 967.888Z" fill="#4B3232"/>
<path d="M647.382 741.624C644.598 739.719 640.671 737.433 635.963 735.329C632.771 733.902 629.22 732.559 625.423 731.474C628.65 768.753 630.911 848.523 623.209 876.16C615.507 903.797 546.188 985.461 515.607 1022.27L520.704 1026.37C526.934 1026.56 537.128 1030.79 532.597 1019.01C528.894 1009.38 532.031 1004.29 540.526 1008.25C546.189 1010.89 554.117 1006.55 550.72 996.923C547.322 987.296 552.419 986.163 560.913 988.428C565.067 990.127 572.693 990.694 569.975 979.367C567.256 968.04 587.544 963.941 591.851 958.413C624.909 915.981 669.307 833.375 647.382 741.624Z" fill="#0C6944"/>
<path d="M643.984 739.653C641.199 737.748 637.273 735.462 632.564 733.358C629.373 731.931 625.822 730.588 622.025 729.502C625.251 766.782 627.513 846.552 619.811 874.189C612.109 901.826 542.79 983.49 512.208 1020.3L517.306 1024.4C523.535 1024.59 533.729 1028.82 529.199 1017.04C525.496 1007.41 528.632 1002.31 537.127 1006.28C542.79 1008.92 550.719 1004.58 547.321 994.952C543.923 985.324 549.02 984.192 557.515 986.457C561.668 988.156 569.295 988.722 566.576 977.396C563.858 966.069 584.146 961.97 588.453 956.442C621.511 914.01 665.908 831.404 643.984 739.653Z" fill="#16965D"/>
<path d="M547.485 1053.6L511.443 1023.37C509.127 1021.42 508.331 1018.52 509.94 1015.96C511.895 1012.85 516.442 1011.69 519.246 1014.07L555.145 1044.51C557.604 1046.59 557.418 1050.94 555.402 1053.46C553.313 1056.06 550.044 1055.74 547.485 1053.6Z" fill="#0C6944"/>
<path d="M601.954 741.826C589.949 746.114 561.846 745.634 554.583 746.902C557.404 801.462 603.082 859.829 611.33 893.454C625.052 949.397 618.305 1011.41 620.378 1069.01H671.348C675.664 1003 687.5 936.146 683.725 869.98C681.697 834.452 668.428 761.962 645.589 745.682C633.99 740.497 617.648 736.412 601.954 741.826Z" fill="#1FB582"/>
<path d="M608.749 741.826C596.743 746.114 568.64 745.634 561.377 746.902C564.198 801.462 609.876 859.829 618.124 893.454C631.846 949.397 625.1 1011.41 627.173 1069.01H638.497C635.099 1062.21 637.365 1062.21 640.763 1058.81C644.161 1055.41 650.769 1049.75 644.539 1042.95C638.357 1036.21 637.932 1028.23 644.539 1019.74C654.087 1007.46 641.895 1006.14 635.099 999.914C641.896 819.821 570.538 826.05 594.89 813.591C612.607 804.527 646.795 790.303 666.248 779.824L649.258 744.361C637.951 739.859 623.079 736.882 608.749 741.826Z" fill="#0C6944"/>
<path d="M601.954 741.826C589.949 746.114 561.846 745.634 554.583 746.902C557.404 801.462 603.082 859.829 611.33 893.454C625.052 949.397 618.305 1011.41 620.378 1069.01H631.703C628.305 1062.21 630.571 1058.25 633.969 1054.85C637.367 1051.45 643.975 1045.79 637.745 1038.99C631.563 1032.25 629.25 1032.76 637.745 1019.74C646.24 1006.71 635.101 1006.14 628.305 999.914C637.745 819.255 558.08 814.158 585.264 810.193C607.011 807.022 647.483 786.596 665 776.78C659.61 762.529 653.12 751.05 645.589 745.682C633.99 740.497 617.648 736.412 601.954 741.826Z" fill="#16965D"/>
<path fill-rule="evenodd" clip-rule="evenodd" d="M645.996 744.769C634.293 739.537 617.667 735.347 601.628 740.881L600.723 741.194L619.615 804.909L620.302 804.961C623.367 805.193 626.967 805.721 630.404 806.615C633.854 807.512 637.073 808.762 639.427 810.405C641.777 812.045 643.139 813.981 643.205 816.262C643.271 818.586 642.007 821.584 638.348 825.354C628.578 835.421 630.395 847.582 634.348 863.597C634.86 865.672 635.41 867.817 635.98 870.039C639.834 885.077 644.588 903.623 644.588 927.424C644.588 954.885 644.798 972.331 645.505 983.553C645.859 989.163 646.339 993.256 646.991 996.284C647.642 999.307 648.48 1001.35 649.602 1002.79C650.17 1003.52 650.682 1004.16 651.145 1004.73C652.028 1005.82 652.729 1006.68 653.282 1007.57C654.068 1008.82 654.489 1010.03 654.489 1011.81C654.489 1012.5 654.222 1013.09 653.725 1013.68C653.205 1014.3 652.489 1014.86 651.652 1015.5L651.55 1015.58C650.774 1016.17 649.904 1016.84 649.203 1017.62C648.454 1018.45 647.842 1019.47 647.699 1020.76C647.366 1023.75 648.909 1025.75 650.245 1027.44L650.311 1027.52C651.665 1029.23 652.79 1030.65 652.79 1032.76C652.79 1033.83 652.501 1034.54 652.092 1035.11C651.656 1035.72 651.062 1036.2 650.335 1036.78L650.297 1036.81C649.615 1037.35 648.811 1038 648.197 1038.86C647.545 1039.77 647.126 1040.9 647.126 1042.39C647.126 1043.87 647.551 1044.92 648.287 1045.69C648.862 1046.29 649.607 1046.69 650.202 1047.01C650.298 1047.06 650.39 1047.11 650.476 1047.16C651.158 1047.53 651.69 1047.88 652.082 1048.45C652.466 1049.01 652.79 1049.89 652.79 1051.45C652.79 1055.27 650.935 1057.28 648.753 1059.53L648.599 1059.69C646.451 1061.91 644.033 1064.4 643.731 1068.94L645.726 1069.07C645.98 1065.27 647.943 1063.24 650.119 1061L650.19 1060.92C652.397 1058.65 654.79 1056.13 654.79 1051.45C654.79 1049.61 654.405 1048.3 653.728 1047.32C653.058 1046.34 652.174 1045.81 651.44 1045.41C651.324 1045.34 651.214 1045.28 651.109 1045.23C650.499 1044.89 650.072 1044.66 649.735 1044.31C649.41 1043.97 649.126 1043.45 649.126 1042.39C649.126 1041.31 649.416 1040.59 649.826 1040.02C650.262 1039.41 650.856 1038.92 651.581 1038.35L651.629 1038.31C652.308 1037.77 653.107 1037.13 653.718 1036.28C654.37 1035.37 654.79 1034.24 654.79 1032.76C654.79 1029.94 653.263 1028.02 651.987 1026.41C651.929 1026.34 651.87 1026.27 651.813 1026.19C650.459 1024.48 649.453 1023.08 649.687 1020.98C649.77 1020.23 650.121 1019.59 650.689 1018.96C651.265 1018.32 652.005 1017.75 652.831 1017.12L652.869 1017.09C653.674 1016.47 654.572 1015.78 655.256 1014.96C655.962 1014.12 656.489 1013.1 656.489 1011.81C656.489 1009.62 655.947 1008.05 654.977 1006.5C654.36 1005.52 653.537 1004.5 652.598 1003.34C652.149 1002.79 651.673 1002.2 651.181 1001.57C650.322 1000.46 649.568 998.751 648.946 995.863C648.326 992.98 647.853 989.003 647.501 983.428C646.798 972.279 646.588 954.897 646.588 927.424C646.588 903.354 641.77 884.566 637.914 869.527C637.345 867.311 636.798 865.176 636.29 863.118C632.31 846.994 630.866 835.936 639.783 826.747C643.598 822.816 645.293 819.319 645.204 816.205C645.113 813.049 643.205 810.603 640.572 808.765C637.942 806.929 634.466 805.605 630.908 804.679C627.593 803.817 624.15 803.286 621.142 803.023L603.188 742.47C618.218 737.647 633.827 741.537 645.088 746.554C650.551 750.485 655.546 757.849 659.991 767.398C664.444 776.964 668.289 788.6 671.493 800.866C677.902 825.399 681.716 852.338 682.726 870.037L684.723 869.923C683.705 852.095 679.871 825.024 673.428 800.36C670.207 788.028 666.326 776.268 661.804 766.554C657.296 756.868 652.094 749.091 646.169 744.868L646.088 744.81L645.996 744.769Z" fill="#188E6F"/>
<path d="M601.952 741.826C594.198 744.502 584.353 745.633 579.607 746.902C567.601 751.19 559.588 750.712 554.581 746.902C560.575 763.397 631.743 772.153 661.863 769.107C657.147 758.455 651.711 750.047 645.587 745.682C633.988 740.497 617.646 736.412 601.952 741.826Z" fill="#000B2F"/>
<path d="M618.989 1074.63H674.85C677.338 1074.63 679.46 1072.82 679.859 1070.36C680.36 1067.28 677.977 1064.48 674.85 1064.48H618.989C616.186 1064.48 613.914 1066.75 613.914 1069.55C613.914 1072.35 616.186 1074.63 618.989 1074.63Z" fill="#0C6944"/>
<path d="M610.696 551.5C604.355 542.564 603.12 535.64 600.583 533.102L570.729 516.606L571.997 548.328C575.803 569.898 624.655 571.167 610.696 551.5Z" fill="#F87678"/>
<path d="M610.699 551.5C604.357 542.564 603.122 535.64 600.585 533.102L570.731 516.606L570.966 522.498C570.966 522.498 597.187 539.487 602.255 544.018C607.323 548.549 607.725 567.514 571.673 546.85C575.479 568.42 624.657 571.167 610.699 551.5Z" fill="#683F52"/>
<path d="M653.791 621.605C649.349 635.562 682.108 762.338 679.843 763.754C639.067 789.239 573.49 812.07 560.519 802.2C556.883 799.433 552.965 796.035 551.286 786.407C542.791 737.703 523.759 584.87 548.583 553.402C554.922 549.893 563.118 547.755 571.999 547.692C574.769 564.187 614.506 568.628 610.699 551.499C611.294 551.499 619.016 554.573 631.635 557.836C630.619 591.835 644.486 612.507 653.791 621.605Z" fill="#1F6EDB"/>
<path d="M571.999 547.692C574.769 564.187 614.506 568.628 610.699 551.499C610.993 551.499 613.027 552.249 616.531 553.402C610.699 579.697 571.999 563.839 563.745 548.363C566.401 547.944 569.165 547.712 571.999 547.692Z" fill="#0B2D93"/>
<path d="M560.518 802.2C556.882 799.433 552.964 796.035 551.285 786.407C542.79 737.703 523.758 584.87 548.582 553.402C557.484 563.677 575.416 584.906 575.928 587.625C578.994 602.192 578.802 621.401 571.998 645.957C582.999 641.427 588.337 645.957 580.167 660.682C571.998 675.407 589.073 702.59 628.872 702.023C668.671 701.457 664.026 703.157 661.153 708.82C664.155 708.82 666.695 708.206 668.266 707.656L672.604 727.091C646.458 751.227 644.017 718.583 628.872 732.606C613.581 746.764 563.744 730.907 560.518 743.366C570.843 740.157 590.362 736.909 585.831 749.595C580.167 765.452 557.515 782.731 597.724 780.177C616.979 778.954 626.607 786.407 616.979 793.737C590.816 803.142 567.67 807.642 560.518 802.2Z" fill="#0B2D93"/>
<path d="M631.633 557.836C619.014 554.573 611.292 551.499 610.697 551.499C611.05 553.087 611.028 554.49 610.697 555.715C607.745 566.619 580.218 563.43 573.379 551.499C572.699 550.314 572.224 549.044 571.997 547.692C565.054 547.741 558.529 549.13 552.983 551.38L548.452 553.397L551.85 557.043L555.965 553.397C561.185 551.779 567.425 550.681 573.379 551.499C580.218 563.43 607.745 566.619 610.697 555.715C615.75 557.27 627.004 560.635 631.599 561.65C631.584 560.389 631.595 559.118 631.633 557.836Z" fill="#0B2D93"/>
<path d="M662.724 729.137C653.376 732.112 641.787 734.213 627.83 729.137C597.378 731.168 572.846 720.972 564.387 715.62C543.451 701.857 531.394 686.705 531.394 668.867H550.744H570.094C579.102 704.552 603.087 705.029 627.83 708.201C641.152 710.105 663.358 699.954 657.014 710.105C650.67 720.255 663.359 710.105 675.411 708.836C677.949 709.47 673.509 725.705 662.724 729.137Z" fill="#F9A0A1"/>
<path d="M662.724 729.137C653.376 732.112 641.787 734.213 627.83 729.137C597.378 731.168 572.846 720.972 564.387 715.62C543.451 701.857 531.394 686.705 531.394 668.867H550.744H570.094C579.102 704.552 603.087 705.029 627.83 708.201C629.226 708.401 630.72 708.468 632.269 708.44C631.514 714.419 630.796 726.263 633.968 725.81C637.932 725.244 667.381 734.14 672.478 709.304C673.453 709.1 674.434 708.939 675.411 708.836C677.949 709.47 673.509 725.705 662.724 729.137Z" fill="#FF8182"/>
<path d="M779.455 463.949C797.218 474.735 777.552 487.423 777.552 501.38C777.209 506.009 776.663 516.486 774.38 529.506L749.637 520.413C760.422 487.423 749.637 482.348 764.863 444.917C770.685 430.606 776.283 436.669 772.476 446.186C770.115 452.09 768.67 460.354 768.67 463.949H779.455Z" fill="#F9A0A1"/>
<path d="M779.455 463.949C797.218 474.735 777.552 487.423 777.552 501.38C777.209 506.009 776.663 516.486 774.38 529.506L762.008 524.96C771.119 507.033 789.71 464.733 778.383 466.998C767.057 469.263 764.225 466.998 764.863 465.299C770.358 447.176 769.69 439.642 768.67 438.141C772.735 433.523 775.423 438.82 772.476 446.186C770.115 452.09 768.67 460.354 768.67 463.949H779.455Z" fill="#FF8182"/>
<path d="M629.098 707.567C592.301 701.223 573.903 695.513 568.191 649.835C567.225 624.724 572.238 571.768 548.581 553.402C508.529 575.573 514.599 634.46 521.878 672.674C526.107 694.879 568.191 738.02 629.098 730.406V707.567Z" fill="#0B44B7"/>
<path d="M629.098 730.406V707.567C608.937 719.34 584.131 722.978 579.034 707.567C575.407 696.601 545.054 663.514 545.054 680.504C545.054 695.326 521.171 656.952 531.462 635.764C541.09 615.942 554.244 609.146 541.09 592.722C527.935 576.299 562.069 579.348 570.731 581.396C567.714 572.335 554.707 558.958 548.581 553.402C508.529 575.573 514.599 634.46 521.878 672.674C526.107 694.879 568.191 738.02 629.098 730.406Z" fill="#2171DF"/>
<path d="M629.098 730.406V707.567C603.721 749.439 521.643 689.803 518.304 646.028C519.006 655.225 520.234 664.045 521.878 672.674C526.107 694.878 568.191 738.019 629.098 730.406Z" fill="#0F3ABC"/>
<path d="M631.635 557.836C630.62 591.835 642.787 612.507 652.092 621.605C718.706 628.266 774.38 604.791 780.09 503.917L751.541 502.014C743.837 568.936 679.306 570.162 631.635 557.836Z" fill="#2171DF"/>
<path d="M780.09 503.918L769.888 503.238C768.567 510.224 775.179 522.494 766.49 529.293C753.465 539.487 765.016 547.982 752.332 560.442C739.648 572.901 752.085 592.722 730.245 595.554C689.094 600.889 695.133 634.064 640.117 604.049L619.244 590.457C629.061 604.615 645.182 628.175 642.464 620.472C639.746 612.77 649.826 627.268 653.791 634.064C653.413 630.776 652.884 623.712 653.791 621.769C719.65 627.861 774.429 603.932 780.09 503.918Z" fill="#0B2D93"/>
<path d="M631.635 557.836C645.904 561.526 663.645 563.896 688.733 562.284C713.822 560.673 747.1 543.252 751.541 502.014L755.73 502.293C755.73 526.461 750.633 546.849 747.802 540.053C744.97 533.257 712.689 570.635 716.087 562.284C719.349 554.27 680.975 577.431 682.108 572.334C683.24 567.237 671.914 567.804 647.561 570.635C628.08 572.901 628.495 565.538 631.138 561.574L631.635 557.836Z" fill="#0B44B7"/>
<path d="M571.904 482.872C566.349 484.955 557.312 509.223 571.904 522.84C578.582 529.071 586.585 534.391 594.264 536.163C595.375 536.42 596.431 536.619 597.436 536.765C626.298 540.947 612.155 488.112 620.275 474.624C609.489 478.431 579.517 480.017 571.904 482.872Z" fill="#F9A0A1"/>
<path d="M596.106 533.699C624.968 537.882 610.825 485.046 618.945 471.558C615.691 472.706 615.222 474.085 609.616 474.925C614.147 500.41 619.532 551.749 570.574 519.774C577.251 526.006 585.255 531.325 592.934 533.097C594.045 533.354 595.101 533.553 596.106 533.699Z" fill="#F2686A"/>
<path d="M576.305 523.58L572.954 533.153C572.627 534.087 571.229 534.046 570.9 533.113C563.638 512.51 539.695 496.774 556.003 468.387C554.534 463.611 557.106 457.133 563.844 452.526C568.741 449.177 575.84 446.816 585.187 446.816C606.34 446.816 619.994 463.402 632.135 464.365C633.634 464.484 635.111 464.364 636.576 463.946C624.354 477.564 607.175 484.455 590.897 484.092C585.187 490.592 580.428 494.398 585.187 507.087C587.09 512.162 584.552 512.796 582.014 514.064C577.573 496.935 566.154 499.474 566.154 508.354C566.154 515.334 572.71 519.985 576.305 523.58Z" fill="#0B366C"/>
<path d="M563.844 452.526C557.106 457.133 554.534 463.611 556.003 468.387C542.909 491.179 555.764 505.815 565.098 521.364C578.469 534.956 553.416 506.644 562.045 496.445C574.504 481.721 553.102 484.729 560.346 476.624C567.709 468.387 591.494 465.864 581.867 473.792C573.16 480.963 613.581 465.606 605.086 473.792C598.29 480.341 623.436 468.155 636.576 463.946C635.111 464.364 633.634 464.484 632.135 464.365C619.994 463.402 606.34 446.816 585.187 446.816C575.84 446.816 568.741 449.177 563.844 452.526Z" fill="#031D3C"/>
</svg>
