
<svg width="1500" height="1200" viewBox="0 0 1500 1200" fill="none" xmlns="http://www.w3.org/2000/svg">
<rect width="1500" height="1200" fill="white"/>
<path d="M522.879 829.679H557.329V1122.51H522.879V829.679Z" fill="#F38B74"/>
<path d="M167.607 829.679H202.058V1122.51H167.607V829.679Z" fill="#F38B74"/>
<path d="M549.795 973.94L549.795 992.242L184.834 992.242L184.834 973.94L549.795 973.94Z" fill="#F38B74"/>
<path d="M145 827C145 820.373 150.373 815 157 815H545.33C551.958 815 557.33 820.373 557.33 827V844.987C557.33 851.614 551.958 856.987 545.33 856.987H157C150.373 856.987 145 851.614 145 844.987V827Z" fill="#F6E0DD"/>
<path d="M145 826.606C145 819.979 150.373 814.606 157 814.606H545.33C551.958 814.606 557.33 819.979 557.33 826.606V831.832H145V826.606Z" fill="#F38B74"/>
<path d="M264.693 280.195L329.833 323.217C326.534 330.965 324.02 338.36 324.873 345L329.736 397.144C302.054 394.063 272.99 384.204 259.02 373.033C253.182 368.407 252.256 360.139 256.489 354.025C269.568 335.136 267.802 300.667 264.693 280.195Z" fill="#FF8B7B"/>
<path d="M297.585 297.354C292.007 295.713 291.175 303.453 291.785 313.879C292.414 324.004 311.486 341.834 324.836 339.392C325.379 334.258 327.369 328.846 329.794 323.22L297.585 297.354Z" fill="#DC6352"/>
<path d="M382.238 257.781C395.546 243.19 411.32 204.294 406.389 185.885C396.051 181.877 377.793 177.76 359.305 183.821C340.817 189.882 324.459 204.887 324.459 204.887L348.614 223.04L348.987 236.293L362.644 249.659L359.739 262.666C358.597 267.837 364.136 271.881 368.693 269.16L382.238 257.781Z" fill="#263238"/>
<path d="M273.002 215.584C264.83 256.109 257.951 279.413 272.747 305.085C294.946 343.686 354.618 337.805 374.763 300.437C392.925 266.793 403.226 206.184 368.272 180.227C333.832 154.687 281.174 175.059 273.002 215.584Z" fill="#FF8B7B"/>
<path d="M261.481 240.377C257.897 215.884 254.916 197.467 253.566 175.724C264.116 172.293 280.284 163.901 298.429 171.025C316.573 178.149 332.001 194.068 332.001 194.068L306.861 210.781L305.733 224.015L291.323 236.573L293.487 249.678C294.338 254.913 288.566 258.61 284.183 255.657L261.481 240.377Z" fill="#263238"/>
<path fill-rule="evenodd" clip-rule="evenodd" d="M404.153 141.994C448.125 137.241 425.52 186.548 407.207 197.718C400.363 203.844 392.203 208.841 385.062 211.437C369.402 217.136 362.443 213.18 331.965 194.07C318.744 190.978 237.329 155.46 252.557 201.702C241.769 189.193 244.759 178.343 254.096 173.255C263.987 137.734 300.478 146.511 327.081 148.424C315.126 144.104 309.804 136.152 309.804 136.152C340.697 151.073 375.581 145.119 404.153 141.994ZM408.257 154.341C412.485 156.362 415.626 158.665 417.841 161.161C417.506 153.996 414.444 148.264 406.147 146.933C400.156 145.975 396.434 146.727 390.83 147.859C390.156 147.996 389.454 148.137 388.718 148.282C395.239 149.359 401.772 151.236 408.257 154.341Z" fill="#263238"/>
<path d="M248.997 249.441C251.47 260.276 258.759 268.937 266.626 273.624C278.466 280.69 288.104 271.015 287.934 258.012C287.805 246.281 281.45 228.486 268.099 226.69C254.9 224.921 246.165 237.053 248.997 249.441Z" fill="#FF8B7B"/>
<path d="M564.412 700.47C546.828 721.105 515.629 738.14 475.581 760.532C411.376 796.432 326.073 806.571 267.729 760.532L348.99 647.538C424.316 627.856 713.363 511.483 674.117 677.682C659.584 739.227 629.724 832.531 590.25 929.244C562.259 915.464 548.801 899.099 545.572 892.64C540.404 843.979 555.978 744.251 564.412 700.47Z" fill="#9D4DA0"/>
<path d="M590.251 929.244C562.26 915.464 548.802 899.099 545.573 892.64C541.819 857.293 549.009 795.003 556.458 746.782L614.016 868.435C606.563 888.371 598.623 908.731 590.251 929.244Z" fill="#79257A"/>
<path d="M475.581 760.532C411.376 796.432 326.073 806.571 267.729 760.532L348.99 647.538C356.66 645.534 366.547 642.527 378.078 638.918L364.621 677.682C419.447 674.518 531.431 678.85 540.756 721.482C523.566 733.872 501.415 746.088 475.581 760.532Z" fill="#79257A"/>
<path d="M647.614 1097.68L678.029 1076.45L640.06 998.312L609.645 1019.58L647.614 1097.68Z" fill="#FF8B7B"/>
<path d="M677.228 1066.4L640.257 1082.77C638.86 1083.37 638.194 1084.83 638.627 1086.26L648.277 1118.08C649.276 1121.37 653.269 1123.17 656.43 1121.71C669.641 1115.58 673.402 1112.72 690.14 1105.3C709.74 1096.61 719.158 1094.88 742.152 1084.7C756.062 1078.54 752.302 1063.44 745.78 1064.73C725.148 1068.79 698.792 1069.76 686.812 1065.33C683.684 1064.14 680.157 1065.1 677.228 1066.4Z" fill="#9BE2F7"/>
<path d="M656.43 1121.71C653.269 1123.17 649.276 1121.37 648.277 1118.08L647.115 1114.25L751.426 1069.87C752.353 1074.52 750.238 1081.12 742.153 1084.7C719.158 1094.88 709.741 1096.61 690.14 1105.3C673.402 1112.72 669.641 1115.58 656.43 1121.71Z" fill="#7FC1D5"/>
<path opacity="0.2" d="M640.058 998.346L659.625 1038.61L629.21 1059.88L609.609 1019.61L640.058 998.346Z" fill="black"/>
<path d="M479.795 814.653C208.495 836.184 152.587 868.121 180.503 645.091C253.174 732.294 511.785 649.053 549.772 751.135C591.102 862.114 667.758 1015.28 667.758 1015.28L603.796 1056.56C603.796 1056.56 512.905 945.266 479.795 814.653Z" fill="#9D4DA0"/>
<path fill-rule="evenodd" clip-rule="evenodd" d="M469.349 786.236C481.309 786.241 491.083 787.122 497.672 789.53C499.471 790.187 501.506 791.79 503.727 794.134C505.96 796.489 508.424 799.64 511.077 803.461C516.383 811.103 522.476 821.468 529.018 833.612C542.105 857.902 557.017 889.356 571.081 920.493C585.146 951.632 598.366 982.461 608.07 1005.51C612.922 1017.03 616.895 1026.6 619.656 1033.3C621.036 1036.65 622.113 1039.28 622.844 1041.07C623.21 1041.96 623.49 1042.65 623.678 1043.11L623.959 1043.8L623.962 1043.81C623.963 1043.81 623.963 1043.81 623.5 1044C623.037 1044.19 623.036 1044.19 623.035 1044.18L623.032 1044.18L622.752 1043.49C622.564 1043.03 622.284 1042.34 621.919 1041.44C621.187 1039.65 620.111 1037.03 618.731 1033.68C615.972 1026.99 612 1017.41 607.149 1005.89C597.446 982.854 584.229 952.033 570.169 920.905C556.108 889.775 541.208 858.346 528.138 834.086C521.602 821.955 515.531 811.628 510.255 804.031C507.617 800.232 505.186 797.126 503.002 794.822C500.807 792.506 498.904 791.045 497.328 790.469C490.918 788.127 481.298 787.241 469.348 787.236C457.414 787.23 443.218 788.101 427.687 789.237C423.024 789.578 418.241 789.942 413.363 790.314C385.765 792.42 355.145 794.755 326.143 794.302C292.029 793.769 260.052 789.379 237.82 776.144C226.691 769.52 217.994 760.674 212.702 748.984C207.412 737.298 205.544 722.81 208.004 704.931L208.994 705.068C206.554 722.807 208.418 737.096 213.613 748.572C218.807 760.045 227.347 768.747 238.331 775.285C260.324 788.377 292.072 792.769 326.158 793.302C355.111 793.755 385.678 791.423 413.278 789.318C418.158 788.946 422.945 788.581 427.614 788.239C443.145 787.104 457.374 786.23 469.349 786.236Z" fill="#79257A"/>
<path fill-rule="evenodd" clip-rule="evenodd" d="M477.109 769.955C489.517 770.081 499.547 771.031 506.135 773.438C508.478 774.294 511.003 776.062 513.671 778.579C516.345 781.1 519.189 784.397 522.167 788.348C528.125 796.25 534.648 806.803 541.453 819.078C555.063 843.631 569.824 875.122 583.453 906.19C597.084 937.261 609.587 967.919 618.683 990.808C623.231 1002.25 626.927 1011.76 629.486 1018.4C630.766 1021.72 631.761 1024.33 632.437 1026.1C632.774 1026.99 633.032 1027.67 633.205 1028.13C633.292 1028.36 633.358 1028.53 633.402 1028.65L633.464 1028.81L633.467 1028.82C633.468 1028.82 633.468 1028.82 633 1029C632.532 1029.18 632.532 1029.17 632.531 1029.17L632.528 1029.16L632.466 1029C632.422 1028.88 632.357 1028.71 632.27 1028.48C632.097 1028.02 631.839 1027.34 631.502 1026.46C630.827 1024.68 629.832 1022.08 628.553 1018.76C625.995 1012.12 622.3 1002.62 617.753 991.178C608.66 968.295 596.162 937.649 582.537 906.592C568.912 875.533 554.166 844.075 540.578 819.563C533.784 807.306 527.286 796.799 521.369 788.95C518.41 785.026 515.604 781.776 512.985 779.306C510.362 776.832 507.953 775.167 505.791 774.377C499.379 772.034 489.501 771.081 477.099 770.954C464.713 770.829 449.873 771.527 433.57 772.457C429.225 772.704 424.777 772.968 420.245 773.237C390.773 774.986 357.73 776.946 326.368 776.006C290.197 774.922 256.17 769.979 232.4 756.337C220.504 749.51 211.162 740.496 205.417 728.686C199.672 716.877 197.545 702.316 200.005 684.431L200.996 684.568C198.557 702.301 200.676 716.654 206.316 728.249C211.956 739.843 221.138 748.721 232.898 755.47C256.44 768.981 290.254 773.923 326.398 775.006C357.712 775.945 390.705 773.988 420.181 772.239C424.714 771.97 429.165 771.706 433.513 771.458C449.815 770.529 464.686 769.828 477.109 769.955Z" fill="#79257A"/>
<path d="M468 815.606C471.886 815.286 475.817 814.968 479.795 814.653C481.615 821.832 483.609 828.952 485.753 835.999L489.5 800.499L468 815.606Z" fill="#79257A"/>
<path d="M603.795 1056.56L667.757 1015.28C667.757 1015.28 666.564 1012.89 664.394 1008.5L583.271 1029C595.616 1046.55 603.795 1056.56 603.795 1056.56Z" fill="#79257A"/>
<path d="M180.503 645.091C166.282 758.713 173.815 806.162 220.5 822.525C240.333 826.31 294.9 805.44 354.5 691.689C283.547 689.058 213.202 684.329 180.503 645.091Z" fill="#79257A"/>
<path d="M672.936 1024.77L605.234 1065.45L589.428 1046.68L663.851 1000.48L672.936 1024.77Z" fill="#C3A5E6"/>
<path d="M673.769 1069.29C673.436 1069.36 673.103 1069.26 672.904 1069.03C672.671 1068.76 672.604 1068.33 672.804 1068.03C673.736 1066.36 682.022 1051.89 687.18 1051.49C688.178 1051.42 689.043 1051.82 689.675 1052.65C690.74 1054.05 691.073 1055.55 690.64 1057.11C689.209 1062.34 679.559 1066.96 673.902 1069.26C673.869 1069.26 673.802 1069.26 673.769 1069.29ZM686.947 1053.29C684.085 1054.02 679.027 1061.04 675.666 1066.6C683.253 1063.24 688.145 1059.58 688.943 1056.65C689.209 1055.62 689.01 1054.65 688.278 1053.72C688.011 1053.35 687.712 1053.22 687.313 1053.25C687.18 1053.22 687.046 1053.25 686.947 1053.29Z" fill="#7FC1D4"/>
<path d="M673.768 1069.29C673.702 1069.33 673.602 1069.33 673.502 1069.33C673.202 1069.33 672.903 1069.13 672.77 1068.86C672.57 1068.49 667.911 1059.61 669.708 1053.79C670.274 1052.02 671.339 1050.69 672.936 1049.86C675.099 1048.73 676.331 1049.36 677.029 1050.13C679.891 1053.25 676.896 1064.83 674.267 1068.96C674.168 1069.09 674.001 1069.23 673.768 1069.29ZM674.633 1051.02C674.4 1051.09 674.134 1051.19 673.768 1051.36C672.57 1051.99 671.805 1052.92 671.406 1054.25C670.208 1058.08 672.404 1063.8 673.602 1066.5C675.898 1061.71 677.462 1053.12 675.732 1051.26C675.665 1051.16 675.366 1050.86 674.633 1051.02Z" fill="#7FC1D4"/>
<path d="M385.595 396.939C371.552 362.677 342.942 344.702 324.77 343.649C333 392 389.521 570.405 415.222 628.896L474.434 610.056C444.828 543.308 408.612 448.394 385.595 396.939Z" fill="#79BEE4"/>
<path fill-rule="evenodd" clip-rule="evenodd" d="M348.074 433.76C366.947 399.184 353.611 363.723 344.586 350.33L345.415 349.771C354.561 363.343 368.069 399.216 348.952 434.24L348.074 433.76ZM356.156 460.216C388.069 414.018 372.696 375.622 361.123 362.257L361.879 361.602C373.727 375.284 389.171 414.182 356.978 460.784L356.156 460.216ZM384.358 450.639C377.683 462.614 368.362 471.859 361.798 476.717L361.203 475.913C367.668 471.128 376.887 461.988 383.485 450.152C390.08 438.32 394.036 423.833 390.06 408.317L391.029 408.068C395.087 423.906 391.036 438.658 384.358 450.639ZM400.307 429.996C400.553 464.637 377.61 484.72 366.064 490.448L365.62 489.552C376.921 483.946 399.55 464.163 399.307 430.004L400.307 429.996ZM399.985 502.126C391.15 509.288 378.973 508.414 370.512 505.472L370.841 504.528C379.155 507.419 390.91 508.195 399.355 501.349C407.78 494.52 413.121 479.928 408.212 451.585L409.197 451.415C414.126 479.872 408.84 494.947 399.985 502.126ZM407.031 508.611C397.817 516.815 384.509 519.252 375.084 519L375.111 518C384.397 518.248 397.414 515.835 406.366 507.864C410.832 503.888 414.295 498.522 415.787 491.384C417.281 484.239 416.806 475.29 413.342 464.148L414.296 463.852C417.797 475.11 418.303 484.236 416.766 491.588C415.227 498.947 411.648 504.5 407.031 508.611ZM417.705 547.218C405.997 548.829 396.296 557.113 390.945 564.299L390.143 563.701C395.584 556.395 405.499 547.888 417.568 546.227C429.697 544.558 443.832 549.82 457.62 569.715L457.943 570.18L457.441 570.443C452.312 573.128 448.32 576.936 445.238 581.344C436.096 594.421 434.987 612.745 435.998 622.392L435.003 622.496C433.986 612.792 435.068 594.343 444.258 581.003C440.946 573.536 437 569.046 432.823 566.664C428.607 564.259 424.096 563.968 419.64 565.008C410.688 567.096 402.032 574.543 396.791 580.82L396.023 580.18C401.319 573.837 410.149 566.195 419.412 564.034C424.063 562.949 428.842 563.242 433.319 565.795C437.632 568.255 441.61 572.781 444.929 580.058C447.915 575.979 451.704 572.425 456.477 569.824C442.938 550.521 429.261 545.627 417.705 547.218ZM446.736 598.657C444.505 606.227 444.573 614.295 445.323 619.404L444.334 619.549C443.567 614.331 443.496 606.112 445.777 598.375C448.06 590.632 452.721 583.306 461.464 580.032L461.815 580.968C453.468 584.094 448.966 591.094 446.736 598.657Z" fill="#EFF7FB"/>
<path d="M474.434 610.056L415.222 628.896C414.471 627.187 413.659 625.387 412.79 623.5L472.642 606C473.242 607.363 473.839 608.715 474.434 610.056Z" fill="#3C93C4"/>
<path d="M382.001 534.5C382.001 534.5 372 377.5 324.769 343.649C321 389.5 350.611 497.629 387.523 572L442.509 534.5C439.646 527.512 436.784 520.495 433.938 513.5L382.001 534.5Z" fill="#3C93C4"/>
<path d="M454.697 564L403.431 604C393.689 584.217 381.083 559.516 368.566 533L426.219 494.5C435.568 517.532 445.239 541.343 454.697 564Z" fill="#3C93C4"/>
<path d="M189.678 808.147C132.08 752.502 163.142 558.319 171.892 413.088C176.707 352.8 228.087 350.619 262.325 344.187C268.785 377.023 310.772 387.788 324.768 344.187C397.996 458.797 364.911 610.126 366.236 641.277C367.833 678.814 247.277 863.792 189.678 808.147Z" fill="#79BEE4"/>
<path fill-rule="evenodd" clip-rule="evenodd" d="M245.899 455.768C257.822 438.188 265.118 403.987 262.826 344.168L261.826 344.206C264.126 404.199 256.752 438.138 244.954 455.379C238.489 464.827 230.706 469.248 222.442 470.227C213.599 471.275 204.132 468.39 195.049 463.344C185.972 458.3 177.325 451.121 170.144 443.653L169.423 444.347C176.654 451.866 185.378 459.114 194.564 464.218C203.602 469.24 213.131 472.21 222.14 471.267C234.14 512.063 226.29 535.415 211.797 548.106C197.206 560.883 175.719 563.01 160.333 561.004L160.203 561.996C175.728 564.02 197.558 561.904 212.456 548.858C227.335 535.828 235.139 512.047 223.146 471.145C231.219 470.03 238.782 465.696 245.107 456.903C257.467 518.961 245.749 551.731 226.268 567.569C206.637 583.528 178.916 582.47 159.308 576.522L158.707 576.339L158.664 576.966C158.242 583.165 157.845 589.337 157.482 595.47L157.44 596.178L158.121 595.98C179.859 589.664 212.062 589.338 238.069 608.815C263.96 628.205 283.849 667.328 281.034 740.125C269.567 733.649 258.507 730.191 248.042 728.998C252.111 682.345 237.806 655.299 218.127 640.501C198.414 625.677 173.411 623.223 156.402 625.504L156.535 626.496C173.371 624.238 198.084 626.681 217.526 641.301C236.863 655.842 251.088 682.509 247.048 728.891C209.734 725.135 180.289 750.085 167.139 768.712L167.956 769.288C181.061 750.725 210.405 725.959 247.448 729.938C258.128 731.086 269.463 734.623 281.252 741.4C288.061 745.314 295.023 750.311 302.098 756.554C295.453 764.576 288.552 772.25 281.533 779.289C270.322 766.018 259.702 759.075 249.859 756.683C239.898 754.262 230.801 756.518 222.792 761.472C206.816 771.354 195.11 792.006 189.21 807.974L190.148 808.32C196.022 792.424 207.627 772.028 223.318 762.322C231.144 757.482 239.969 755.309 249.623 757.655C259.291 760.004 269.858 766.903 281.118 780.349L281.468 780.768L281.854 780.382C289.141 773.103 296.299 765.143 303.177 756.818L303.485 756.446L303.124 756.126C295.969 749.773 288.919 744.68 282.013 740.684C282.822 720.474 281.891 702.821 279.567 687.44C284.853 710.707 298.18 731.648 311.194 745.838L311.596 746.276L311.958 745.805C316.548 739.844 320.972 733.773 325.18 727.698L325.374 727.417L325.183 727.133C316.425 714.145 308.144 691.991 311.777 667.779C315.405 643.597 330.929 617.276 369.937 595.939L369.457 595.061C330.221 616.524 314.469 643.091 310.788 667.631C307.137 691.965 315.368 714.222 324.164 727.408C320.135 733.217 315.908 739.019 311.529 744.722C298.085 729.925 284.42 707.949 279.821 683.766C275.181 659.368 279.764 632.714 303.149 608.854C307.483 604.432 312.465 600.103 318.157 595.902C331.727 585.886 349.33 576.593 371.801 568.47L371.461 567.53C349.216 575.571 331.693 584.767 318.104 594.7C312.001 577.526 307.144 550.333 312.138 523.774C317.188 496.913 332.308 470.708 366.434 456.121L366.041 455.201C331.555 469.943 316.256 496.461 311.155 523.589C306.093 550.509 311.068 578.038 317.264 595.319C311.887 599.309 307.139 603.416 302.969 607.613C295.274 588.602 288.309 561.478 288.565 534.381C288.824 506.95 296.481 479.615 318.188 460.709C329.206 451.113 343.867 443.668 363.068 439.489L362.907 438.503C326.4 442.491 307.168 432.338 297.865 418.207C288.53 404.029 289.074 385.683 292.484 373.083L291.518 372.821C288.068 385.57 287.477 404.248 297.029 418.757C306.022 432.415 323.901 442.234 356.411 440.08C340.266 444.441 327.557 451.27 317.691 459.817C304.571 458.759 294.763 454.125 287.517 447.312C280.227 440.457 275.502 431.368 272.634 421.418C266.894 401.505 268.62 378.243 271.989 362.895L271.013 362.681C267.622 378.125 265.871 401.567 271.673 421.695C274.575 431.765 279.376 441.03 286.832 448.041C294.077 454.853 303.802 459.511 316.655 460.73C295.324 479.858 287.822 507.149 287.565 534.372C287.306 561.819 294.408 589.266 302.205 608.39C280.695 630.468 275.047 654.938 277.877 677.828C270.861 643.048 256.17 621.121 238.668 608.015C212.605 588.495 180.446 588.642 158.522 594.825C158.861 589.133 159.229 583.408 159.62 577.659C179.335 583.491 207.096 584.443 226.899 568.345C246.913 552.074 258.591 518.565 245.899 455.768ZM194.399 432.213C186.108 427.565 178.056 420.54 171.524 413.426L172.261 412.75C178.747 419.814 186.718 426.76 194.888 431.341C203.071 435.929 211.366 438.096 218.556 435.765C225.72 433.443 231.962 426.595 235.915 412.739C239.868 398.881 241.501 378.104 239.502 348.112L240.5 348.046C242.501 378.085 240.875 398.994 236.876 413.013C232.877 427.033 226.474 434.25 218.865 436.716C211.282 439.175 202.677 436.854 194.399 432.213Z" fill="white"/>
<path d="M366.931 626C304.001 674.5 256.001 661 230.501 626C185.464 564.184 167.412 487.453 171.892 413.088C175.217 371.458 200.745 357.534 227.501 350.785C244.001 349.19 275.4 369.8 277 465C277 500.5 286.5 568.5 308 568.5C329.5 568.5 356.501 542 372.545 530C372.859 570.59 368.666 605.178 366.931 626Z" fill="#3C93C4"/>
<path d="M519.037 432.633L479.105 432.001C476.176 431.967 472.715 433.332 471.417 435.095L421.768 501.55C420.57 503.147 420.836 504.811 422.134 506.076C423.432 507.374 424.996 507.041 427.425 507.074L466.759 507.673C469.687 507.706 473.148 506.342 474.446 504.578L523.596 438.789C525.194 436.693 525.46 432.633 519.037 432.633Z" fill="#1C1890"/>
<path d="M484.101 501.368C469.334 471.231 433.968 496.803 402.281 518.514L440.735 565.424C471.668 543.841 492.388 518.279 484.101 501.368Z" fill="#FF8B7B"/>
<path d="M182.078 374.414C209.56 340.824 251.669 347.992 263.097 397.228C275.999 452.838 266.804 513.983 292.582 565.539C306.846 594.068 390.229 522.841 409.607 508.486L458.592 553.164C458.95 555.676 404.569 597.312 337.474 636.061C235.534 694.935 206.036 570.076 195.688 540.778C185.339 511.479 159.3 397.228 182.078 374.414Z" fill="#79BEE4"/>
<path fill-rule="evenodd" clip-rule="evenodd" d="M204.909 416.956C194.519 400.428 193.221 377.637 195.192 361.713L196.184 361.836C194.227 377.654 195.541 400.175 205.756 416.424C210.854 424.534 218.166 431.079 228.405 434.466C238.652 437.856 251.877 438.1 268.821 433.517L269.082 434.483C252.007 439.1 238.574 438.884 228.091 435.416C217.601 431.945 210.113 425.235 204.909 416.956ZM191.291 436.365C178.955 417.322 178.365 391.902 181.587 374.324L182.57 374.504C179.372 391.955 179.988 417.078 192.13 435.821C198.193 445.179 207.134 452.957 219.939 457.409C232.751 461.863 249.462 462.997 271.07 459.008L271.646 458.902L271.661 459.487C272.548 493.666 260.093 514.463 244.099 526.54C228.132 538.595 208.699 541.916 195.664 541.277L195.713 540.278C208.572 540.909 227.758 537.625 243.496 525.742C259.117 513.947 271.399 493.638 270.675 460.097C249.225 463.982 232.514 462.84 219.61 458.354C206.584 453.825 197.468 445.899 191.291 436.365ZM409.627 507.827L427.754 524.361L427.327 524.729C388.655 558.098 393.099 587.008 399.915 597.142L399.086 597.7C391.928 587.059 387.776 557.778 426.248 524.341L409.589 509.146C361.839 548.113 367.63 594.307 376.45 612.5L375.551 612.936C366.534 594.341 360.774 547.452 409.292 508.098L409.627 507.827ZM252.47 560.85C237.602 571.037 218.89 573.421 206.195 572.499L206.267 571.501C218.815 572.413 237.28 570.046 251.905 560.025C266.49 550.032 277.326 532.381 274.594 502.546L275.59 502.454C278.352 532.619 267.379 550.635 252.47 560.85ZM358.675 622.897C307.753 570.083 245.355 587.871 220.457 603.424L219.927 602.576C245.119 586.839 308.375 568.817 359.828 622.655L360.257 623.104L359.727 623.427C352.592 627.779 345.238 632.155 337.725 636.494L337.343 636.714L337.076 636.364C323.391 618.353 303.349 612.422 283.784 612.352C264.212 612.281 245.18 618.081 233.646 623.453L233.224 622.547C244.861 617.127 264.038 611.281 283.788 611.352C303.418 611.422 323.676 617.342 337.605 635.408C344.792 631.253 351.833 627.065 358.675 622.897Z" fill="#DDEFF8"/>
<path d="M781.765 296.01C845.876 296.01 897.847 244.038 897.847 179.928C897.847 115.818 845.876 63.8464 781.765 63.8464C717.655 63.8464 665.684 115.818 665.684 179.928C665.684 244.038 717.655 296.01 781.765 296.01Z" fill="#4B39C3"/>
<path d="M721.35 162.735C721.35 194.635 740.553 246.1 785.86 244.448C831.167 242.797 841.185 193.737 842.937 179.895C844.695 166.046 721.35 162.735 721.35 162.735Z" fill="#2E2D3D"/>
<path d="M856.393 268.852C843.444 253.807 820.1 244.441 784.33 244.441C749.953 244.441 726.689 251.486 711.207 272.12C754.091 305.027 814.681 303.938 856.393 268.852Z" fill="#F11866"/>
<path d="M792.539 270.132C787.797 277.131 784.322 277.416 779.181 270.132C775.094 264.336 767.041 251.177 767.041 244.498V177.838C767.041 171.159 772.502 165.69 779.181 165.69H792.539C799.218 165.69 804.686 171.152 804.686 177.838V244.498C804.686 251.177 796.79 263.859 792.539 270.132Z" fill="#FF8B7B"/>
<path d="M792.539 165.69H779.181C772.502 165.69 767.041 171.152 767.041 177.838V237.314C782.036 242.092 795.729 232.593 804.686 221.898V177.838C804.686 171.159 799.218 165.69 792.539 165.69Z" fill="#DC6352"/>
<path d="M826.241 166.367C826.241 196.749 808.163 221.385 785.862 221.385C763.561 221.385 745.482 196.749 745.482 166.367C745.482 135.977 763.561 111.348 785.862 111.348C808.163 111.348 826.241 135.984 826.241 166.367Z" fill="#FF8B7B"/>
<path d="M808.054 124.549C803.255 141.467 792.739 141.275 778.078 146.829C763.417 152.383 756.411 157.979 751.612 168.802C745.495 182.601 754.388 222.846 754.388 222.846C754.388 222.846 717.263 195.062 721.557 151.372C725.85 107.681 751.612 90.7632 775.856 90.7632C800.101 90.7632 809.322 105.538 809.322 105.538C809.322 105.538 822.238 105.595 834.45 120.056C850.862 139.502 845.814 186.731 834.45 203.649C823.086 220.567 815.509 225.872 815.759 225.117C816.015 224.362 826.368 185.499 820.807 161.475C815.253 137.451 808.054 124.549 808.054 124.549Z" fill="#2E2D3D"/>
<path d="M781.767 298.855C716.189 298.855 662.836 245.502 662.836 179.931C662.836 114.353 716.189 61 781.767 61C847.345 61 900.698 114.353 900.698 179.931C900.691 245.502 847.338 298.855 781.767 298.855ZM781.767 66.6963C719.329 66.6963 668.532 117.493 668.532 179.931C668.532 242.369 719.329 293.166 781.767 293.166C844.205 293.166 895.002 242.369 895.002 179.931C895.002 117.493 844.198 66.6963 781.767 66.6963Z" fill="#31219C"/>
<path d="M923.87 698.466C987.879 698.466 1039.77 646.577 1039.77 582.568C1039.77 518.56 987.879 466.671 923.87 466.671C859.862 466.671 807.973 518.56 807.973 582.568C807.973 646.577 859.862 698.466 923.87 698.466Z" fill="#3625A9"/>
<path d="M888.013 571.873C887.725 571.009 880.521 529.665 879.665 513.583C878.801 497.501 905.503 495.206 905.503 495.206C905.503 495.206 927.327 483.435 943.121 489.464C958.915 495.494 969.664 505.637 976.837 518.272C984.018 530.907 970.52 570.282 970.52 570.282L888.013 571.873Z" fill="#2E2D3D"/>
<path d="M1006.26 664.08C985.255 685.312 956.099 698.466 923.872 698.466C894.372 698.466 867.447 687.445 846.988 669.295C861.052 649.361 894.774 643.214 928.439 643.214C964.276 643.214 991.773 647.959 1006.26 664.08Z" fill="#ECDE84"/>
<path d="M936.937 669.802C932.029 677.044 928.431 677.347 923.105 669.802C918.871 663.803 904.729 650.122 904.729 643.206L910.531 574.251C910.531 567.335 916.189 561.677 923.105 561.677H936.937C943.853 561.677 949.512 567.335 949.512 574.251L952.209 643.206C952.209 650.122 941.338 663.31 936.937 669.802Z" fill="#FF8B7B"/>
<path d="M936.936 561.684H923.112C916.196 561.684 910.537 567.343 910.537 574.259L905.5 635.427C921.029 640.373 941.996 630.321 951.268 619.254L949.511 574.259C949.511 567.343 943.852 561.684 936.936 561.684Z" fill="#DC6352"/>
<path d="M942.016 697.054C936.104 697.983 930.044 698.466 923.871 698.466C921.491 698.466 919.127 698.394 916.782 698.253C917.591 691.202 918.423 682.489 917.75 681.369C916.607 679.453 904.736 689.217 904.736 689.217L882.564 648.236L886.647 647.388L930.029 668.734L970.586 646.911L976.025 648.236L951.27 687.687C951.27 687.687 943.21 680.415 940.528 680.415C938.963 680.415 940.532 688.966 941.88 696.313C941.925 696.561 941.971 696.809 942.016 697.054Z" fill="#C8B95B"/>
<path d="M939.65 697.401C934.49 698.103 929.223 698.466 923.871 698.466C922.863 698.466 921.859 698.453 920.858 698.428L924.386 678.165L907.918 667.121L914.334 661.076H943.18L949.588 667.121L935.945 679.581L939.65 697.401Z" fill="white"/>
<path d="M905.881 628.155L885.52 647.532C885.52 647.532 906.267 684.43 907.419 684.43C908.57 684.43 925.023 664.083 925.023 664.083L935.56 663.901L952.21 681.369L971.556 647.145L951.831 626.238C951.831 626.238 934.984 658.781 931.924 659.546C928.864 660.311 928.841 660.697 926.364 658.781C923.879 656.864 905.881 628.155 905.881 628.155Z" fill="#ECDE84"/>
<path d="M930.021 619.338C953.106 619.338 971.82 593.837 971.82 562.381C971.82 530.925 953.106 505.425 930.021 505.425C906.937 505.425 888.223 530.925 888.223 562.381C888.223 593.837 906.937 619.338 930.021 619.338Z" fill="#FF8B7B"/>
<path d="M892.504 561.502C896.413 569.736 895.133 578.523 889.648 581.129C884.164 583.735 876.544 579.175 872.635 570.941C868.726 562.707 870.006 553.92 875.491 551.314C880.975 548.708 888.596 553.268 892.504 561.502Z" fill="#FF8B7B"/>
<path d="M965.662 561.502C961.754 569.736 963.034 578.523 968.518 581.129C974.002 583.735 981.623 579.175 985.532 570.941C989.44 562.707 988.16 553.92 982.676 551.314C977.192 548.708 969.571 553.268 965.662 561.502Z" fill="#FF8B7B"/>
<path d="M905.5 523.635C922.726 511.575 930.483 513.583 943.398 533.399C956.321 553.208 971.827 553.564 971.827 553.564L973.834 533.02C973.834 533.02 954.586 495.789 928.748 500.667C902.91 505.546 888.214 528.809 888.214 528.809C888.214 528.809 886.957 572.403 890.562 573.887C894.168 575.372 894.585 559.821 897.168 556.662C899.751 553.503 894.585 538.573 898.031 531.679C901.478 524.786 905.5 523.635 905.5 523.635Z" fill="#2E2D3D"/>
<path d="M960.92 546.034C966.934 552.617 964.654 578.766 967.813 578.478C970.972 578.19 972.123 553.496 971.26 550.913C970.389 548.33 960.92 546.034 960.92 546.034Z" fill="#2E2D3D"/>
<path d="M923.871 701.496C858.294 701.496 804.943 648.145 804.943 582.569C804.943 516.992 858.294 463.641 923.871 463.641C989.448 463.641 1042.8 516.992 1042.8 582.569C1042.8 648.145 989.448 701.496 923.871 701.496ZM923.871 469.701C861.635 469.701 811.003 520.332 811.003 582.569C811.003 644.805 861.635 695.436 923.871 695.436C986.107 695.436 1036.74 644.805 1036.74 582.569C1036.74 520.332 986.107 469.701 923.871 469.701Z" fill="#2C1B9C"/>
<path d="M1279.13 820.88C1278.77 819.973 1278.4 819.066 1278.22 818.16C1277.5 815.077 1277.68 811.813 1278.22 808.73C1279.31 802.746 1281.85 796.581 1284.21 790.778C1289.65 776.997 1292.91 762.309 1293.82 747.621C1293.82 746.714 1294 745.445 1293.27 744.72C1292.55 743.632 1291.28 743.45 1290.01 743.269C1284.21 742.725 1278.22 743.632 1272.78 745.989C1271.51 746.533 1270.24 747.258 1268.97 746.714C1268.43 746.533 1267.89 746.17 1267.52 745.626C1264.8 742.725 1264.26 738.373 1265.17 734.384C1265.89 730.394 1267.89 726.949 1269.34 723.141C1272.24 716.25 1273.69 708.816 1273.69 701.381C1268.97 698.298 1262.45 701.018 1257.37 698.661C1251.75 696.122 1250.12 689.232 1249.21 683.248C1244.86 656.773 1238.87 630.661 1231.44 604.912C1230.71 602.554 1229.26 599.653 1226.9 599.29C1226.72 599.29 1226.36 599.29 1226.18 599.29C1224.91 599.472 1224 600.378 1223.28 601.466C1222.92 602.01 1222.55 602.554 1222.19 603.28C1215.66 616.517 1210.95 630.661 1208.41 645.168C1205.14 664.026 1205.51 683.792 1199.7 701.925C1194.81 705.37 1188.28 698.298 1182.48 699.568C1178.13 700.656 1176.31 705.914 1176.13 710.448C1175.95 716.25 1177.58 722.234 1180.66 727.13C1183.02 730.938 1186.1 734.565 1185.92 739.098C1185.74 744.72 1178.31 748.89 1173.41 745.989C1171.6 744.901 1170.15 743.088 1168.33 742.362C1163.98 740.368 1158.72 743.994 1156.91 748.528C1155.28 753.061 1156.18 758.138 1157.09 762.853C1161.08 782.618 1165.43 803.29 1177.76 819.066C1193.36 839.013 1203.51 862.042 1213.3 885.253C1216.39 892.506 1219.65 900.304 1226.36 904.293C1226.72 904.474 1227.09 904.656 1227.45 904.837C1228.54 905.381 1229.81 905.925 1231.08 906.106C1235.43 907.376 1240.14 907.194 1244.68 906.832C1252.11 906.288 1259.91 905.018 1266.62 901.573C1270.61 899.578 1274.41 896.677 1276.41 892.506C1278.58 888.154 1278.58 883.258 1278.58 878.362C1278.4 858.234 1278.22 838.106 1278.22 818.16C1278.22 815.077 1278.22 811.813 1278.22 808.73C1278.22 808.73 1278.22 808.73 1278.22 808.549" fill="#F2E9E6"/>
<path d="M1231.26 906.106C1229.99 905.744 1228.72 905.381 1227.63 904.837L1226.9 851.344V846.448L1226.18 796.218V791.685L1225.45 742.544V738.01L1224.73 690.138V685.605L1223.46 601.466C1224.18 600.378 1225.09 599.472 1226.36 599.29C1226.54 599.29 1226.9 599.29 1227.09 599.29L1228.35 685.242V689.776L1229.08 737.829V742.362L1229.81 791.504V796.037L1230.53 846.266V851.162L1231.26 906.106Z" fill="#2C1B9C"/>
<path d="M1228.72 852.251C1228.35 852.251 1227.81 852.069 1227.45 851.888L1187.19 816.528C1186.46 815.802 1186.28 814.714 1187.01 813.989C1187.73 813.264 1188.82 813.082 1189.55 813.808L1228.72 848.08L1271.51 808.731C1272.24 808.005 1273.32 808.186 1274.05 808.912C1274.77 809.637 1274.59 810.725 1273.87 811.451L1229.8 851.888C1229.62 852.069 1229.08 852.251 1228.72 852.251Z" fill="#2C1B9C"/>
<path d="M1227.99 797.125C1227.63 797.125 1227.27 796.944 1226.91 796.762L1174.86 758.864C1174.14 758.32 1173.96 757.05 1174.5 756.325C1175.04 755.6 1176.31 755.418 1177.04 755.962L1227.99 792.954L1280.04 753.786C1280.76 753.242 1282.03 753.424 1282.57 754.149C1283.12 754.874 1282.94 756.144 1282.21 756.688L1229.08 796.762C1228.72 796.944 1228.36 797.125 1227.99 797.125Z" fill="#2C1B9C"/>
<path d="M1227.09 743.451C1226.72 743.451 1226.36 743.269 1226 743.088L1183.02 711.536C1182.3 710.992 1182.12 709.722 1182.66 708.997C1183.2 708.272 1184.47 708.09 1185.2 708.634L1227.09 739.28L1260.63 714.074C1261.36 713.53 1262.63 713.712 1263.17 714.437C1263.72 715.163 1263.53 716.432 1262.81 716.976L1228.17 743.088C1227.99 743.45 1227.45 743.451 1227.09 743.451Z" fill="#2C1B9C"/>
<path d="M1226.36 691.045C1226 691.045 1225.64 690.864 1225.27 690.682L1211.31 680.89C1210.41 680.346 1210.22 679.258 1210.95 678.352C1211.49 677.445 1212.58 677.264 1213.49 677.989L1226.36 686.874L1237.79 677.989C1238.51 677.445 1239.78 677.445 1240.33 678.352C1240.87 679.077 1240.87 680.346 1239.96 680.89L1227.45 690.682C1227.27 690.864 1226.73 691.045 1226.36 691.045Z" fill="#2C1B9C"/>
<path d="M1258.28 964.677C1252.66 973.019 1241.05 983.717 1230.9 986.256C1227.63 987.163 1224.01 986.981 1220.2 986.075C1218.75 985.712 1217.3 985.349 1215.66 984.805C1206.78 981.904 1197.71 976.464 1191.37 973.2C1184.84 969.755 1177.95 966.309 1172.87 961.051C1167.61 955.792 1164.17 948.357 1165.43 940.923C1166.34 936.027 1169.24 931.675 1171.06 926.96C1172.87 922.245 1173.59 916.443 1170.33 912.635C1167.61 909.189 1162.53 908.464 1158.18 908.826C1153.83 909.189 1149.48 910.277 1144.94 910.096C1140.59 909.733 1135.88 907.376 1134.79 903.024C1133.88 899.579 1135.7 896.133 1136.6 892.688C1139.14 884.709 1137.87 875.642 1133.52 868.389C1128.62 860.048 1120.28 861.861 1112.3 857.509C1102.87 852.432 1096.35 842.458 1095.62 831.76C1095.62 830.49 1095.62 829.04 1096.17 827.771C1096.89 826.32 1098.34 825.594 1099.79 824.869C1107.59 820.698 1117.56 817.979 1120.65 809.637C1123.18 802.928 1119.74 795.674 1117.2 788.965C1113.21 778.81 1110.49 768.112 1109.58 757.232C1109.22 753.242 1109.04 748.709 1111.4 745.445C1111.58 745.082 1111.94 744.72 1112.3 744.357C1113.21 743.45 1114.12 742.725 1115.39 742C1117.74 740.73 1120.46 740.368 1123.18 740.549C1128.99 741.274 1134.25 744.901 1137.87 749.616C1141.5 754.149 1143.86 759.77 1146.03 765.21C1149.66 773.733 1153.29 782.437 1156.91 790.96C1157.09 791.504 1157.46 792.229 1157.82 792.592C1158.54 793.317 1159.81 793.498 1160.72 793.498C1167.79 793.498 1174.86 790.416 1181.94 791.685C1187.92 792.592 1193 796.762 1196.26 801.84C1199.53 806.917 1200.61 813.082 1200.43 819.066C1200.25 823.6 1199.53 828.314 1200.79 832.666C1201.88 836.474 1204.42 839.557 1206.96 842.64C1209.68 845.904 1212.22 849.168 1215.66 851.525C1221.1 855.333 1229.81 856.058 1234.7 860.592C1239.06 864.944 1241.78 874.01 1243.23 879.813C1247.4 896.496 1244.68 915.355 1253.74 930.043C1257.01 935.483 1261.9 940.016 1263.35 946.181C1264.81 952.347 1262.09 959.056 1258.28 964.677Z" fill="#8D7CF4"/>
<path d="M1220.38 986.075C1218.93 985.712 1217.48 985.349 1215.84 984.805L1197.71 942.736L1196.08 939.109L1180.67 903.205L1178.85 899.216L1164.53 865.851L1162.71 861.68L1146.39 823.6L1144.58 819.611L1129.71 785.157L1127.72 780.443L1112.12 744.357C1113.03 743.451 1113.93 742.725 1115.2 742L1131.34 779.717L1133.16 783.888L1148.03 818.341L1149.66 822.331L1166.16 860.592L1167.97 864.763L1182.3 897.947L1184.11 901.936L1199.52 937.659L1201.16 941.467L1220.38 986.075Z" fill="#2C1B9C"/>
<path d="M1131.34 785.339C1131.16 785.339 1130.98 785.339 1130.62 785.157L1120.83 781.349C1119.92 780.986 1119.38 779.899 1119.74 778.992C1120.1 778.085 1121.19 777.541 1122.1 777.904L1130.44 781.168L1136.97 769.925C1137.51 769.019 1138.6 768.837 1139.5 769.2C1140.41 769.744 1140.59 770.832 1140.23 771.739L1132.98 784.432C1132.61 785.157 1131.89 785.339 1131.34 785.339Z" fill="#2C1B9C"/>
<path d="M1147.85 823.781C1147.67 823.781 1147.67 823.781 1147.48 823.781L1122.28 818.885C1121.37 818.704 1120.65 817.797 1120.83 816.709C1121.01 815.621 1121.92 815.077 1123 815.259L1147.12 819.973L1160.9 799.301C1161.45 798.395 1162.54 798.213 1163.44 798.757C1164.35 799.301 1164.53 800.389 1163.99 801.296L1149.66 823.056C1148.94 823.418 1148.39 823.781 1147.85 823.781Z" fill="#2C1B9C"/>
<path d="M1198.98 942.917L1172.87 941.467C1171.78 941.467 1171.06 940.56 1171.24 939.472C1171.24 938.384 1172.15 937.659 1173.23 937.84L1198.26 939.291L1223.83 905.925C1224.37 905.2 1225.64 905.019 1226.36 905.563C1227.09 906.107 1227.27 907.376 1226.73 908.101L1200.43 942.192C1200.07 942.736 1199.53 942.917 1198.98 942.917Z" fill="#2C1B9C"/>
<path d="M1165.98 866.213C1165.8 866.213 1165.62 866.213 1165.43 866.213L1117.02 853.157C1116.11 852.976 1115.57 851.888 1115.75 850.981C1115.93 850.075 1117.02 849.349 1117.93 849.712L1165.07 862.405L1189.37 821.243C1189.91 820.336 1191 820.155 1191.91 820.517C1192.82 821.061 1193 822.149 1192.63 823.056L1167.79 865.488C1167.25 865.851 1166.7 866.213 1165.98 866.213Z" fill="#2C1B9C"/>
<path d="M1182.12 903.568C1181.94 903.568 1181.94 903.568 1181.76 903.568L1147.12 897.402C1146.21 897.221 1145.49 896.314 1145.67 895.226C1145.85 894.32 1146.76 893.594 1147.85 893.776L1181.39 899.76L1205.15 860.592C1205.69 859.685 1206.78 859.504 1207.69 860.048C1208.59 860.592 1208.77 861.68 1208.23 862.586L1183.75 902.661C1183.21 903.205 1182.66 903.568 1182.12 903.568Z" fill="#2C1B9C"/>
<path d="M1346.95 817.253C1354.75 834.842 1353.66 864.4 1341.33 870.565C1340.78 906.832 1335.16 922.971 1314.31 932.763C1329.9 953.616 1270.06 968.667 1239.24 974.107C1237.79 974.288 1236.34 974.651 1234.88 974.832C1231.62 975.376 1228.9 975.739 1226.72 975.92C1226.72 975.92 1205.51 939.472 1208.59 885.435C1211.67 831.216 1243.77 843.728 1249.03 849.349C1253.74 793.317 1283.3 789.328 1296.18 801.115C1313.76 768.112 1327.36 756.325 1336.61 753.424C1338.24 752.88 1339.7 752.698 1340.96 752.698C1348.04 752.517 1351.66 757.413 1352.21 759.226C1353.11 763.397 1357.83 803.29 1346.95 817.253Z" fill="#8D7CF4"/>
<path d="M1340.96 752.698L1239.23 974.107C1237.78 974.288 1236.33 974.651 1234.88 974.832L1336.61 753.424C1338.06 753.061 1339.51 752.698 1340.96 752.698Z" fill="#2C1B9C"/>
<path d="M1252.47 942.917C1251.75 942.917 1251.2 942.555 1250.84 941.829L1220.92 880.357C1220.56 879.451 1220.92 878.363 1221.83 878C1222.73 877.637 1223.82 878 1224.18 878.907L1253.38 939.109L1316.48 925.509C1317.39 925.328 1318.48 925.872 1318.66 926.96C1318.84 928.048 1318.3 928.955 1317.21 929.136L1252.83 943.099C1252.65 942.917 1252.47 942.917 1252.47 942.917Z" fill="#2C1B9C"/>
<path d="M1270.6 903.024C1269.88 903.024 1269.34 902.661 1268.97 902.117L1247.21 863.493C1246.67 862.587 1247.03 861.499 1247.94 860.955C1248.84 860.411 1249.93 860.773 1250.48 861.68L1271.51 899.216L1319.56 891.237C1320.65 891.056 1321.56 891.781 1321.74 892.688C1321.92 893.595 1321.2 894.683 1320.29 894.864L1270.97 903.205C1270.97 903.024 1270.79 903.024 1270.6 903.024Z" fill="#2C1B9C"/>
<path d="M1287.65 866.213C1286.93 866.213 1286.38 865.851 1286.02 865.307L1261.36 821.243C1260.82 820.336 1261.18 819.248 1262.08 818.704C1262.99 818.16 1264.08 818.523 1264.62 819.429L1288.56 862.405L1326.28 854.971C1327.18 854.789 1328.27 855.333 1328.45 856.421C1328.63 857.328 1328.09 858.416 1327 858.597L1288.02 866.213C1287.83 866.213 1287.83 866.213 1287.65 866.213Z" fill="#2C1B9C"/>
<path d="M1305.6 827.227C1304.88 827.227 1304.33 826.864 1303.97 826.32L1293.27 805.829C1292.73 804.923 1293.09 803.835 1294 803.472C1294.9 802.928 1295.99 803.291 1296.35 804.197L1306.33 823.419L1329.18 818.704C1330.08 818.523 1331.17 819.067 1331.35 820.155C1331.53 821.061 1330.99 822.149 1329.9 822.331L1305.6 827.227C1305.6 827.227 1305.78 827.227 1305.6 827.227Z" fill="#2C1B9C"/>
<path d="M1321.2 793.136C1320.84 793.136 1320.65 793.136 1320.47 792.955C1319.93 792.773 1319.75 792.229 1319.57 791.866L1315.21 776.453C1315.03 775.546 1315.58 774.459 1316.48 774.277C1317.39 774.096 1318.48 774.64 1318.66 775.546L1322.47 788.965L1339.51 782.075C1340.42 781.712 1341.51 782.075 1341.87 782.981C1342.23 783.888 1341.87 784.976 1340.96 785.339L1321.92 793.136C1321.56 793.136 1321.38 793.136 1321.2 793.136Z" fill="#2C1B9C"/>
<path d="M1301.25 962.32L1284.57 1125.16L1283.12 1138.03H1177.4L1176.13 1125.16L1159.27 962.32H1301.25Z" fill="#F4B5CF"/>
<path d="M1284.57 1125.16L1283.12 1138.03H1177.4L1176.13 1125.16H1284.57Z" fill="#4748D1"/>
<path d="M675.038 296.831C676.082 296.087 676.314 294.623 675.548 293.577C674.806 292.531 673.344 292.298 672.299 293.065L550.962 381.405C549.918 382.149 549.686 383.613 550.452 384.66C550.916 385.287 551.612 385.613 552.331 385.613C552.796 385.613 553.283 385.473 553.7 385.171L675.038 296.831Z" fill="#4B39C3"/>
<path d="M785.689 577.806C786.95 578.064 788.184 577.233 788.426 575.954C788.685 574.693 787.853 573.459 786.574 573.216L638.591 544.481C637.33 544.223 636.096 545.054 635.854 546.333C635.711 547.103 635.95 547.838 636.443 548.366C636.761 548.707 637.197 548.97 637.705 549.07L785.689 577.806Z" fill="#4B39C3"/>
</svg>
